STARTFONT 2.1
FONT -Adobe-New Century Schoolbook-Bold-R-Normal--17-120-100-100-P-99-ISO10646-1
SIZE 12 100 100
FONTBOUNDINGBOX 22 27 -3 -7
COMMENT ISO10646-1 extension by Markus Kuhn <mkuhn@acm.org>, 2001-03-20
COMMENT 
COMMENT +
COMMENT  Copyright 1984-1989, 1994 Adobe Systems Incorporated.
COMMENT  Copyright 1988, 1994 Digital Equipment Corporation.
COMMENT
COMMENT  Adobe is a trademark of Adobe Systems Incorporated which may be
COMMENT  registered in certain jurisdictions.
COMMENT  Permission to use these trademarks is hereby granted only in
COMMENT  association with the images described in this file.
COMMENT
COMMENT  Permission to use, copy, modify, distribute and sell this software
COMMENT  and its documentation for any purpose and without fee is hereby
COMMENT  granted, provided that the above copyright notices appear in all
COMMENT  copies and that both those copyright notices and this permission
COMMENT  notice appear in supporting documentation, and that the names of
COMMENT  Adobe Systems and Digital Equipment Corporation not be used in
COMMENT  advertising or publicity pertaining to distribution of the software
COMMENT  without specific, written prior permission.  Adobe Systems and
COMMENT  Digital Equipment Corporation make no representations about the
COMMENT  suitability of this software for any purpose.  It is provided "as
COMMENT  is" without express or implied warranty.
COMMENT -
STARTPROPERTIES 26
FOUNDRY "Adobe"
FAMILY_NAME "New Century Schoolbook"
WEIGHT_NAME "Bold"
SLANT "R"
SETWIDTH_NAME "Normal"
ADD_STYLE_NAME ""
PIXEL_SIZE 17
POINT_SIZE 120
RESOLUTION_X 100
RESOLUTION_Y 100
SPACING "P"
AVERAGE_WIDTH 99
CHARSET_REGISTRY "ISO10646"
CHARSET_ENCODING "1"
CAP_HEIGHT 12
X_HEIGHT 8
FONT_ASCENT 14
FONT_DESCENT 3
FACE_NAME "New Century Schoolbook Bold"
COPYRIGHT "Copyright (c) 1984, 1987 Adobe Systems Incorporated. All Rights Reserved. Copyright (c) 1988, 1991 Digital Equipment Corporation. All Rights Reserved."

STARTCHAR char0
ENCODING 0
SWIDTH 870 0
DWIDTH 15 0
BBX 13 11 0 0
BITMAP
AAA8
0000
8008
0000
8008
0000
8008
0000
8008
0000
AAA8
ENDCHAR
STARTCHAR space
ENCODING 32
SWIDTH 287 0
DWIDTH 4 0
BBX 1 1 1 0
BITMAP
00
ENDCHAR
STARTCHAR exclam
ENCODING 33
SWIDTH 296 0
DWIDTH 5 0
BBX 3 12 1 0
BITMAP
40
E0
E0
E0
E0
40
40
00
40
E0
E0
40
ENDCHAR
STARTCHAR quotedbl
ENCODING 34
SWIDTH 333 0
DWIDTH 6 0
BBX 5 5 0 7
BITMAP
D8
D8
D8
90
90
ENDCHAR
STARTCHAR numbersign
ENCODING 35
SWIDTH 574 0
DWIDTH 10 0
BBX 10 12 0 0
BITMAP
1980
1980
1980
7FC0
7FC0
3300
3300
FF80
FF80
6600
6600
6600
ENDCHAR
STARTCHAR dollar
ENCODING 36
SWIDTH 574 0
DWIDTH 10 0
BBX 9 15 0 -1
BITMAP
0800
0800
3E00
6900
CB80
C900
FC00
7F00
1F80
4980
E980
C980
6B00
3E00
0800
ENDCHAR
STARTCHAR percent
ENCODING 37
SWIDTH 833 0
DWIDTH 14 0
BBX 12 12 1 0
BITMAP
3880
7780
6500
C500
CA00
CAE0
75D0
0590
0B10
0B20
1320
11C0
ENDCHAR
STARTCHAR ampersand
ENCODING 38
SWIDTH 852 0
DWIDTH 14 0
BBX 12 12 1 0
BITMAP
0F00
1980
1980
1900
1E00
3CF0
6E60
E740
C780
E390
F3F0
7CE0
ENDCHAR
STARTCHAR quotesingle
ENCODING 39
SWIDTH 241 0
DWIDTH 4 0
BBX 2 5 1 7
BITMAP
C0
C0
C0
80
80
ENDCHAR
STARTCHAR parenleft
ENCODING 40
SWIDTH 389 0
DWIDTH 6 0
BBX 4 14 1 -2
BITMAP
10
20
60
60
C0
C0
C0
C0
C0
C0
60
60
20
10
ENDCHAR
STARTCHAR parenright
ENCODING 41
SWIDTH 389 0
DWIDTH 6 0
BBX 4 14 0 -2
BITMAP
80
40
60
60
30
30
30
30
30
30
60
60
40
80
ENDCHAR
STARTCHAR asterisk
ENCODING 42
SWIDTH 500 0
DWIDTH 8 0
BBX 7 7 0 5
BITMAP
10
54
D6
38
D6
54
10
ENDCHAR
STARTCHAR plus
ENCODING 43
SWIDTH 606 0
DWIDTH 10 0
BBX 8 8 1 0
BITMAP
18
18
18
FF
FF
18
18
18
ENDCHAR
STARTCHAR comma
ENCODING 44
SWIDTH 278 0
DWIDTH 5 0
BBX 4 6 0 -3
BITMAP
60
F0
70
20
60
80
ENDCHAR
STARTCHAR hyphen
ENCODING 45
SWIDTH 333 0
DWIDTH 5 0
BBX 4 2 0 3
BITMAP
F0
F0
ENDCHAR
STARTCHAR period
ENCODING 46
SWIDTH 278 0
DWIDTH 5 0
BBX 4 3 0 0
BITMAP
60
F0
60
ENDCHAR
STARTCHAR slash
ENCODING 47
SWIDTH 278 0
DWIDTH 5 0
BBX 5 12 0 0
BITMAP
08
08
10
10
10
20
20
40
40
40
80
80
ENDCHAR
STARTCHAR zero
ENCODING 48
SWIDTH 574 0
DWIDTH 10 0
BBX 9 12 0 0
BITMAP
1C00
3600
6300
6300
E380
E380
E380
E380
6300
6300
3600
1C00
ENDCHAR
STARTCHAR one
ENCODING 49
SWIDTH 574 0
DWIDTH 10 0
BBX 7 12 1 0
BITMAP
18
F8
38
38
38
38
38
38
38
38
38
FE
ENDCHAR
STARTCHAR two
ENCODING 50
SWIDTH 574 0
DWIDTH 10 0
BBX 8 12 1 0
BITMAP
3C
46
E7
E7
47
0E
0C
18
31
61
FF
FF
ENDCHAR
STARTCHAR three
ENCODING 51
SWIDTH 574 0
DWIDTH 10 0
BBX 9 12 0 0
BITMAP
3E00
6700
7300
2300
0600
1F00
0700
0380
6380
F380
6700
3E00
ENDCHAR
STARTCHAR four
ENCODING 52
SWIDTH 574 0
DWIDTH 10 0
BBX 9 12 0 0
BITMAP
0200
0600
0E00
1E00
2E00
2E00
4E00
8E00
FF80
0E00
0E00
3F80
ENDCHAR
STARTCHAR five
ENCODING 53
SWIDTH 574 0
DWIDTH 10 0
BBX 8 12 1 0
BITMAP
7F
7E
40
40
7C
4E
07
47
E7
E7
CE
7C
ENDCHAR
STARTCHAR six
ENCODING 54
SWIDTH 574 0
DWIDTH 10 0
BBX 9 12 0 0
BITMAP
1F00
3380
6780
6300
E000
EE00
F700
E380
E380
6380
7700
1E00
ENDCHAR
STARTCHAR seven
ENCODING 55
SWIDTH 574 0
DWIDTH 10 0
BBX 8 12 1 0
BITMAP
FF
FE
86
86
84
0C
0C
18
18
38
38
10
ENDCHAR
STARTCHAR eight
ENCODING 56
SWIDTH 574 0
DWIDTH 10 0
BBX 8 12 1 0
BITMAP
3C
66
E7
E7
66
3C
66
E7
E7
E7
66
3C
ENDCHAR
STARTCHAR nine
ENCODING 57
SWIDTH 574 0
DWIDTH 10 0
BBX 9 12 0 0
BITMAP
3C00
7700
E300
E380
E380
7780
3B80
0380
6300
F300
E600
7C00
ENDCHAR
STARTCHAR colon
ENCODING 58
SWIDTH 278 0
DWIDTH 5 0
BBX 4 8 0 0
BITMAP
60
F0
60
00
00
60
F0
60
ENDCHAR
STARTCHAR semicolon
ENCODING 59
SWIDTH 278 0
DWIDTH 5 0
BBX 4 11 0 -3
BITMAP
60
F0
60
00
00
60
F0
70
20
60
80
ENDCHAR
STARTCHAR less
ENCODING 60
SWIDTH 606 0
DWIDTH 10 0
BBX 8 8 1 1
BITMAP
03
0F
3C
F0
F0
3C
0F
03
ENDCHAR
STARTCHAR equal
ENCODING 61
SWIDTH 606 0
DWIDTH 10 0
BBX 8 6 1 1
BITMAP
FF
FF
00
00
FF
FF
ENDCHAR
STARTCHAR greater
ENCODING 62
SWIDTH 606 0
DWIDTH 10 0
BBX 8 8 1 1
BITMAP
C0
F0
3C
0F
0F
3C
F0
C0
ENDCHAR
STARTCHAR question
ENCODING 63
SWIDTH 500 0
DWIDTH 8 0
BBX 8 12 0 0
BITMAP
3C
66
F7
67
0E
0C
10
00
10
38
38
10
ENDCHAR
STARTCHAR at
ENCODING 64
SWIDTH 747 0
DWIDTH 12 0
BBX 12 13 0 -1
BITMAP
0F80
38E0
6020
46B0
CD90
9990
9990
99B0
DBA0
4C40
6030
38E0
0F80
ENDCHAR
STARTCHAR A
ENCODING 65
SWIDTH 759 0
DWIDTH 13 0
BBX 13 12 0 0
BITMAP
0600
0700
0700
0F00
0B80
1B80
11C0
3FC0
31C0
20E0
60E0
F1F8
ENDCHAR
STARTCHAR B
ENCODING 66
SWIDTH 778 0
DWIDTH 13 0
BBX 12 12 0 0
BITMAP
FFC0
38E0
3870
3870
38E0
3FC0
38E0
3870
3870
3870
38E0
FFC0
ENDCHAR
STARTCHAR C
ENCODING 67
SWIDTH 778 0
DWIDTH 13 0
BBX 11 12 1 0
BITMAP
0FA0
38E0
7060
7020
E020
E000
E000
E020
7020
7040
38C0
0F00
ENDCHAR
STARTCHAR D
ENCODING 68
SWIDTH 833 0
DWIDTH 14 0
BBX 13 12 0 0
BITMAP
FF80
38E0
3870
3870
3838
3838
3838
3838
3870
3870
38E0
FF80
ENDCHAR
STARTCHAR E
ENCODING 69
SWIDTH 759 0
DWIDTH 12 0
BBX 11 12 0 0
BITMAP
FFE0
3860
3860
3920
3B00
3F00
3B00
3920
3820
3860
3860
FFE0
ENDCHAR
STARTCHAR F
ENCODING 70
SWIDTH 722 0
DWIDTH 12 0
BBX 11 12 0 0
BITMAP
FFE0
3860
3860
3920
3B00
3F00
3B00
3900
3800
3800
3800
FE00
ENDCHAR
STARTCHAR G
ENCODING 71
SWIDTH 833 0
DWIDTH 14 0
BBX 13 12 1 0
BITMAP
0FA0
38E0
7060
7020
E020
E000
E3F8
E0E0
70E0
70E0
39E0
0F20
ENDCHAR
STARTCHAR H
ENCODING 72
SWIDTH 870 0
DWIDTH 15 0
BBX 14 12 0 0
BITMAP
FEFC
3870
3870
3870
3870
3FF0
3870
3870
3870
3870
3870
FEFC
ENDCHAR
STARTCHAR I
ENCODING 73
SWIDTH 444 0
DWIDTH 7 0
BBX 7 12 0 0
BITMAP
FE
38
38
38
38
38
38
38
38
38
38
FE
ENDCHAR
STARTCHAR J
ENCODING 74
SWIDTH 648 0
DWIDTH 11 0
BBX 10 12 0 0
BITMAP
1FC0
0700
0700
0700
0700
0700
6700
F700
E700
8700
CE00
7C00
ENDCHAR
STARTCHAR K
ENCODING 75
SWIDTH 815 0
DWIDTH 13 0
BBX 14 12 0 0
BITMAP
FEF8
3860
38C0
3980
3B00
3F80
3F80
3BC0
39E0
38F0
3878
FEFC
ENDCHAR
STARTCHAR L
ENCODING 76
SWIDTH 722 0
DWIDTH 12 0
BBX 11 12 0 0
BITMAP
FE00
3800
3800
3800
3800
3800
3800
3820
3820
3860
3860
FFE0
ENDCHAR
STARTCHAR M
ENCODING 77
SWIDTH 981 0
DWIDTH 16 0
BBX 16 12 0 0
BITMAP
FC3F
3C3C
2E3C
2E5C
2E5C
275C
279C
279C
239C
231C
211C
F93F
ENDCHAR
STARTCHAR N
ENCODING 78
SWIDTH 833 0
DWIDTH 14 0
BBX 14 12 0 0
BITMAP
F07C
3810
3C10
3E10
2F10
2790
23D0
21F0
20F0
2070
2030
F810
ENDCHAR
STARTCHAR O
ENCODING 79
SWIDTH 833 0
DWIDTH 14 0
BBX 12 12 1 0
BITMAP
0F00
39C0
70E0
70E0
E070
E070
E070
E070
70E0
70E0
39C0
0F00
ENDCHAR
STARTCHAR P
ENCODING 80
SWIDTH 759 0
DWIDTH 13 0
BBX 12 12 0 0
BITMAP
FFC0
38E0
3870
3870
3870
38E0
3FC0
3800
3800
3800
3800
FE00
ENDCHAR
STARTCHAR Q
ENCODING 81
SWIDTH 833 0
DWIDTH 14 0
BBX 12 15 1 -3
BITMAP
0F00
39C0
70E0
70E0
E070
E070
E070
E670
6960
79E0
39C0
0F80
01D0
01F0
00E0
ENDCHAR
STARTCHAR R
ENCODING 82
SWIDTH 815 0
DWIDTH 14 0
BBX 13 12 0 0
BITMAP
FFC0
38E0
3870
3870
38E0
3FC0
3980
39C0
38E0
38E8
38F8
FC70
ENDCHAR
STARTCHAR S
ENCODING 83
SWIDTH 667 0
DWIDTH 11 0
BBX 9 12 1 0
BITMAP
3E80
4380
C180
C080
F880
7E00
3F00
8F80
8180
C180
E100
BE00
ENDCHAR
STARTCHAR T
ENCODING 84
SWIDTH 722 0
DWIDTH 12 0
BBX 11 12 0 0
BITMAP
FFE0
CE60
8E20
8E20
0E00
0E00
0E00
0E00
0E00
0E00
0E00
3F80
ENDCHAR
STARTCHAR U
ENCODING 85
SWIDTH 833 0
DWIDTH 14 0
BBX 14 12 0 0
BITMAP
FE7C
3810
3810
3810
3810
3810
3810
3810
3810
1C20
1E60
0780
ENDCHAR
STARTCHAR V
ENCODING 86
SWIDTH 759 0
DWIDTH 13 0
BBX 13 12 -1 0
BITMAP
FE78
3830
3C20
1C20
1C40
0E40
0E80
0F80
0780
0700
0300
0300
ENDCHAR
STARTCHAR W
ENCODING 87
SWIDTH 981 0
DWIDTH 16 0
BBX 15 12 0 0
BITMAP
FBDE
718C
3188
39C8
39D8
3BD0
1AD0
1EF0
1CE0
0C60
0C60
0C60
ENDCHAR
STARTCHAR X
ENCODING 88
SWIDTH 722 0
DWIDTH 12 0
BBX 12 12 0 0
BITMAP
F9F0
7060
3840
1C80
1F00
0F00
0F00
0F80
13C0
21C0
60E0
F9F0
ENDCHAR
STARTCHAR Y
ENCODING 89
SWIDTH 722 0
DWIDTH 12 0
BBX 13 12 -1 0
BITMAP
FEF8
3860
1C40
1C80
0E80
0F00
0700
0700
0700
0700
0700
1FC0
ENDCHAR
STARTCHAR Z
ENCODING 90
SWIDTH 667 0
DWIDTH 11 0
BBX 9 12 1 0
BITMAP
FF80
C380
8700
8700
0E00
1C00
1C00
3880
7080
7180
E380
FF80
ENDCHAR
STARTCHAR bracketleft
ENCODING 91
SWIDTH 389 0
DWIDTH 6 0
BBX 4 14 1 -2
BITMAP
F0
C0
C0
C0
C0
C0
C0
C0
C0
C0
C0
C0
C0
F0
ENDCHAR
STARTCHAR backslash
ENCODING 92
SWIDTH 606 0
DWIDTH 10 0
BBX 7 12 1 0
BITMAP
C0
C0
60
60
30
30
18
18
0C
0C
06
06
ENDCHAR
STARTCHAR bracketright
ENCODING 93
SWIDTH 389 0
DWIDTH 7 0
BBX 4 14 1 -2
BITMAP
F0
30
30
30
30
30
30
30
30
30
30
30
30
F0
ENDCHAR
STARTCHAR asciicircum
ENCODING 94
SWIDTH 606 0
DWIDTH 10 0
BBX 8 7 1 5
BITMAP
18
18
3C
66
66
C3
C3
ENDCHAR
STARTCHAR underscore
ENCODING 95
SWIDTH 500 0
DWIDTH 8 0
BBX 8 2 0 -2
BITMAP
FF
FF
ENDCHAR
STARTCHAR grave
ENCODING 96
SWIDTH 333 0
DWIDTH 6 0
BBX 4 3 0 9
BITMAP
C0
E0
30
ENDCHAR
STARTCHAR a
ENCODING 97
SWIDTH 611 0
DWIDTH 10 0
BBX 9 8 0 0
BITMAP
7E00
E700
C700
1F00
6700
E700
EF00
7780
ENDCHAR
STARTCHAR b
ENCODING 98
SWIDTH 648 0
DWIDTH 11 0
BBX 11 12 -1 0
BITMAP
F800
3800
3800
3800
3B80
3DC0
38E0
38E0
38E0
38E0
3DC0
2B80
ENDCHAR
STARTCHAR c
ENCODING 99
SWIDTH 556 0
DWIDTH 9 0
BBX 8 8 0 0
BITMAP
3E
73
E7
E0
E0
E3
76
3C
ENDCHAR
STARTCHAR d
ENCODING 100
SWIDTH 667 0
DWIDTH 11 0
BBX 11 12 0 0
BITMAP
0780
0380
0380
0380
3B80
7780
E380
E380
E380
E380
7780
3AE0
ENDCHAR
STARTCHAR e
ENCODING 101
SWIDTH 574 0
DWIDTH 10 0
BBX 9 8 0 0
BITMAP
3E00
7700
E380
FF80
E000
E180
7300
3E00
ENDCHAR
STARTCHAR f
ENCODING 102
SWIDTH 389 0
DWIDTH 7 0
BBX 9 12 -1 0
BITMAP
0F00
1B80
3B00
3800
FE00
3800
3800
3800
3800
3800
3800
FE00
ENDCHAR
STARTCHAR g
ENCODING 103
SWIDTH 611 0
DWIDTH 10 0
BBX 9 12 0 -3
BITMAP
0180
3F80
7700
E380
E380
F700
7C00
6000
7F00
FF80
C380
FF00
ENDCHAR
STARTCHAR h
ENCODING 104
SWIDTH 685 0
DWIDTH 11 0
BBX 11 12 -1 0
BITMAP
F000
7000
7000
7000
7780
79C0
79C0
71C0
71C0
71C0
71C0
FBE0
ENDCHAR
STARTCHAR i
ENCODING 105
SWIDTH 370 0
DWIDTH 6 0
BBX 5 12 0 0
BITMAP
60
F0
60
00
F0
70
70
70
70
70
70
F8
ENDCHAR
STARTCHAR j
ENCODING 106
SWIDTH 352 0
DWIDTH 6 0
BBX 6 15 -2 -3
BITMAP
18
3C
18
00
7C
1C
1C
1C
1C
1C
1C
1C
DC
D8
70
ENDCHAR
STARTCHAR k
ENCODING 107
SWIDTH 667 0
DWIDTH 11 0
BBX 11 12 0 0
BITMAP
F000
7000
7000
7000
77C0
7380
7700
7E00
7F00
7380
71C0
FBE0
ENDCHAR
STARTCHAR l
ENCODING 108
SWIDTH 352 0
DWIDTH 6 0
BBX 5 12 0 0
BITMAP
F0
70
70
70
70
70
70
70
70
70
70
F8
ENDCHAR
STARTCHAR m
ENCODING 109
SWIDTH 963 0
DWIDTH 16 0
BBX 15 8 0 0
BITMAP
F738
7BDC
739C
739C
739C
739C
739C
FBBE
ENDCHAR
STARTCHAR n
ENCODING 110
SWIDTH 685 0
DWIDTH 11 0
BBX 11 8 -1 0
BITMAP
F780
79C0
71C0
71C0
71C0
71C0
71C0
FBE0
ENDCHAR
STARTCHAR o
ENCODING 111
SWIDTH 611 0
DWIDTH 11 0
BBX 10 8 0 0
BITMAP
1E00
7380
E1C0
E1C0
E1C0
E1C0
7380
1E00
ENDCHAR
STARTCHAR p
ENCODING 112
SWIDTH 667 0
DWIDTH 11 0
BBX 10 11 -1 -3
BITMAP
F700
7B80
71C0
71C0
71C0
71C0
7B80
7700
7000
7000
F800
ENDCHAR
STARTCHAR q
ENCODING 113
SWIDTH 648 0
DWIDTH 10 0
BBX 10 11 -1 -3
BITMAP
3E80
7380
E380
E380
E380
E380
7380
3F80
0380
0380
07C0
ENDCHAR
STARTCHAR r
ENCODING 114
SWIDTH 519 0
DWIDTH 9 0
BBX 9 8 0 0
BITMAP
F700
7B80
7300
7000
7000
7000
7000
F800
ENDCHAR
STARTCHAR s
ENCODING 115
SWIDTH 500 0
DWIDTH 8 0
BBX 7 8 0 0
BITMAP
7A
C6
E2
FC
7E
8E
C6
BC
ENDCHAR
STARTCHAR t
ENCODING 116
SWIDTH 426 0
DWIDTH 7 0
BBX 6 11 0 0
BITMAP
10
10
30
FC
70
70
70
70
74
7C
38
ENDCHAR
STARTCHAR u
ENCODING 117
SWIDTH 685 0
DWIDTH 11 0
BBX 11 8 -1 0
BITMAP
F3C0
71C0
71C0
71C0
71C0
71C0
7BC0
3EE0
ENDCHAR
STARTCHAR v
ENCODING 118
SWIDTH 611 0
DWIDTH 10 0
BBX 10 8 0 0
BITMAP
FBC0
7180
7300
3B00
3A00
1E00
1C00
0C00
ENDCHAR
STARTCHAR w
ENCODING 119
SWIDTH 889 0
DWIDTH 15 0
BBX 15 8 0 0
BITMAP
FBDE
718C
39C8
3BD8
1EF0
1EF0
0C60
0C60
ENDCHAR
STARTCHAR x
ENCODING 120
SWIDTH 611 0
DWIDTH 10 0
BBX 9 8 0 0
BITMAP
FB80
7100
3E00
1C00
1C00
3E00
4700
EF80
ENDCHAR
STARTCHAR y
ENCODING 121
SWIDTH 611 0
DWIDTH 10 0
BBX 10 11 -1 -3
BITMAP
FBC0
7180
3980
3900
1F00
0E00
0E00
0600
3400
7400
3800
ENDCHAR
STARTCHAR z
ENCODING 122
SWIDTH 537 0
DWIDTH 9 0
BBX 7 8 0 0
BITMAP
FE
CC
9C
38
30
72
E6
FE
ENDCHAR
STARTCHAR braceleft
ENCODING 123
SWIDTH 389 0
DWIDTH 6 0
BBX 4 14 1 -2
BITMAP
30
60
60
60
60
60
C0
60
60
60
60
60
60
30
ENDCHAR
STARTCHAR bar
ENCODING 124
SWIDTH 606 0
DWIDTH 10 0
BBX 2 12 4 0
BITMAP
C0
C0
C0
C0
C0
C0
C0
C0
C0
C0
C0
C0
ENDCHAR
STARTCHAR braceright
ENCODING 125
SWIDTH 389 0
DWIDTH 6 0
BBX 4 14 0 -2
BITMAP
C0
60
60
60
60
60
30
60
60
60
60
60
60
C0
ENDCHAR
STARTCHAR asciitilde
ENCODING 126
SWIDTH 606 0
DWIDTH 10 0
BBX 8 3 1 3
BITMAP
72
FF
4E
ENDCHAR
STARTCHAR space
ENCODING 160
SWIDTH 287 0
DWIDTH 4 0
BBX 1 1 1 0
BITMAP
00
ENDCHAR
STARTCHAR exclamdown
ENCODING 161
SWIDTH 296 0
DWIDTH 5 0
BBX 3 12 1 -3
BITMAP
40
E0
E0
40
00
40
40
E0
E0
E0
E0
40
ENDCHAR
STARTCHAR cent
ENCODING 162
SWIDTH 574 0
DWIDTH 10 0
BBX 8 12 0 -2
BITMAP
01
02
3E
73
E7
E7
E8
E9
72
3C
20
40
ENDCHAR
STARTCHAR sterling
ENCODING 163
SWIDTH 574 0
DWIDTH 10 0
BBX 9 12 0 0
BITMAP
1F00
3980
7380
7380
7100
3800
FE00
1800
1800
7880
BF00
6E00
ENDCHAR
STARTCHAR currency
ENCODING 164
SWIDTH 606 0
DWIDTH 10 0
BBX 8 8 1 2
BITMAP
5A
FF
66
C3
C3
66
FF
5A
ENDCHAR
STARTCHAR yen
ENCODING 165
SWIDTH 722 0
DWIDTH 10 0
BBX 10 12 0 0
BITMAP
FBC0
7180
3100
3B00
1A00
1E00
3F00
0C00
3F00
0C00
0C00
3F00
ENDCHAR
STARTCHAR brokenbar
ENCODING 166
SWIDTH 606 0
DWIDTH 10 0
BBX 2 12 4 0
BITMAP
C0
C0
C0
C0
C0
00
00
C0
C0
C0
C0
C0
ENDCHAR
STARTCHAR section
ENCODING 167
SWIDTH 500 0
DWIDTH 9 0
BBX 6 15 1 -3
BITMAP
38
4C
4C
60
30
78
8C
84
C4
78
30
18
C8
C8
70
ENDCHAR
STARTCHAR dieresis
ENCODING 168
SWIDTH 333 0
DWIDTH 6 0
BBX 5 2 0 9
BITMAP
D8
D8
ENDCHAR
STARTCHAR copyright
ENCODING 169
SWIDTH 747 0
DWIDTH 12 0
BBX 12 12 0 0
BITMAP
1F80
39C0
6060
CFB0
D930
9810
9810
D9B0
CF30
6060
39C0
1F80
ENDCHAR
STARTCHAR ordfeminine
ENCODING 170
SWIDTH 367 0
DWIDTH 6 0
BBX 6 7 0 5
BITMAP
70
98
78
D8
6C
00
F8
ENDCHAR
STARTCHAR guillemotleft
ENCODING 171
SWIDTH 500 0
DWIDTH 8 0
BBX 6 5 1 2
BITMAP
24
6C
D8
6C
24
ENDCHAR
STARTCHAR logicalnot
ENCODING 172
SWIDTH 606 0
DWIDTH 10 0
BBX 8 5 0 2
BITMAP
FF
FF
03
03
03
ENDCHAR
STARTCHAR hyphen
ENCODING 173
SWIDTH 333 0
DWIDTH 5 0
BBX 4 2 0 3
BITMAP
F0
F0
ENDCHAR
STARTCHAR registered
ENCODING 174
SWIDTH 747 0
DWIDTH 12 0
BBX 12 12 0 0
BITMAP
1F80
39C0
6060
DF30
C930
8E10
8B10
C9B0
DDF0
6060
39C0
1F80
ENDCHAR
STARTCHAR macron
ENCODING 175
SWIDTH 333 0
DWIDTH 6 0
BBX 5 1 0 10
BITMAP
F8
ENDCHAR
STARTCHAR degree
ENCODING 176
SWIDTH 400 0
DWIDTH 7 0
BBX 5 5 1 7
BITMAP
70
D8
88
D8
70
ENDCHAR
STARTCHAR plusminus
ENCODING 177
SWIDTH 606 0
DWIDTH 10 0
BBX 8 9 1 0
BITMAP
18
18
FF
FF
18
18
00
FF
FF
ENDCHAR
STARTCHAR twosuperior
ENCODING 178
SWIDTH 344 0
DWIDTH 6 0
BBX 5 7 0 5
BITMAP
70
98
D8
10
20
78
F8
ENDCHAR
STARTCHAR threesuperior
ENCODING 179
SWIDTH 344 0
DWIDTH 6 0
BBX 6 7 0 5
BITMAP
78
CC
4C
18
4C
CC
78
ENDCHAR
STARTCHAR acute
ENCODING 180
SWIDTH 333 0
DWIDTH 6 0
BBX 4 3 1 9
BITMAP
30
70
C0
ENDCHAR
STARTCHAR mu
ENCODING 181
SWIDTH 685 0
DWIDTH 11 0
BBX 11 11 0 -3
BITMAP
F3C0
71C0
71C0
71C0
71C0
71C0
7BC0
6EE0
6000
7000
7000
ENDCHAR
STARTCHAR paragraph
ENCODING 182
SWIDTH 747 0
DWIDTH 12 0
BBX 11 12 0 0
BITMAP
7FE0
F980
F980
F980
F980
7980
1980
1980
1980
1980
1980
7FE0
ENDCHAR
STARTCHAR periodcentered
ENCODING 183
SWIDTH 278 0
DWIDTH 5 0
BBX 4 3 0 3
BITMAP
60
F0
60
ENDCHAR
STARTCHAR cedilla
ENCODING 184
SWIDTH 333 0
DWIDTH 6 0
BBX 4 4 0 -3
BITMAP
40
60
30
E0
ENDCHAR
STARTCHAR onesuperior
ENCODING 185
SWIDTH 344 0
DWIDTH 6 0
BBX 4 7 1 5
BITMAP
20
E0
60
60
60
60
F0
ENDCHAR
STARTCHAR ordmasculine
ENCODING 186
SWIDTH 367 0
DWIDTH 6 0
BBX 5 7 0 5
BITMAP
70
D8
D8
D8
70
00
F8
ENDCHAR
STARTCHAR guillemotright
ENCODING 187
SWIDTH 500 0
DWIDTH 8 0
BBX 6 5 1 2
BITMAP
90
D8
6C
D8
90
ENDCHAR
STARTCHAR onequarter
ENCODING 188
SWIDTH 861 0
DWIDTH 14 0
BBX 12 12 1 0
BITMAP
2040
E0C0
6180
6100
6300
6220
F660
0CE0
0920
1BF0
3060
20F0
ENDCHAR
STARTCHAR onehalf
ENCODING 189
SWIDTH 861 0
DWIDTH 14 0
BBX 12 12 1 0
BITMAP
2040
E0C0
6180
6100
6300
62E0
F730
0DB0
0820
1840
30F0
21F0
ENDCHAR
STARTCHAR threequarters
ENCODING 190
SWIDTH 861 0
DWIDTH 14 0
BBX 13 12 0 0
BITMAP
7820
CC60
4CC0
1880
4D80
CD10
7B30
0670
0490
0DF8
1830
1078
ENDCHAR
STARTCHAR questiondown
ENCODING 191
SWIDTH 500 0
DWIDTH 8 0
BBX 8 12 0 -3
BITMAP
08
1C
1C
08
00
08
30
70
E6
EF
66
3C
ENDCHAR
STARTCHAR Agrave
ENCODING 192
SWIDTH 759 0
DWIDTH 13 0
BBX 13 16 0 0
BITMAP
1800
1C00
0600
0000
0600
0700
0700
0F00
0B80
1B80
11C0
3FC0
31C0
20E0
60E0
F1F8
ENDCHAR
STARTCHAR Aacute
ENCODING 193
SWIDTH 759 0
DWIDTH 13 0
BBX 13 16 0 0
BITMAP
0180
0380
0600
0000
0600
0700
0700
0F00
0B80
1B80
11C0
3FC0
31C0
20E0
60E0
F1F8
ENDCHAR
STARTCHAR Acircumflex
ENCODING 194
SWIDTH 759 0
DWIDTH 13 0
BBX 13 16 0 0
BITMAP
0200
0700
0D80
0000
0600
0700
0700
0F00
0B80
1B80
11C0
3FC0
31C0
20E0
60E0
F1F8
ENDCHAR
STARTCHAR Atilde
ENCODING 195
SWIDTH 759 0
DWIDTH 13 0
BBX 13 15 0 0
BITMAP
0E80
1700
0000
0600
0700
0700
0F00
0B80
1B80
11C0
3FC0
31C0
20E0
60E0
F1F8
ENDCHAR
STARTCHAR Adieresis
ENCODING 196
SWIDTH 759 0
DWIDTH 13 0
BBX 13 15 0 0
BITMAP
1980
1980
0000
0600
0700
0700
0F00
0B80
1B80
11C0
3FC0
31C0
20E0
60E0
F1F8
ENDCHAR
STARTCHAR Aring
ENCODING 197
SWIDTH 759 0
DWIDTH 13 0
BBX 13 16 0 0
BITMAP
0600
0B00
0600
0000
0600
0700
0700
0F00
0B80
1B80
11C0
3FC0
31C0
20E0
60E0
F1F8
ENDCHAR
STARTCHAR AE
ENCODING 198
SWIDTH 981 0
DWIDTH 16 0
BBX 16 12 -1 0
BITMAP
1FFF
07C3
05C3
05C9
09D8
09F8
11D8
1FC9
21C1
21C3
61C3
F7FF
ENDCHAR
STARTCHAR Ccedilla
ENCODING 199
SWIDTH 778 0
DWIDTH 13 0
BBX 11 15 1 -3
BITMAP
0FA0
38E0
7060
7020
E020
E000
E000
E020
7020
7040
38C0
0F00
0C00
0600
1C00
ENDCHAR
STARTCHAR Egrave
ENCODING 200
SWIDTH 759 0
DWIDTH 12 0
BBX 11 16 0 0
BITMAP
1800
1C00
0600
0000
FFE0
3860
3860
3920
3B00
3F00
3B00
3920
3820
3860
3860
FFE0
ENDCHAR
STARTCHAR Eacute
ENCODING 201
SWIDTH 759 0
DWIDTH 12 0
BBX 11 16 0 0
BITMAP
0180
0380
0600
0000
FFE0
3860
3860
3920
3B00
3F00
3B00
3920
3820
3860
3860
FFE0
ENDCHAR
STARTCHAR Ecircumflex
ENCODING 202
SWIDTH 759 0
DWIDTH 12 0
BBX 11 16 0 0
BITMAP
0200
0700
0D80
0000
FFE0
3860
3860
3920
3B00
3F00
3B00
3920
3820
3860
3860
FFE0
ENDCHAR
STARTCHAR Edieresis
ENCODING 203
SWIDTH 759 0
DWIDTH 12 0
BBX 11 15 0 0
BITMAP
1980
1980
0000
FFE0
3860
3860
3920
3B00
3F00
3B00
3920
3820
3860
3860
FFE0
ENDCHAR
STARTCHAR Igrave
ENCODING 204
SWIDTH 444 0
DWIDTH 7 0
BBX 7 16 0 0
BITMAP
60
70
18
00
FE
38
38
38
38
38
38
38
38
38
38
FE
ENDCHAR
STARTCHAR Iacute
ENCODING 205
SWIDTH 444 0
DWIDTH 7 0
BBX 7 16 0 0
BITMAP
0C
1C
30
00
FE
38
38
38
38
38
38
38
38
38
38
FE
ENDCHAR
STARTCHAR Icircumflex
ENCODING 206
SWIDTH 444 0
DWIDTH 7 0
BBX 7 16 0 0
BITMAP
10
38
6C
00
FE
38
38
38
38
38
38
38
38
38
38
FE
ENDCHAR
STARTCHAR Idieresis
ENCODING 207
SWIDTH 444 0
DWIDTH 7 0
BBX 7 15 0 0
BITMAP
6C
6C
00
FE
38
38
38
38
38
38
38
38
38
38
FE
ENDCHAR
STARTCHAR Eth
ENCODING 208
SWIDTH 833 0
DWIDTH 14 0
BBX 13 12 0 0
BITMAP
FF80
38E0
3870
3870
3838
7E38
3838
3838
3870
3870
38E0
FF80
ENDCHAR
STARTCHAR Ntilde
ENCODING 209
SWIDTH 833 0
DWIDTH 14 0
BBX 14 15 0 0
BITMAP
0740
0B80
0000
F07C
3810
3C10
3E10
2F10
2790
23D0
21F0
20F0
2070
2030
F810
ENDCHAR
STARTCHAR Ograve
ENCODING 210
SWIDTH 833 0
DWIDTH 14 0
BBX 12 16 1 0
BITMAP
1800
1C00
0600
0000
0F00
39C0
70E0
70E0
E070
E070
E070
E070
70E0
70E0
39C0
0F00
ENDCHAR
STARTCHAR Oacute
ENCODING 211
SWIDTH 833 0
DWIDTH 14 0
BBX 12 16 1 0
BITMAP
0180
0380
0600
0000
0F00
39C0
70E0
70E0
E070
E070
E070
E070
70E0
70E0
39C0
0F00
ENDCHAR
STARTCHAR Ocircumflex
ENCODING 212
SWIDTH 833 0
DWIDTH 14 0
BBX 12 16 1 0
BITMAP
0600
0F00
1980
0000
0F00
39C0
70E0
70E0
E070
E070
E070
E070
70E0
70E0
39C0
0F00
ENDCHAR
STARTCHAR Otilde
ENCODING 213
SWIDTH 833 0
DWIDTH 14 0
BBX 12 15 1 0
BITMAP
0E80
1700
0000
0F00
39C0
70E0
70E0
E070
E070
E070
E070
70E0
70E0
39C0
0F00
ENDCHAR
STARTCHAR Odieresis
ENCODING 214
SWIDTH 833 0
DWIDTH 14 0
BBX 12 15 1 0
BITMAP
1980
1980
0000
0F00
39C0
70E0
70E0
E070
E070
E070
E070
70E0
70E0
39C0
0F00
ENDCHAR
STARTCHAR multiply
ENCODING 215
SWIDTH 606 0
DWIDTH 10 0
BBX 8 8 1 0
BITMAP
42
E7
7E
38
1C
7E
E7
42
ENDCHAR
STARTCHAR Oslash
ENCODING 216
SWIDTH 833 0
DWIDTH 14 0
BBX 12 14 1 -1
BITMAP
0010
0F20
39C0
70E0
70E0
E170
E270
E470
E870
70E0
70E0
39C0
4F00
8000
ENDCHAR
STARTCHAR Ugrave
ENCODING 217
SWIDTH 833 0
DWIDTH 14 0
BBX 14 16 0 0
BITMAP
0600
0700
0180
0000
FE7C
3810
3810
3810
3810
3810
3810
3810
3810
1C20
1E60
0780
ENDCHAR
STARTCHAR Uacute
ENCODING 218
SWIDTH 833 0
DWIDTH 14 0
BBX 14 16 0 0
BITMAP
0060
00E0
0180
0000
FE7C
3810
3810
3810
3810
3810
3810
3810
3810
1C20
1E60
0780
ENDCHAR
STARTCHAR Ucircumflex
ENCODING 219
SWIDTH 833 0
DWIDTH 14 0
BBX 14 16 0 0
BITMAP
0180
03C0
0660
0000
FE7C
3810
3810
3810
3810
3810
3810
3810
3810
1C20
1E60
0780
ENDCHAR
STARTCHAR Udieresis
ENCODING 220
SWIDTH 833 0
DWIDTH 14 0
BBX 14 15 0 0
BITMAP
0660
0660
0000
FE7C
3810
3810
3810
3810
3810
3810
3810
3810
1C20
1E60
0780
ENDCHAR
STARTCHAR Yacute
ENCODING 221
SWIDTH 722 0
DWIDTH 12 0
BBX 13 16 -1 0
BITMAP
00C0
01C0
0300
0000
FEF8
3860
1C40
1C80
0E80
0F00
0700
0700
0700
0700
0700
1FC0
ENDCHAR
STARTCHAR Thorn
ENCODING 222
SWIDTH 759 0
DWIDTH 13 0
BBX 12 12 0 0
BITMAP
FE00
3800
3FC0
38E0
3870
3870
3870
38E0
3FC0
3800
3800
FE00
ENDCHAR
STARTCHAR germandbls
ENCODING 223
SWIDTH 611 0
DWIDTH 10 0
BBX 10 12 0 0
BITMAP
1F00
3380
7380
7380
7300
7700
7180
71C0
71C0
71C0
7B80
F700
ENDCHAR
STARTCHAR agrave
ENCODING 224
SWIDTH 611 0
DWIDTH 10 0
BBX 9 12 0 0
BITMAP
6000
7000
1800
0000
7E00
E700
C700
1F00
6700
E700
EF00
7780
ENDCHAR
STARTCHAR aacute
ENCODING 225
SWIDTH 611 0
DWIDTH 10 0
BBX 9 12 0 0
BITMAP
0600
0E00
1800
0000
7E00
E700
C700
1F00
6700
E700
EF00
7780
ENDCHAR
STARTCHAR acircumflex
ENCODING 226
SWIDTH 611 0
DWIDTH 10 0
BBX 9 12 0 0
BITMAP
1000
3800
6C00
0000
7E00
E700
C700
1F00
6700
E700
EF00
7780
ENDCHAR
STARTCHAR atilde
ENCODING 227
SWIDTH 611 0
DWIDTH 10 0
BBX 9 11 0 0
BITMAP
3A00
5C00
0000
7E00
E700
C700
1F00
6700
E700
EF00
7780
ENDCHAR
STARTCHAR adieresis
ENCODING 228
SWIDTH 611 0
DWIDTH 10 0
BBX 9 11 0 0
BITMAP
6C00
6C00
0000
7E00
E700
C700
1F00
6700
E700
EF00
7780
ENDCHAR
STARTCHAR aring
ENCODING 229
SWIDTH 611 0
DWIDTH 10 0
BBX 9 12 0 0
BITMAP
1800
2C00
1800
0000
7E00
E700
C700
1F00
6700
E700
EF00
7780
ENDCHAR
STARTCHAR ae
ENCODING 230
SWIDTH 870 0
DWIDTH 15 0
BBX 13 8 0 0
BITMAP
7DE0
E730
C738
3FF8
6700
E718
EF30
7BE0
ENDCHAR
STARTCHAR ccedilla
ENCODING 231
SWIDTH 556 0
DWIDTH 9 0
BBX 8 11 0 -3
BITMAP
3E
73
E7
E3
E0
E3
76
3C
18
0C
38
ENDCHAR
STARTCHAR egrave
ENCODING 232
SWIDTH 574 0
DWIDTH 10 0
BBX 9 12 0 0
BITMAP
3000
3800
0C00
0000
3E00
7700
E380
FF80
E000
E180
7300
3E00
ENDCHAR
STARTCHAR eacute
ENCODING 233
SWIDTH 574 0
DWIDTH 10 0
BBX 9 12 0 0
BITMAP
0600
0E00
1800
0000
3E00
7700
E380
FF80
E000
E180
7300
3E00
ENDCHAR
STARTCHAR ecircumflex
ENCODING 234
SWIDTH 574 0
DWIDTH 10 0
BBX 9 12 0 0
BITMAP
0800
1C00
3600
0000
3E00
7700
E380
FF80
E000
E180
7300
3E00
ENDCHAR
STARTCHAR edieresis
ENCODING 235
SWIDTH 574 0
DWIDTH 10 0
BBX 9 11 0 0
BITMAP
3600
3600
0000
3E00
7700
E380
FF80
E000
E180
7300
3E00
ENDCHAR
STARTCHAR igrave
ENCODING 236
SWIDTH 370 0
DWIDTH 6 0
BBX 5 12 0 0
BITMAP
C0
E0
30
00
F0
70
70
70
70
70
70
F8
ENDCHAR
STARTCHAR iacute
ENCODING 237
SWIDTH 370 0
DWIDTH 6 0
BBX 5 12 0 0
BITMAP
18
38
60
00
F0
70
70
70
70
70
70
F8
ENDCHAR
STARTCHAR icircumflex
ENCODING 238
SWIDTH 370 0
DWIDTH 6 0
BBX 5 12 0 0
BITMAP
20
70
D8
00
F0
70
70
70
70
70
70
F8
ENDCHAR
STARTCHAR idieresis
ENCODING 239
SWIDTH 370 0
DWIDTH 6 0
BBX 5 11 0 0
BITMAP
D8
D8
00
F0
70
70
70
70
70
70
F8
ENDCHAR
STARTCHAR eth
ENCODING 240
SWIDTH 611 0
DWIDTH 11 0
BBX 9 13 0 0
BITMAP
6000
3B00
1C00
3600
0700
1F00
7780
E380
E380
E380
E380
7700
1C00
ENDCHAR
STARTCHAR ntilde
ENCODING 241
SWIDTH 685 0
DWIDTH 11 0
BBX 11 11 -1 0
BITMAP
0E80
1700
0000
F780
79C0
71C0
71C0
71C0
71C0
71C0
FBE0
ENDCHAR
STARTCHAR ograve
ENCODING 242
SWIDTH 611 0
DWIDTH 11 0
BBX 10 12 0 0
BITMAP
1800
1C00
0600
0000
3F00
7380
E1C0
E1C0
E1C0
E1C0
7380
3F00
ENDCHAR
STARTCHAR oacute
ENCODING 243
SWIDTH 611 0
DWIDTH 11 0
BBX 10 12 0 0
BITMAP
0300
0700
0C00
0000
3F00
7380
E1C0
E1C0
E1C0
E1C0
7380
3F00
ENDCHAR
STARTCHAR ocircumflex
ENCODING 244
SWIDTH 611 0
DWIDTH 11 0
BBX 10 12 0 0
BITMAP
0C00
1E00
3300
0000
3F00
7380
E1C0
E1C0
E1C0
E1C0
7380
3F00
ENDCHAR
STARTCHAR otilde
ENCODING 245
SWIDTH 611 0
DWIDTH 11 0
BBX 10 11 0 0
BITMAP
1D00
2E00
0000
3F00
7380
E1C0
E1C0
E1C0
E1C0
7380
3F00
ENDCHAR
STARTCHAR odieresis
ENCODING 246
SWIDTH 611 0
DWIDTH 11 0
BBX 10 11 0 0
BITMAP
3600
3600
0000
3F00
7380
E1C0
E1C0
E1C0
E1C0
7380
3F00
ENDCHAR
STARTCHAR divide
ENCODING 247
SWIDTH 606 0
DWIDTH 10 0
BBX 8 8 1 0
BITMAP
18
18
00
FF
FF
00
18
18
ENDCHAR
STARTCHAR oslash
ENCODING 248
SWIDTH 611 0
DWIDTH 10 0
BBX 9 12 0 -2
BITMAP
0080
0100
1E00
7300
E780
EB80
EB80
F380
6700
3C00
4000
8000
ENDCHAR
STARTCHAR ugrave
ENCODING 249
SWIDTH 685 0
DWIDTH 11 0
BBX 11 12 -1 0
BITMAP
1800
1C00
0600
0000
F3C0
71C0
71C0
71C0
71C0
71C0
7BC0
3EE0
ENDCHAR
STARTCHAR uacute
ENCODING 250
SWIDTH 685 0
DWIDTH 11 0
BBX 11 12 -1 0
BITMAP
0300
0700
0C00
0000
F3C0
71C0
71C0
71C0
71C0
71C0
7BC0
3EE0
ENDCHAR
STARTCHAR ucircumflex
ENCODING 251
SWIDTH 685 0
DWIDTH 11 0
BBX 11 12 -1 0
BITMAP
0400
0E00
1B00
0000
F3C0
71C0
71C0
71C0
71C0
71C0
7BC0
3EE0
ENDCHAR
STARTCHAR udieresis
ENCODING 252
SWIDTH 685 0
DWIDTH 11 0
BBX 11 11 -1 0
BITMAP
1B00
1B00
0000
F3C0
71C0
71C0
71C0
71C0
71C0
7BC0
3EE0
ENDCHAR
STARTCHAR yacute
ENCODING 253
SWIDTH 611 0
DWIDTH 10 0
BBX 11 15 -1 -3
BITMAP
0300
0700
0C00
0000
FBE0
70C0
3880
1980
1D00
0F00
0E00
0600
3400
7400
3800
ENDCHAR
STARTCHAR thorn
ENCODING 254
SWIDTH 667 0
DWIDTH 11 0
BBX 10 15 -1 -3
BITMAP
F000
7000
7000
7000
7700
7B80
71C0
71C0
71C0
71C0
7B80
7700
7000
7000
FC00
ENDCHAR
STARTCHAR ydieresis
ENCODING 255
SWIDTH 611 0
DWIDTH 10 0
BBX 11 14 -1 -3
BITMAP
1B00
1B00
0000
FBE0
30C0
3880
1980
1D00
0F00
0E00
0600
3400
7400
3800
ENDCHAR
STARTCHAR Amacron
ENCODING 256
SWIDTH 759 0
DWIDTH 13 0
BBX 13 14 0 0
BITMAP
0F80
0000
0600
0700
0700
0F00
0B80
1B80
11C0
3FC0
31C0
20E0
60E0
F1F8
ENDCHAR
STARTCHAR amacron
ENCODING 257
SWIDTH 611 0
DWIDTH 10 0
BBX 9 10 0 0
BITMAP
3E00
0000
7E00
E700
C700
1F00
6700
E700
EF00
7780
ENDCHAR
STARTCHAR Abreve
ENCODING 258
SWIDTH 759 0
DWIDTH 13 0
BBX 13 16 0 0
BITMAP
0880
0880
0700
0000
0600
0700
0700
0F00
0B80
1B80
11C0
3FC0
31C0
20E0
60E0
F1F8
ENDCHAR
STARTCHAR abreve
ENCODING 259
SWIDTH 611 0
DWIDTH 10 0
BBX 9 12 0 0
BITMAP
2200
2200
1C00
0000
7E00
E700
C700
1F00
6700
E700
EF00
7780
ENDCHAR
STARTCHAR Aogonek
ENCODING 260
SWIDTH 759 0
DWIDTH 13 0
BBX 13 15 0 -3
BITMAP
0600
0700
0700
0F00
0B80
1B80
11C0
3FC0
31C0
20E0
60E0
F1F8
0200
0400
0700
ENDCHAR
STARTCHAR aogonek
ENCODING 261
SWIDTH 611 0
DWIDTH 10 0
BBX 9 11 0 -3
BITMAP
7E00
E700
C700
1F00
6700
E700
EF00
7780
0800
1000
1C00
ENDCHAR
STARTCHAR Cacute
ENCODING 262
SWIDTH 778 0
DWIDTH 13 0
BBX 11 16 1 0
BITMAP
0180
0380
0600
0000
0FA0
38E0
7060
7020
E020
E000
E000
E020
7020
7040
38C0
0F00
ENDCHAR
STARTCHAR cacute
ENCODING 263
SWIDTH 556 0
DWIDTH 9 0
BBX 8 12 0 0
BITMAP
06
0E
18
00
3E
73
E7
E0
E0
E3
76
3C
ENDCHAR
STARTCHAR Ccircumflex
ENCODING 264
SWIDTH 778 0
DWIDTH 13 0
BBX 11 16 1 0
BITMAP
0400
0E00
1B00
0000
0FA0
38E0
7060
7020
E020
E000
E000
E020
7020
7040
38C0
0F00
ENDCHAR
STARTCHAR ccircumflex
ENCODING 265
SWIDTH 556 0
DWIDTH 9 0
BBX 8 12 0 0
BITMAP
08
1C
36
00
3E
73
E7
E0
E0
E3
76
3C
ENDCHAR
STARTCHAR Cdotaccent
ENCODING 266
SWIDTH 778 0
DWIDTH 13 0
BBX 11 15 1 0
BITMAP
0600
0600
0000
0FA0
38E0
7060
7020
E020
E000
E000
E020
7020
7040
38C0
0F00
ENDCHAR
STARTCHAR cdotaccent
ENCODING 267
SWIDTH 556 0
DWIDTH 9 0
BBX 8 11 0 0
BITMAP
18
18
00
3E
73
E7
E0
E0
E3
76
3C
ENDCHAR
STARTCHAR Ccaron
ENCODING 268
SWIDTH 778 0
DWIDTH 13 0
BBX 11 16 1 0
BITMAP
1B00
0E00
0400
0000
0FA0
38E0
7060
7020
E020
E000
E000
E020
7020
7040
38C0
0F00
ENDCHAR
STARTCHAR ccaron
ENCODING 269
SWIDTH 556 0
DWIDTH 9 0
BBX 8 12 0 0
BITMAP
36
1C
08
00
3E
73
E7
E0
E0
E3
76
3C
ENDCHAR
STARTCHAR Dcaron
ENCODING 270
SWIDTH 833 0
DWIDTH 14 0
BBX 13 16 0 0
BITMAP
0D80
0700
0200
0000
FF80
38E0
3870
3870
3838
3838
3838
3838
3870
3870
38E0
FF80
ENDCHAR
STARTCHAR dcaron
ENCODING 271
SWIDTH 875 0
DWIDTH 14 0
BBX 14 12 0 0
BITMAP
0798
03BC
039C
0388
3B98
77A0
E380
E380
E380
E380
7780
3AE0
ENDCHAR
STARTCHAR Dcroat
ENCODING 272
SWIDTH 833 0
DWIDTH 14 0
BBX 13 12 0 0
BITMAP
FF80
38E0
3870
3870
3838
7E38
3838
3838
3870
3870
38E0
FF80
ENDCHAR
STARTCHAR dcroat
ENCODING 273
SWIDTH 667 0
DWIDTH 11 0
BBX 12 12 0 0
BITMAP
0780
0380
07F0
07F0
3B80
7780
E380
E380
E380
E380
7780
3AE0
ENDCHAR
STARTCHAR Emacron
ENCODING 274
SWIDTH 759 0
DWIDTH 12 0
BBX 11 14 0 0
BITMAP
1F00
0000
FFE0
3860
3860
3920
3B00
3F00
3B00
3920
3820
3860
3860
FFE0
ENDCHAR
STARTCHAR emacron
ENCODING 275
SWIDTH 574 0
DWIDTH 10 0
BBX 9 10 0 0
BITMAP
3E00
0000
3E00
7700
E380
FF80
E000
E180
7300
3E00
ENDCHAR
STARTCHAR Ebreve
ENCODING 276
SWIDTH 759 0
DWIDTH 12 0
BBX 11 16 0 0
BITMAP
1100
1100
0E00
0000
FFE0
3860
3860
3920
3B00
3F00
3B00
3920
3820
3860
3860
FFE0
ENDCHAR
STARTCHAR ebreve
ENCODING 277
SWIDTH 574 0
DWIDTH 10 0
BBX 9 12 0 0
BITMAP
2200
2200
1C00
0000
3E00
7700
E380
FF80
E000
E180
7300
3E00
ENDCHAR
STARTCHAR Edotaccent
ENCODING 278
SWIDTH 759 0
DWIDTH 12 0
BBX 11 15 0 0
BITMAP
0600
0600
0000
FFE0
3860
3860
3920
3B00
3F00
3B00
3920
3820
3860
3860
FFE0
ENDCHAR
STARTCHAR edotaccent
ENCODING 279
SWIDTH 574 0
DWIDTH 10 0
BBX 9 11 0 0
BITMAP
0C00
0C00
0000
3E00
7700
E380
FF80
E000
E180
7300
3E00
ENDCHAR
STARTCHAR Eogonek
ENCODING 280
SWIDTH 759 0
DWIDTH 12 0
BBX 11 15 0 -3
BITMAP
FFE0
3860
3860
3920
3B00
3F00
3B00
3920
3820
3860
3860
FFE0
0400
0800
0E00
ENDCHAR
STARTCHAR eogonek
ENCODING 281
SWIDTH 574 0
DWIDTH 10 0
BBX 9 11 0 -3
BITMAP
3E00
7700
E380
FF80
E000
E180
7300
3E00
0800
1000
1C00
ENDCHAR
STARTCHAR Ecaron
ENCODING 282
SWIDTH 759 0
DWIDTH 12 0
BBX 11 16 0 0
BITMAP
1B00
0E00
0400
0000
FFE0
3860
3860
3920
3B00
3F00
3B00
3920
3820
3860
3860
FFE0
ENDCHAR
STARTCHAR ecaron
ENCODING 283
SWIDTH 574 0
DWIDTH 10 0
BBX 9 12 0 0
BITMAP
3600
1C00
0800
0000
3E00
7700
E380
FF80
E000
E180
7300
3E00
ENDCHAR
STARTCHAR Gcircumflex
ENCODING 284
SWIDTH 833 0
DWIDTH 14 0
BBX 13 16 1 0
BITMAP
0200
0700
0D80
0000
0FA0
38E0
7060
7020
E020
E000
E3F8
E0E0
70E0
70E0
39E0
0F20
ENDCHAR
STARTCHAR gcircumflex
ENCODING 285
SWIDTH 611 0
DWIDTH 10 0
BBX 9 16 0 -3
BITMAP
0800
1C00
3600
0000
0180
3F80
7700
E380
E380
F700
7C00
6000
7F00
FF80
C380
FF00
ENDCHAR
STARTCHAR Gbreve
ENCODING 286
SWIDTH 833 0
DWIDTH 14 0
BBX 13 16 1 0
BITMAP
0880
0880
0700
0000
0FA0
38E0
7060
7020
E020
E000
E3F8
E0E0
70E0
70E0
39E0
0F20
ENDCHAR
STARTCHAR gbreve
ENCODING 287
SWIDTH 611 0
DWIDTH 10 0
BBX 9 16 0 -3
BITMAP
2200
2200
1C00
0000
0180
3F80
7700
E380
E380
F700
7C00
6000
7F00
FF80
C380
FF00
ENDCHAR
STARTCHAR Gdotaccent
ENCODING 288
SWIDTH 833 0
DWIDTH 14 0
BBX 13 15 1 0
BITMAP
0600
0600
0000
0FA0
38E0
7060
7020
E020
E000
E3F8
E0E0
70E0
70E0
39E0
0F20
ENDCHAR
STARTCHAR gdotaccent
ENCODING 289
SWIDTH 611 0
DWIDTH 10 0
BBX 9 15 0 -3
BITMAP
0C00
0C00
0000
0180
3F80
7700
E380
E380
F700
7C00
6000
7F00
FF80
C380
FF00
ENDCHAR
STARTCHAR Gcommaaccent
ENCODING 290
SWIDTH 833 0
DWIDTH 14 0
BBX 13 19 1 -7
BITMAP
0FA0
38E0
7060
7020
E020
E000
E3F8
E0E0
70E0
70E0
39E0
0F20
0000
0600
0F00
0700
0200
0600
0800
ENDCHAR
STARTCHAR gcommaaccent
ENCODING 291
SWIDTH 611 0
DWIDTH 10 0
BBX 9 19 0 -3
BITMAP
0200
0C00
0800
1C00
1E00
0C00
0000
0180
3F80
7700
E380
E380
F700
7C00
6000
7F00
FF80
C380
FF00
ENDCHAR
STARTCHAR Hcircumflex
ENCODING 292
SWIDTH 870 0
DWIDTH 15 0
BBX 14 16 0 0
BITMAP
0200
0700
0D80
0000
FEFC
3870
3870
3870
3870
3FF0
3870
3870
3870
3870
3870
FEFC
ENDCHAR
STARTCHAR hcircumflex
ENCODING 293
SWIDTH 685 0
DWIDTH 11 0
BBX 11 16 -1 0
BITMAP
1000
3800
6C00
0000
F000
7000
7000
7000
7780
79C0
79C0
71C0
71C0
71C0
71C0
FBE0
ENDCHAR
STARTCHAR Hbar
ENCODING 294
SWIDTH 870 0
DWIDTH 15 0
BBX 14 12 0 0
BITMAP
FEFC
3870
3870
FFFC
FFFC
3FF0
3870
3870
3870
3870
3870
FEFC
ENDCHAR
STARTCHAR hbar
ENCODING 295
SWIDTH 685 0
DWIDTH 11 0
BBX 11 12 -1 0
BITMAP
F000
7000
FE00
FE00
7780
79C0
79C0
71C0
71C0
71C0
71C0
FBE0
ENDCHAR
STARTCHAR Itilde
ENCODING 296
SWIDTH 444 0
DWIDTH 7 0
BBX 7 15 0 0
BITMAP
3A
5C
00
FE
38
38
38
38
38
38
38
38
38
38
FE
ENDCHAR
STARTCHAR itilde
ENCODING 297
SWIDTH 370 0
DWIDTH 6 0
BBX 6 11 0 0
BITMAP
74
B8
00
F0
30
30
30
30
30
30
FC
ENDCHAR
STARTCHAR Imacron
ENCODING 298
SWIDTH 444 0
DWIDTH 7 0
BBX 7 14 0 0
BITMAP
7C
00
FE
38
38
38
38
38
38
38
38
38
38
FE
ENDCHAR
STARTCHAR imacron
ENCODING 299
SWIDTH 370 0
DWIDTH 6 0
BBX 6 10 0 0
BITMAP
F8
00
F0
30
30
30
30
30
30
FC
ENDCHAR
STARTCHAR Ibreve
ENCODING 300
SWIDTH 444 0
DWIDTH 7 0
BBX 7 16 0 0
BITMAP
44
44
38
00
FE
38
38
38
38
38
38
38
38
38
38
FE
ENDCHAR
STARTCHAR ibreve
ENCODING 301
SWIDTH 370 0
DWIDTH 6 0
BBX 6 12 0 0
BITMAP
88
88
70
00
F0
30
30
30
30
30
30
FC
ENDCHAR
STARTCHAR Iogonek
ENCODING 302
SWIDTH 444 0
DWIDTH 7 0
BBX 7 15 0 -3
BITMAP
FE
38
38
38
38
38
38
38
38
38
38
FE
10
20
38
ENDCHAR
STARTCHAR iogonek
ENCODING 303
SWIDTH 370 0
DWIDTH 6 0
BBX 5 15 0 -3
BITMAP
60
F0
60
00
F0
70
70
70
70
70
70
F8
20
40
70
ENDCHAR
STARTCHAR Idotaccent
ENCODING 304
SWIDTH 444 0
DWIDTH 7 0
BBX 7 15 0 0
BITMAP
18
18
00
FE
38
38
38
38
38
38
38
38
38
38
FE
ENDCHAR
STARTCHAR dotlessi
ENCODING 305
SWIDTH 370 0
DWIDTH 6 0
BBX 6 8 0 0
BITMAP
F0
30
30
30
30
30
30
FC
ENDCHAR
STARTCHAR IJ
ENCODING 306
SWIDTH 1070 0
DWIDTH 18 0
BBX 17 12 0 0
BITMAP
FE3F80
380E00
380E00
380E00
380E00
380E00
38CE00
39EE00
39CE00
390E00
399C00
FEF800
ENDCHAR
STARTCHAR ij
ENCODING 307
SWIDTH 704 0
DWIDTH 12 0
BBX 10 15 0 -3
BITMAP
6180
F3C0
6180
0000
F7C0
71C0
71C0
71C0
71C0
71C0
71C0
F9C0
0DC0
0D80
0700
ENDCHAR
STARTCHAR Jcircumflex
ENCODING 308
SWIDTH 648 0
DWIDTH 11 0
BBX 10 16 0 0
BITMAP
0200
0700
0D80
0000
1FC0
0700
0700
0700
0700
0700
6700
F700
E700
8700
CE00
7C00
ENDCHAR
STARTCHAR jcircumflex
ENCODING 309
SWIDTH 352 0
DWIDTH 6 0
BBX 6 15 -2 -3
BITMAP
10
38
6C
00
7C
1C
1C
1C
1C
1C
1C
1C
DC
D8
70
ENDCHAR
STARTCHAR Kcommaaccent
ENCODING 310
SWIDTH 815 0
DWIDTH 13 0
BBX 14 19 0 -7
BITMAP
FEF8
3860
38C0
3980
3B00
3F80
3F80
3BC0
39E0
38F0
3878
FEFC
0000
0300
0780
0380
0100
0300
0400
ENDCHAR
STARTCHAR kcommaaccent
ENCODING 311
SWIDTH 667 0
DWIDTH 11 0
BBX 11 19 0 -7
BITMAP
F000
7000
7000
7000
77C0
7380
7700
7E00
7F00
7380
71C0
FBE0
0000
0C00
1E00
0E00
0400
0C00
1000
ENDCHAR
STARTCHAR kgreenlandic
ENCODING 312
SWIDTH 667 0
DWIDTH 11 0
BBX 11 8 0 0
BITMAP
77C0
7380
7700
7E00
7F00
7380
71C0
FBE0
ENDCHAR
STARTCHAR Lacute
ENCODING 313
SWIDTH 722 0
DWIDTH 12 0
BBX 11 16 0 0
BITMAP
0600
0E00
1800
0000
FE00
3800
3800
3800
3800
3800
3800
3820
3820
3860
3860
FFE0
ENDCHAR
STARTCHAR lacute
ENCODING 314
SWIDTH 352 0
DWIDTH 6 0
BBX 5 16 0 0
BITMAP
18
38
60
00
F0
70
70
70
70
70
70
70
70
70
70
F8
ENDCHAR
STARTCHAR Lcommaaccent
ENCODING 315
SWIDTH 722 0
DWIDTH 12 0
BBX 11 19 0 -7
BITMAP
FE00
3800
3800
3800
3800
3800
3800
3820
3820
3860
3860
FFE0
0000
0600
0F00
0700
0200
0600
0800
ENDCHAR
STARTCHAR lcommaaccent
ENCODING 316
SWIDTH 352 0
DWIDTH 6 0
BBX 5 19 0 -7
BITMAP
F0
70
70
70
70
70
70
70
70
70
70
F8
00
30
78
38
10
30
40
ENDCHAR
STARTCHAR Lcaron
ENCODING 317
SWIDTH 927 0
DWIDTH 15 0
BBX 15 12 0 0
BITMAP
FE0C
381E
380E
3804
380C
3810
3800
3820
3820
3860
3860
FFE0
ENDCHAR
STARTCHAR lcaron
ENCODING 318
SWIDTH 575 0
DWIDTH 10 0
BBX 10 12 0 0
BITMAP
F180
73C0
71C0
7080
7180
7200
7000
7000
7000
7000
7000
F800
ENDCHAR
STARTCHAR Ldot
ENCODING 319
SWIDTH 964 0
DWIDTH 16 0
BBX 15 12 0 0
BITMAP
FE00
3800
3800
3800
3800
3800
380C
383E
382C
3860
3860
FFE0
ENDCHAR
STARTCHAR ldot
ENCODING 320
SWIDTH 612 0
DWIDTH 11 0
BBX 10 12 0 0
BITMAP
F000
7000
7000
7000
7000
7000
7180
73C0
7180
7000
7000
F800
ENDCHAR
STARTCHAR Lslash
ENCODING 321
SWIDTH 722 0
DWIDTH 12 0
BBX 11 12 0 0
BITMAP
FE00
3800
3800
3A00
3C00
3800
3800
7820
B820
3860
38E0
FFE0
ENDCHAR
STARTCHAR lslash
ENCODING 322
SWIDTH 352 0
DWIDTH 6 0
BBX 6 12 0 0
BITMAP
F0
30
30
34
38
30
70
B0
30
30
30
FC
ENDCHAR
STARTCHAR Nacute
ENCODING 323
SWIDTH 833 0
DWIDTH 14 0
BBX 14 16 0 0
BITMAP
0180
0380
0600
0000
F07C
3810
3C10
3E10
2F10
2790
23D0
21F0
20F0
2070
2030
F810
ENDCHAR
STARTCHAR nacute
ENCODING 324
SWIDTH 685 0
DWIDTH 11 0
BBX 11 12 -1 0
BITMAP
0300
0700
0C00
0000
F780
79C0
71C0
71C0
71C0
71C0
71C0
FBE0
ENDCHAR
STARTCHAR Ncommaaccent
ENCODING 325
SWIDTH 833 0
DWIDTH 14 0
BBX 14 19 0 -7
BITMAP
F07C
3810
3C10
3E10
2F10
2790
23D0
21F0
20F0
2070
2030
F810
0000
0300
0780
0380
0100
0300
0400
ENDCHAR
STARTCHAR ncommaaccent
ENCODING 326
SWIDTH 685 0
DWIDTH 11 0
BBX 11 15 -1 -7
BITMAP
F780
79C0
71C0
71C0
71C0
71C0
71C0
FBE0
0000
0600
0F00
0700
0200
0600
0800
ENDCHAR
STARTCHAR Ncaron
ENCODING 327
SWIDTH 833 0
DWIDTH 14 0
BBX 14 16 0 0
BITMAP
0D80
0700
0200
0000
F07C
3810
3C10
3E10
2F10
2790
23D0
21F0
20F0
2070
2030
F810
ENDCHAR
STARTCHAR ncaron
ENCODING 328
SWIDTH 685 0
DWIDTH 11 0
BBX 11 12 -1 0
BITMAP
1B00
0E00
0400
0000
F780
79C0
71C0
71C0
71C0
71C0
71C0
FBE0
ENDCHAR
STARTCHAR napostrophe
ENCODING 329
SWIDTH 914 0
DWIDTH 15 0
BBX 14 12 0 0
BITMAP
6000
F000
7000
2000
7EF0
8F38
0E38
0E38
0E38
0E38
0E38
1F7C
ENDCHAR
STARTCHAR Eng
ENCODING 330
SWIDTH 833 0
DWIDTH 14 0
BBX 14 15 0 -3
BITMAP
F07C
3810
3C10
3E10
2F10
2790
23D0
21F0
20F0
2070
2070
F870
0370
0360
01C0
ENDCHAR
STARTCHAR eng
ENCODING 331
SWIDTH 685 0
DWIDTH 11 0
BBX 10 11 -1 -3
BITMAP
F780
79C0
71C0
71C0
71C0
71C0
71C0
F9C0
0DC0
0D80
0700
ENDCHAR
STARTCHAR Omacron
ENCODING 332
SWIDTH 833 0
DWIDTH 14 0
BBX 12 14 1 0
BITMAP
0F80
0000
0F00
39C0
70E0
70E0
E070
E070
E070
E070
70E0
70E0
39C0
0F00
ENDCHAR
STARTCHAR omacron
ENCODING 333
SWIDTH 611 0
DWIDTH 11 0
BBX 10 10 0 0
BITMAP
1F00
0000
1E00
7380
E1C0
E1C0
E1C0
E1C0
7380
1E00
ENDCHAR
STARTCHAR Obreve
ENCODING 334
SWIDTH 833 0
DWIDTH 14 0
BBX 12 16 1 0
BITMAP
0880
0880
0700
0000
0F00
39C0
70E0
70E0
E070
E070
E070
E070
70E0
70E0
39C0
0F00
ENDCHAR
STARTCHAR obreve
ENCODING 335
SWIDTH 611 0
DWIDTH 11 0
BBX 10 12 0 0
BITMAP
1100
1100
0E00
0000
1E00
7380
E1C0
E1C0
E1C0
E1C0
7380
1E00
ENDCHAR
STARTCHAR Ohungarumlaut
ENCODING 336
SWIDTH 833 0
DWIDTH 14 0
BBX 12 16 1 0
BITMAP
0D80
0D80
1B00
0000
0F00
39C0
70E0
70E0
E070
E070
E070
E070
70E0
70E0
39C0
0F00
ENDCHAR
STARTCHAR ohungarumlaut
ENCODING 337
SWIDTH 611 0
DWIDTH 11 0
BBX 10 12 0 0
BITMAP
1B00
1B00
3600
0000
1E00
7380
E1C0
E1C0
E1C0
E1C0
7380
1E00
ENDCHAR
STARTCHAR OE
ENCODING 338
SWIDTH 1000 0
DWIDTH 17 0
BBX 16 12 0 0
BITMAP
0FFF
39C7
71C3
71C9
E1D8
E1F8
E1D8
E1C9
71C1
71C3
39C7
0FFF
ENDCHAR
STARTCHAR oe
ENCODING 339
SWIDTH 907 0
DWIDTH 15 0
BBX 15 8 0 0
BITMAP
1EF8
73CC
618E
E1FE
E180
6186
73CC
1EF8
ENDCHAR
STARTCHAR Racute
ENCODING 340
SWIDTH 815 0
DWIDTH 14 0
BBX 13 16 0 0
BITMAP
0180
0380
0600
0000
FFC0
38E0
3870
3870
38E0
3FC0
3980
39C0
38E0
38E8
38F8
FC70
ENDCHAR
STARTCHAR racute
ENCODING 341
SWIDTH 519 0
DWIDTH 9 0
BBX 9 12 0 0
BITMAP
0600
0E00
1800
0000
F700
7B80
7300
7000
7000
7000
7000
F800
ENDCHAR
STARTCHAR Rcommaaccent
ENCODING 342
SWIDTH 815 0
DWIDTH 14 0
BBX 13 19 0 -7
BITMAP
FFC0
38E0
3870
3870
38E0
3FC0
3980
39C0
38E0
38E8
38F8
FC70
0000
0300
0780
0380
0100
0300
0400
ENDCHAR
STARTCHAR rcommaaccent
ENCODING 343
SWIDTH 519 0
DWIDTH 9 0
BBX 9 15 0 -7
BITMAP
F700
7B80
7300
7000
7000
7000
7000
F800
0000
3000
7800
3800
1000
3000
4000
ENDCHAR
STARTCHAR Rcaron
ENCODING 344
SWIDTH 815 0
DWIDTH 14 0
BBX 13 16 0 0
BITMAP
0D80
0700
0200
0000
FFC0
38E0
3870
3870
38E0
3FC0
3980
39C0
38E0
38E8
38F8
FC70
ENDCHAR
STARTCHAR rcaron
ENCODING 345
SWIDTH 519 0
DWIDTH 9 0
BBX 9 12 0 0
BITMAP
3600
1C00
0800
0000
F700
7B80
7300
7000
7000
7000
7000
F800
ENDCHAR
STARTCHAR Sacute
ENCODING 346
SWIDTH 667 0
DWIDTH 11 0
BBX 9 16 1 0
BITMAP
0600
0E00
1800
0000
3E80
4380
C180
C080
F880
7E00
3F00
8F80
8180
C180
E100
BE00
ENDCHAR
STARTCHAR sacute
ENCODING 347
SWIDTH 500 0
DWIDTH 8 0
BBX 7 12 0 0
BITMAP
0C
1C
30
00
7A
C6
E2
FC
7E
8E
C6
BC
ENDCHAR
STARTCHAR Scircumflex
ENCODING 348
SWIDTH 667 0
DWIDTH 11 0
BBX 9 16 1 0
BITMAP
0800
1C00
3600
0000
3E80
4380
C180
C080
F880
7E00
3F00
8F80
8180
C180
E100
BE00
ENDCHAR
STARTCHAR scircumflex
ENCODING 349
SWIDTH 500 0
DWIDTH 8 0
BBX 7 12 0 0
BITMAP
10
38
6C
00
7A
C6
E2
FC
7E
8E
C6
BC
ENDCHAR
STARTCHAR Scedilla
ENCODING 350
SWIDTH 667 0
DWIDTH 11 0
BBX 9 15 1 -3
BITMAP
3E80
4380
C180
C080
F880
7E00
3F00
8F80
8180
C180
E100
BE00
1800
0C00
3800
ENDCHAR
STARTCHAR scedilla
ENCODING 351
SWIDTH 500 0
DWIDTH 8 0
BBX 7 11 0 -3
BITMAP
7A
C6
E2
FC
7E
8E
C6
BC
18
0C
38
ENDCHAR
STARTCHAR Scaron
ENCODING 352
SWIDTH 667 0
DWIDTH 11 0
BBX 9 13 1 0
BITMAP
3600
1C00
0800
0000
3E80
4380
C180
F880
3E00
8F80
C180
E100
BE00
ENDCHAR
STARTCHAR scaron
ENCODING 353
SWIDTH 500 0
DWIDTH 8 0
BBX 7 12 0 0
BITMAP
6C
38
10
00
7A
C6
E2
F8
3E
8E
C6
BC
ENDCHAR
STARTCHAR Tcommaaccent
ENCODING 354
SWIDTH 722 0
DWIDTH 12 0
BBX 11 15 0 -3
BITMAP
FFE0
CE60
8E20
8E20
0E00
0E00
0E00
0E00
0E00
0E00
0E00
3F80
0600
0300
0E00
ENDCHAR
STARTCHAR tcommaaccent
ENCODING 355
SWIDTH 426 0
DWIDTH 7 0
BBX 6 14 0 -3
BITMAP
10
10
30
FC
70
70
70
70
74
7C
38
30
18
70
ENDCHAR
STARTCHAR Tcaron
ENCODING 356
SWIDTH 722 0
DWIDTH 12 0
BBX 11 16 0 0
BITMAP
1B00
0E00
0400
0000
FFE0
CE60
8E20
8E20
0E00
0E00
0E00
0E00
0E00
0E00
0E00
3F80
ENDCHAR
STARTCHAR tcaron
ENCODING 357
SWIDTH 646 0
DWIDTH 11 0
BBX 11 12 0 0
BITMAP
00C0
11E0
10E0
3040
FCC0
7100
7000
7000
7000
7400
7C00
3800
ENDCHAR
STARTCHAR Tbar
ENCODING 358
SWIDTH 722 0
DWIDTH 12 0
BBX 11 12 0 0
BITMAP
FFE0
CE60
8E20
8E20
0E00
3F80
3F80
0E00
0E00
0E00
0E00
3F80
ENDCHAR
STARTCHAR tbar
ENCODING 359
SWIDTH 426 0
DWIDTH 7 0
BBX 7 11 0 0
BITMAP
10
10
30
FC
70
70
FE
FE
74
7C
38
ENDCHAR
STARTCHAR Utilde
ENCODING 360
SWIDTH 833 0
DWIDTH 14 0
BBX 14 15 0 0
BITMAP
0740
0B80
0000
FE7C
3810
3810
3810
3810
3810
3810
3810
3810
1C20
1E60
0780
ENDCHAR
STARTCHAR utilde
ENCODING 361
SWIDTH 685 0
DWIDTH 11 0
BBX 11 11 -1 0
BITMAP
0E80
1700
0000
F3C0
71C0
71C0
71C0
71C0
71C0
7BC0
3EE0
ENDCHAR
STARTCHAR Umacron
ENCODING 362
SWIDTH 833 0
DWIDTH 14 0
BBX 14 14 0 0
BITMAP
0F80
0000
FE7C
3810
3810
3810
3810
3810
3810
3810
3810
1C20
1E60
0780
ENDCHAR
STARTCHAR umacron
ENCODING 363
SWIDTH 685 0
DWIDTH 11 0
BBX 11 10 -1 0
BITMAP
1F00
0000
F3C0
71C0
71C0
71C0
71C0
71C0
7BC0
3EE0
ENDCHAR
STARTCHAR Ubreve
ENCODING 364
SWIDTH 833 0
DWIDTH 14 0
BBX 14 16 0 0
BITMAP
0880
0880
0700
0000
FE7C
3810
3810
3810
3810
3810
3810
3810
3810
1C20
1E60
0780
ENDCHAR
STARTCHAR ubreve
ENCODING 365
SWIDTH 685 0
DWIDTH 11 0
BBX 11 12 -1 0
BITMAP
1100
1100
0E00
0000
F3C0
71C0
71C0
71C0
71C0
71C0
7BC0
3EE0
ENDCHAR
STARTCHAR Uring
ENCODING 366
SWIDTH 833 0
DWIDTH 14 0
BBX 14 17 0 0
BITMAP
0600
0900
0900
0600
0000
FE7C
3810
3810
3810
3810
3810
3810
3810
3810
1C20
1E60
0780
ENDCHAR
STARTCHAR uring
ENCODING 367
SWIDTH 685 0
DWIDTH 11 0
BBX 11 13 -1 0
BITMAP
0C00
1200
1200
0C00
0000
F3C0
71C0
71C0
71C0
71C0
71C0
7BC0
3EE0
ENDCHAR
STARTCHAR Uhungarumlaut
ENCODING 368
SWIDTH 833 0
DWIDTH 14 0
BBX 14 16 0 0
BITMAP
06C0
06C0
0D80
0000
FE7C
3810
3810
3810
3810
3810
3810
3810
3810
1C20
1E60
0780
ENDCHAR
STARTCHAR uhungarumlaut
ENCODING 369
SWIDTH 685 0
DWIDTH 11 0
BBX 11 12 -1 0
BITMAP
0D80
0D80
1B00
0000
F3C0
71C0
71C0
71C0
71C0
71C0
7BC0
3EE0
ENDCHAR
STARTCHAR Uogonek
ENCODING 370
SWIDTH 833 0
DWIDTH 14 0
BBX 14 15 0 -3
BITMAP
FE7C
3810
3810
3810
3810
3810
3810
3810
3810
1C20
1E60
0780
0200
0400
0700
ENDCHAR
STARTCHAR uogonek
ENCODING 371
SWIDTH 685 0
DWIDTH 11 0
BBX 11 11 -1 -3
BITMAP
F3C0
71C0
71C0
71C0
71C0
71C0
7BC0
3EE0
0400
0800
0E00
ENDCHAR
STARTCHAR Wcircumflex
ENCODING 372
SWIDTH 981 0
DWIDTH 16 0
BBX 15 16 0 0
BITMAP
0100
0380
06C0
0000
FBDE
718C
3188
39C8
39D8
3BD0
1AD0
1EF0
1CE0
0C60
0C60
0C60
ENDCHAR
STARTCHAR wcircumflex
ENCODING 373
SWIDTH 889 0
DWIDTH 15 0
BBX 15 12 0 0
BITMAP
0100
0380
06C0
0000
FBDE
718C
39C8
3BD8
1EF0
1EF0
0C60
0C60
ENDCHAR
STARTCHAR Ycircumflex
ENCODING 374
SWIDTH 722 0
DWIDTH 12 0
BBX 13 16 -1 0
BITMAP
0200
0700
0D80
0000
FEF8
3860
1C40
1C80
0E80
0F00
0700
0700
0700
0700
0700
1FC0
ENDCHAR
STARTCHAR ycircumflex
ENCODING 375
SWIDTH 611 0
DWIDTH 10 0
BBX 10 15 -1 -3
BITMAP
0800
1C00
3600
0000
FBC0
7180
3980
3900
1F00
0E00
0E00
0600
3400
7400
3800
ENDCHAR
STARTCHAR Ydieresis
ENCODING 376
SWIDTH 722 0
DWIDTH 12 0
BBX 13 12 -1 0
BITMAP
0D80
0D80
0000
FEF8
3860
1C40
1C80
0E80
0700
0700
0700
1FC0
ENDCHAR
STARTCHAR Zacute
ENCODING 377
SWIDTH 667 0
DWIDTH 11 0
BBX 9 16 1 0
BITMAP
0600
0E00
1800
0000
FF80
C380
8700
8700
0E00
1C00
1C00
3880
7080
7180
E380
FF80
ENDCHAR
STARTCHAR zacute
ENCODING 378
SWIDTH 537 0
DWIDTH 9 0
BBX 7 12 0 0
BITMAP
0C
1C
30
00
FE
CC
9C
38
30
72
E6
FE
ENDCHAR
STARTCHAR Zdotaccent
ENCODING 379
SWIDTH 667 0
DWIDTH 11 0
BBX 9 15 1 0
BITMAP
0C00
0C00
0000
FF80
C380
8700
8700
0E00
1C00
1C00
3880
7080
7180
E380
FF80
ENDCHAR
STARTCHAR zdotaccent
ENCODING 380
SWIDTH 537 0
DWIDTH 9 0
BBX 7 11 0 0
BITMAP
30
30
00
FE
CC
9C
38
30
72
E6
FE
ENDCHAR
STARTCHAR Zcaron
ENCODING 381
SWIDTH 667 0
DWIDTH 11 0
BBX 9 13 1 0
BITMAP
3600
1C00
0800
0000
FF80
C380
8700
8E00
1C00
3880
7080
E180
FF80
ENDCHAR
STARTCHAR zcaron
ENCODING 382
SWIDTH 537 0
DWIDTH 9 0
BBX 7 12 1 0
BITMAP
6C
38
10
00
FE
8C
9C
38
30
72
E2
FE
ENDCHAR
STARTCHAR uni0186
ENCODING 390
SWIDTH 778 0
DWIDTH 13 0
BBX 11 12 1 0
BITMAP
1E00
6380
41C0
81C0
80E0
00E0
00E0
80E0
81C0
C1C0
E380
BE00
ENDCHAR
STARTCHAR uni0189
ENCODING 393
SWIDTH 833 0
DWIDTH 14 0
BBX 13 12 0 0
BITMAP
FF80
38E0
3870
3870
3838
7E38
3838
3838
3870
3870
38E0
FF80
ENDCHAR
STARTCHAR uni018E
ENCODING 398
SWIDTH 759 0
DWIDTH 12 0
BBX 11 12 0 0
BITMAP
FFE0
C380
C380
8380
9380
1B80
1F80
1B80
9380
C380
C380
FFE0
ENDCHAR
STARTCHAR florin
ENCODING 402
SWIDTH 574 0
DWIDTH 10 0
BBX 10 15 -1 -3
BITMAP
0380
05C0
0D80
0C00
0C00
3F00
0C00
0C00
0C00
0C00
0C00
0C00
6C00
E800
7000
ENDCHAR
STARTCHAR uni0197
ENCODING 407
SWIDTH 444 0
DWIDTH 7 0
BBX 7 12 0 0
BITMAP
FE
38
38
38
38
FE
FE
38
38
38
38
FE
ENDCHAR
STARTCHAR uni019A
ENCODING 410
SWIDTH 352 0
DWIDTH 6 0
BBX 7 12 -1 0
BITMAP
78
38
38
38
38
FE
FE
38
38
38
38
7C
ENDCHAR
STARTCHAR uni019D
ENCODING 413
SWIDTH 833 0
DWIDTH 14 0
BBX 15 15 -1 -3
BITMAP
783E
1C08
1E08
1F08
1788
13C8
11E8
10F8
1C78
1C38
1C18
1C08
DC00
D800
7000
ENDCHAR
STARTCHAR uni019F
ENCODING 415
SWIDTH 833 0
DWIDTH 14 0
BBX 12 12 1 0
BITMAP
0F00
39C0
70E0
70E0
E070
FFF0
FFF0
E070
70E0
70E0
39C0
0F00
ENDCHAR
STARTCHAR Ohorn
ENCODING 416
SWIDTH 833 0
DWIDTH 14 0
BBX 15 12 1 0
BITMAP
0F0C
39DE
70EE
70E4
E07C
E070
E070
E070
70E0
70E0
39C0
0F00
ENDCHAR
STARTCHAR ohorn
ENCODING 417
SWIDTH 611 0
DWIDTH 11 0
BBX 13 8 0 0
BITMAP
1E30
73F8
E1F8
E1D0
E1F0
E1C0
7380
1E00
ENDCHAR
STARTCHAR uni01A7
ENCODING 423
SWIDTH 667 0
DWIDTH 11 0
BBX 9 12 1 0
BITMAP
BE00
E100
C180
8180
8F80
3F00
7E00
F880
C080
C180
4380
3E80
ENDCHAR
STARTCHAR uni01A8
ENCODING 424
SWIDTH 500 0
DWIDTH 8 0
BBX 7 8 0 0
BITMAP
BC
C6
8E
7E
FC
E2
C6
7A
ENDCHAR
STARTCHAR uni01AE
ENCODING 430
SWIDTH 722 0
DWIDTH 12 0
BBX 11 15 0 -3
BITMAP
FFE0
CE60
8E20
8E20
0E00
0E00
0E00
0E00
0E00
0E00
0E00
0E00
0EC0
06C0
0380
ENDCHAR
STARTCHAR Uhorn
ENCODING 431
SWIDTH 833 0
DWIDTH 14 0
BBX 17 12 0 0
BITMAP
FE7F00
381780
381380
381100
381300
381400
381000
381000
381000
1C2000
1E6000
078000
ENDCHAR
STARTCHAR uhorn
ENCODING 432
SWIDTH 685 0
DWIDTH 11 0
BBX 14 8 -1 0
BITMAP
F3D8
71FC
71DC
71C8
71D8
71E0
7BC0
3EE0
ENDCHAR
STARTCHAR uni01B5
ENCODING 437
SWIDTH 667 0
DWIDTH 11 0
BBX 9 12 1 0
BITMAP
FF80
C380
8700
8700
0E00
7F00
7F00
3880
7080
7180
E380
FF80
ENDCHAR
STARTCHAR uni01B6
ENCODING 438
SWIDTH 537 0
DWIDTH 9 0
BBX 7 8 0 0
BITMAP
FE
CC
9C
FE
FE
72
E6
FE
ENDCHAR
STARTCHAR uni01BB
ENCODING 443
SWIDTH 574 0
DWIDTH 10 0
BBX 8 12 1 0
BITMAP
3C
46
E7
E7
47
FF
FF
18
31
61
FF
FF
ENDCHAR
STARTCHAR uni01BC
ENCODING 444
SWIDTH 574 0
DWIDTH 10 0
BBX 8 12 1 0
BITMAP
7F
7E
40
40
7C
4E
07
47
E7
E7
CE
7C
ENDCHAR
STARTCHAR uni01C0
ENCODING 448
SWIDTH 606 0
DWIDTH 10 0
BBX 2 12 4 0
BITMAP
C0
C0
C0
C0
C0
C0
C0
C0
C0
C0
C0
C0
ENDCHAR
STARTCHAR uni01C2
ENCODING 450
SWIDTH 606 0
DWIDTH 10 0
BBX 8 12 1 -2
BITMAP
18
18
18
FF
FF
18
18
FF
FF
18
18
18
ENDCHAR
STARTCHAR uni01C3
ENCODING 451
SWIDTH 296 0
DWIDTH 5 0
BBX 3 12 1 0
BITMAP
40
E0
E0
E0
E0
40
40
00
40
E0
E0
40
ENDCHAR
STARTCHAR uni01CD
ENCODING 461
SWIDTH 759 0
DWIDTH 13 0
BBX 13 16 0 0
BITMAP
0D80
0700
0200
0000
0600
0700
0700
0F00
0B80
1B80
11C0
3FC0
31C0
20E0
60E0
F1F8
ENDCHAR
STARTCHAR uni01CE
ENCODING 462
SWIDTH 611 0
DWIDTH 10 0
BBX 9 12 0 0
BITMAP
3600
1C00
0800
0000
7E00
E700
C700
1F00
6700
E700
EF00
7780
ENDCHAR
STARTCHAR uni01CF
ENCODING 463
SWIDTH 444 0
DWIDTH 7 0
BBX 7 16 0 0
BITMAP
6C
38
10
00
FE
38
38
38
38
38
38
38
38
38
38
FE
ENDCHAR
STARTCHAR uni01D0
ENCODING 464
SWIDTH 370 0
DWIDTH 6 0
BBX 6 12 0 0
BITMAP
D8
70
20
00
F0
30
30
30
30
30
30
FC
ENDCHAR
STARTCHAR uni01D1
ENCODING 465
SWIDTH 833 0
DWIDTH 14 0
BBX 12 16 1 0
BITMAP
0D80
0700
0200
0000
0F00
39C0
70E0
70E0
E070
E070
E070
E070
70E0
70E0
39C0
0F00
ENDCHAR
STARTCHAR uni01D2
ENCODING 466
SWIDTH 611 0
DWIDTH 11 0
BBX 10 12 0 0
BITMAP
1B00
0E00
0400
0000
1E00
7380
E1C0
E1C0
E1C0
E1C0
7380
1E00
ENDCHAR
STARTCHAR uni01D3
ENCODING 467
SWIDTH 833 0
DWIDTH 14 0
BBX 14 16 0 0
BITMAP
0D80
0700
0200
0000
FE7C
3810
3810
3810
3810
3810
3810
3810
3810
1C20
1E60
0780
ENDCHAR
STARTCHAR uni01D4
ENCODING 468
SWIDTH 685 0
DWIDTH 11 0
BBX 11 12 -1 0
BITMAP
1B00
0E00
0400
0000
F3C0
71C0
71C0
71C0
71C0
71C0
7BC0
3EE0
ENDCHAR
STARTCHAR uni01D5
ENCODING 469
SWIDTH 833 0
DWIDTH 14 0
BBX 14 17 0 0
BITMAP
07C0
0000
0660
0660
0000
FE7C
3810
3810
3810
3810
3810
3810
3810
3810
1C20
1E60
0780
ENDCHAR
STARTCHAR uni01D6
ENCODING 470
SWIDTH 685 0
DWIDTH 11 0
BBX 11 13 -1 0
BITMAP
1F00
0000
1B00
1B00
0000
F3C0
71C0
71C0
71C0
71C0
71C0
7BC0
3EE0
ENDCHAR
STARTCHAR uni01D7
ENCODING 471
SWIDTH 833 0
DWIDTH 14 0
BBX 14 19 0 0
BITMAP
00C0
01C0
0300
0000
0660
0660
0000
FE7C
3810
3810
3810
3810
3810
3810
3810
3810
1C20
1E60
0780
ENDCHAR
STARTCHAR uni01D8
ENCODING 472
SWIDTH 685 0
DWIDTH 11 0
BBX 11 15 -1 0
BITMAP
0300
0700
0C00
0000
1B00
1B00
0000
F3C0
71C0
71C0
71C0
71C0
71C0
7BC0
3EE0
ENDCHAR
STARTCHAR uni01D9
ENCODING 473
SWIDTH 833 0
DWIDTH 14 0
BBX 14 19 0 0
BITMAP
06C0
0380
0100
0000
0660
0660
0000
FE7C
3810
3810
3810
3810
3810
3810
3810
3810
1C20
1E60
0780
ENDCHAR
STARTCHAR uni01DA
ENCODING 474
SWIDTH 685 0
DWIDTH 11 0
BBX 11 15 -1 0
BITMAP
1B00
0E00
0400
0000
1B00
1B00
0000
F3C0
71C0
71C0
71C0
71C0
71C0
7BC0
3EE0
ENDCHAR
STARTCHAR uni01DB
ENCODING 475
SWIDTH 833 0
DWIDTH 14 0
BBX 14 19 0 0
BITMAP
0600
0700
0180
0000
0660
0660
0000
FE7C
3810
3810
3810
3810
3810
3810
3810
3810
1C20
1E60
0780
ENDCHAR
STARTCHAR uni01DC
ENCODING 476
SWIDTH 685 0
DWIDTH 11 0
BBX 11 15 -1 0
BITMAP
1800
1C00
0600
0000
1B00
1B00
0000
F3C0
71C0
71C0
71C0
71C0
71C0
7BC0
3EE0
ENDCHAR
STARTCHAR uni01DD
ENCODING 477
SWIDTH 574 0
DWIDTH 10 0
BBX 9 8 0 0
BITMAP
3E00
6700
C380
0380
FF80
E380
7700
3E00
ENDCHAR
STARTCHAR uni01DE
ENCODING 478
SWIDTH 759 0
DWIDTH 13 0
BBX 13 17 0 0
BITMAP
0F80
0000
1980
1980
0000
0600
0700
0700
0F00
0B80
1B80
11C0
3FC0
31C0
20E0
60E0
F1F8
ENDCHAR
STARTCHAR uni01DF
ENCODING 479
SWIDTH 611 0
DWIDTH 10 0
BBX 9 13 0 0
BITMAP
7C00
0000
6C00
6C00
0000
7E00
E700
C700
1F00
6700
E700
EF00
7780
ENDCHAR
STARTCHAR uni01E0
ENCODING 480
SWIDTH 759 0
DWIDTH 13 0
BBX 13 17 0 0
BITMAP
0F80
0000
0600
0600
0000
0600
0700
0700
0F00
0B80
1B80
11C0
3FC0
31C0
20E0
60E0
F1F8
ENDCHAR
STARTCHAR uni01E1
ENCODING 481
SWIDTH 611 0
DWIDTH 10 0
BBX 9 13 0 0
BITMAP
3E00
0000
1800
1800
0000
7E00
E700
C700
1F00
6700
E700
EF00
7780
ENDCHAR
STARTCHAR uni01E2
ENCODING 482
SWIDTH 981 0
DWIDTH 16 0
BBX 16 14 -1 0
BITMAP
01F0
0000
1FFF
07C3
05C3
05C9
09D8
09F8
11D8
1FC9
21C1
21C3
61C3
F7FF
ENDCHAR
STARTCHAR uni01E3
ENCODING 483
SWIDTH 870 0
DWIDTH 15 0
BBX 13 10 0 0
BITMAP
0F80
0000
7DE0
E730
C738
3FF8
6700
E718
EF30
7BE0
ENDCHAR
STARTCHAR uni01E4
ENCODING 484
SWIDTH 833 0
DWIDTH 14 0
BBX 15 12 1 0
BITMAP
0FA0
38E0
7060
7020
E020
E000
E3F8
E0E0
70E0
70FE
39FE
0F20
ENDCHAR
STARTCHAR uni01E5
ENCODING 485
SWIDTH 611 0
DWIDTH 10 0
BBX 9 12 0 -3
BITMAP
0180
3F80
7700
E380
E380
F700
7C00
6000
FF80
FF80
C380
FF00
ENDCHAR
STARTCHAR Gcaron
ENCODING 486
SWIDTH 833 0
DWIDTH 14 0
BBX 13 16 1 0
BITMAP
0D80
0700
0200
0000
0FA0
38E0
7060
7020
E020
E000
E3F8
E0E0
70E0
70E0
39E0
0F20
ENDCHAR
STARTCHAR gcaron
ENCODING 487
SWIDTH 611 0
DWIDTH 10 0
BBX 9 16 0 -3
BITMAP
3600
1C00
0800
0000
0180
3F80
7700
E380
E380
F700
7C00
6000
7F00
FF80
C380
FF00
ENDCHAR
STARTCHAR uni01E8
ENCODING 488
SWIDTH 815 0
DWIDTH 13 0
BBX 14 16 0 0
BITMAP
0D80
0700
0200
0000
FEF8
3860
38C0
3980
3B00
3F80
3F80
3BC0
39E0
38F0
3878
FEFC
ENDCHAR
STARTCHAR uni01E9
ENCODING 489
SWIDTH 667 0
DWIDTH 11 0
BBX 11 16 0 0
BITMAP
6C00
3800
1000
0000
F000
7000
7000
7000
77C0
7380
7700
7E00
7F00
7380
71C0
FBE0
ENDCHAR
STARTCHAR uni01EA
ENCODING 490
SWIDTH 833 0
DWIDTH 14 0
BBX 12 15 1 -3
BITMAP
0F00
39C0
70E0
70E0
E070
E070
E070
E070
70E0
70E0
39C0
0F00
0200
0400
0700
ENDCHAR
STARTCHAR uni01EB
ENCODING 491
SWIDTH 611 0
DWIDTH 11 0
BBX 10 11 0 -3
BITMAP
1E00
7380
E1C0
E1C0
E1C0
E1C0
7380
1E00
0400
0800
0E00
ENDCHAR
STARTCHAR uni01EC
ENCODING 492
SWIDTH 833 0
DWIDTH 14 0
BBX 12 17 1 -3
BITMAP
0F80
0000
0F00
39C0
70E0
70E0
E070
E070
E070
E070
70E0
70E0
39C0
0F00
0200
0400
0700
ENDCHAR
STARTCHAR uni01ED
ENCODING 493
SWIDTH 611 0
DWIDTH 11 0
BBX 10 13 0 -3
BITMAP
1F00
0000
1E00
7380
E1C0
E1C0
E1C0
E1C0
7380
1E00
0400
0800
0E00
ENDCHAR
STARTCHAR uni01F0
ENCODING 496
SWIDTH 352 0
DWIDTH 6 0
BBX 6 15 -2 -3
BITMAP
6C
38
10
00
7C
1C
1C
1C
1C
1C
1C
1C
DC
D8
70
ENDCHAR
STARTCHAR uni01F4
ENCODING 500
SWIDTH 833 0
DWIDTH 14 0
BBX 13 16 1 0
BITMAP
0180
0380
0600
0000
0FA0
38E0
7060
7020
E020
E000
E3F8
E0E0
70E0
70E0
39E0
0F20
ENDCHAR
STARTCHAR uni01F5
ENCODING 501
SWIDTH 611 0
DWIDTH 10 0
BBX 9 16 0 -3
BITMAP
0300
0700
0C00
0000
0180
3F80
7700
E380
E380
F700
7C00
6000
7F00
FF80
C380
FF00
ENDCHAR
STARTCHAR uni01F8
ENCODING 504
SWIDTH 833 0
DWIDTH 14 0
BBX 14 16 0 0
BITMAP
0C00
0E00
0300
0000
F07C
3810
3C10
3E10
2F10
2790
23D0
21F0
20F0
2070
2030
F810
ENDCHAR
STARTCHAR uni01F9
ENCODING 505
SWIDTH 685 0
DWIDTH 11 0
BBX 11 12 -1 0
BITMAP
1800
1C00
0600
0000
F780
79C0
71C0
71C0
71C0
71C0
71C0
FBE0
ENDCHAR
STARTCHAR Aringacute
ENCODING 506
SWIDTH 759 0
DWIDTH 13 0
BBX 13 20 0 0
BITMAP
0180
0380
0600
0000
0600
0B00
0600
0000
0600
0700
0700
0F00
0B80
1B80
11C0
3FC0
31C0
20E0
60E0
F1F8
ENDCHAR
STARTCHAR aringacute
ENCODING 507
SWIDTH 611 0
DWIDTH 10 0
BBX 9 16 0 0
BITMAP
0600
0E00
1800
0000
1800
2C00
1800
0000
7E00
E700
C700
1F00
6700
E700
EF00
7780
ENDCHAR
STARTCHAR AEacute
ENCODING 508
SWIDTH 981 0
DWIDTH 16 0
BBX 16 16 -1 0
BITMAP
0030
0070
00C0
0000
1FFF
07C3
05C3
05C9
09D8
09F8
11D8
1FC9
21C1
21C3
61C3
F7FF
ENDCHAR
STARTCHAR aeacute
ENCODING 509
SWIDTH 870 0
DWIDTH 15 0
BBX 13 12 0 0
BITMAP
0180
0380
0600
0000
7DE0
E730
C738
3FF8
6700
E718
EF30
7BE0
ENDCHAR
STARTCHAR Oslashacute
ENCODING 510
SWIDTH 833 0
DWIDTH 14 0
BBX 12 18 1 -1
BITMAP
0180
0380
0600
0000
0010
0F20
39C0
70E0
70E0
E170
E270
E470
E870
70E0
70E0
39C0
4F00
8000
ENDCHAR
STARTCHAR oslashacute
ENCODING 511
SWIDTH 611 0
DWIDTH 10 0
BBX 9 16 0 -2
BITMAP
0300
0700
0C00
0000
0080
0100
1E00
7300
E780
EB80
EB80
F380
6700
3C00
4000
8000
ENDCHAR
STARTCHAR uni0200
ENCODING 512
SWIDTH 759 0
DWIDTH 13 0
BBX 13 16 0 0
BITMAP
1B00
1B00
0D80
0000
0600
0700
0700
0F00
0B80
1B80
11C0
3FC0
31C0
20E0
60E0
F1F8
ENDCHAR
STARTCHAR uni0201
ENCODING 513
SWIDTH 611 0
DWIDTH 10 0
BBX 9 12 0 0
BITMAP
6C00
6C00
3600
0000
7E00
E700
C700
1F00
6700
E700
EF00
7780
ENDCHAR
STARTCHAR uni0202
ENCODING 514
SWIDTH 759 0
DWIDTH 13 0
BBX 13 16 0 0
BITMAP
0700
0880
0880
0000
0600
0700
0700
0F00
0B80
1B80
11C0
3FC0
31C0
20E0
60E0
F1F8
ENDCHAR
STARTCHAR uni0203
ENCODING 515
SWIDTH 611 0
DWIDTH 10 0
BBX 9 12 0 0
BITMAP
1C00
2200
2200
0000
7E00
E700
C700
1F00
6700
E700
EF00
7780
ENDCHAR
STARTCHAR uni0204
ENCODING 516
SWIDTH 759 0
DWIDTH 12 0
BBX 11 16 0 0
BITMAP
3600
3600
1B00
0000
FFE0
3860
3860
3920
3B00
3F00
3B00
3920
3820
3860
3860
FFE0
ENDCHAR
STARTCHAR uni0205
ENCODING 517
SWIDTH 574 0
DWIDTH 10 0
BBX 9 12 0 0
BITMAP
6C00
6C00
3600
0000
3E00
7700
E380
FF80
E000
E180
7300
3E00
ENDCHAR
STARTCHAR uni0206
ENCODING 518
SWIDTH 759 0
DWIDTH 12 0
BBX 11 16 0 0
BITMAP
0E00
1100
1100
0000
FFE0
3860
3860
3920
3B00
3F00
3B00
3920
3820
3860
3860
FFE0
ENDCHAR
STARTCHAR uni0207
ENCODING 519
SWIDTH 574 0
DWIDTH 10 0
BBX 9 12 0 0
BITMAP
1C00
2200
2200
0000
3E00
7700
E380
FF80
E000
E180
7300
3E00
ENDCHAR
STARTCHAR uni0208
ENCODING 520
SWIDTH 444 0
DWIDTH 7 0
BBX 7 16 0 0
BITMAP
D8
D8
6C
00
FE
38
38
38
38
38
38
38
38
38
38
FE
ENDCHAR
STARTCHAR uni0209
ENCODING 521
SWIDTH 370 0
DWIDTH 6 0
BBX 7 12 -1 0
BITMAP
D8
D8
6C
00
78
18
18
18
18
18
18
7E
ENDCHAR
STARTCHAR uni020A
ENCODING 522
SWIDTH 444 0
DWIDTH 7 0
BBX 7 16 0 0
BITMAP
38
44
44
00
FE
38
38
38
38
38
38
38
38
38
38
FE
ENDCHAR
STARTCHAR uni020B
ENCODING 523
SWIDTH 370 0
DWIDTH 6 0
BBX 6 12 0 0
BITMAP
70
88
88
00
F0
30
30
30
30
30
30
FC
ENDCHAR
STARTCHAR uni020C
ENCODING 524
SWIDTH 833 0
DWIDTH 14 0
BBX 12 16 1 0
BITMAP
1B00
1B00
0D80
0000
0F00
39C0
70E0
70E0
E070
E070
E070
E070
70E0
70E0
39C0
0F00
ENDCHAR
STARTCHAR uni020D
ENCODING 525
SWIDTH 611 0
DWIDTH 11 0
BBX 10 12 0 0
BITMAP
3600
3600
1B00
0000
1E00
7380
E1C0
E1C0
E1C0
E1C0
7380
1E00
ENDCHAR
STARTCHAR uni020E
ENCODING 526
SWIDTH 833 0
DWIDTH 14 0
BBX 12 16 1 0
BITMAP
0700
0880
0880
0000
0F00
39C0
70E0
70E0
E070
E070
E070
E070
70E0
70E0
39C0
0F00
ENDCHAR
STARTCHAR uni020F
ENCODING 527
SWIDTH 611 0
DWIDTH 11 0
BBX 10 12 0 0
BITMAP
0E00
1100
1100
0000
1E00
7380
E1C0
E1C0
E1C0
E1C0
7380
1E00
ENDCHAR
STARTCHAR uni0210
ENCODING 528
SWIDTH 815 0
DWIDTH 14 0
BBX 13 16 0 0
BITMAP
1B00
1B00
0D80
0000
FFC0
38E0
3870
3870
38E0
3FC0
3980
39C0
38E0
38E8
38F8
FC70
ENDCHAR
STARTCHAR uni0211
ENCODING 529
SWIDTH 519 0
DWIDTH 9 0
BBX 9 12 0 0
BITMAP
6C00
6C00
3600
0000
F700
7B80
7300
7000
7000
7000
7000
F800
ENDCHAR
STARTCHAR uni0212
ENCODING 530
SWIDTH 815 0
DWIDTH 14 0
BBX 13 16 0 0
BITMAP
0700
0880
0880
0000
FFC0
38E0
3870
3870
38E0
3FC0
3980
39C0
38E0
38E8
38F8
FC70
ENDCHAR
STARTCHAR uni0213
ENCODING 531
SWIDTH 519 0
DWIDTH 9 0
BBX 9 12 0 0
BITMAP
1C00
2200
2200
0000
F700
7B80
7300
7000
7000
7000
7000
F800
ENDCHAR
STARTCHAR uni0214
ENCODING 532
SWIDTH 833 0
DWIDTH 14 0
BBX 14 16 0 0
BITMAP
1B00
1B00
0D80
0000
FE7C
3810
3810
3810
3810
3810
3810
3810
3810
1C20
1E60
0780
ENDCHAR
STARTCHAR uni0215
ENCODING 533
SWIDTH 685 0
DWIDTH 11 0
BBX 11 12 -1 0
BITMAP
3600
3600
1B00
0000
F3C0
71C0
71C0
71C0
71C0
71C0
7BC0
3EE0
ENDCHAR
STARTCHAR uni0216
ENCODING 534
SWIDTH 833 0
DWIDTH 14 0
BBX 14 16 0 0
BITMAP
0700
0880
0880
0000
FE7C
3810
3810
3810
3810
3810
3810
3810
3810
1C20
1E60
0780
ENDCHAR
STARTCHAR uni0217
ENCODING 535
SWIDTH 685 0
DWIDTH 11 0
BBX 11 12 -1 0
BITMAP
0E00
1100
1100
0000
F3C0
71C0
71C0
71C0
71C0
71C0
7BC0
3EE0
ENDCHAR
STARTCHAR Scommaaccent
ENCODING 536
SWIDTH 667 0
DWIDTH 11 0
BBX 9 19 1 -7
BITMAP
3E80
4380
C180
C080
F880
7E00
3F00
8F80
8180
C180
E100
BE00
0000
1800
3C00
1C00
0800
1800
2000
ENDCHAR
STARTCHAR scommaaccent
ENCODING 537
SWIDTH 500 0
DWIDTH 8 0
BBX 7 15 0 -7
BITMAP
7A
C6
E2
FC
7E
8E
C6
BC
00
18
3C
1C
08
18
20
ENDCHAR
STARTCHAR Tcommaaccent
ENCODING 538
SWIDTH 722 0
DWIDTH 12 0
BBX 11 19 0 -7
BITMAP
FFE0
CE60
8E20
8E20
0E00
0E00
0E00
0E00
0E00
0E00
0E00
3F80
0000
0600
0F00
0700
0200
0600
0800
ENDCHAR
STARTCHAR tcommaaccent
ENCODING 539
SWIDTH 426 0
DWIDTH 7 0
BBX 6 18 0 -7
BITMAP
10
10
30
FC
70
70
70
70
74
7C
38
00
30
78
38
10
30
40
ENDCHAR
STARTCHAR uni021E
ENCODING 542
SWIDTH 870 0
DWIDTH 15 0
BBX 14 16 0 0
BITMAP
0D80
0700
0200
0000
FEFC
3870
3870
3870
3870
3FF0
3870
3870
3870
3870
3870
FEFC
ENDCHAR
STARTCHAR uni021F
ENCODING 543
SWIDTH 685 0
DWIDTH 11 0
BBX 11 16 -1 0
BITMAP
6C00
3800
1000
0000
F000
7000
7000
7000
7780
79C0
79C0
71C0
71C0
71C0
71C0
FBE0
ENDCHAR
STARTCHAR uni0226
ENCODING 550
SWIDTH 759 0
DWIDTH 13 0
BBX 13 15 0 0
BITMAP
0600
0600
0000
0600
0700
0700
0F00
0B80
1B80
11C0
3FC0
31C0
20E0
60E0
F1F8
ENDCHAR
STARTCHAR uni0227
ENCODING 551
SWIDTH 611 0
DWIDTH 10 0
BBX 9 11 0 0
BITMAP
1800
1800
0000
7E00
E700
C700
1F00
6700
E700
EF00
7780
ENDCHAR
STARTCHAR uni0228
ENCODING 552
SWIDTH 759 0
DWIDTH 12 0
BBX 11 15 0 -3
BITMAP
FFE0
3860
3860
3920
3B00
3F00
3B00
3920
3820
3860
3860
FFE0
0600
0300
0E00
ENDCHAR
STARTCHAR uni0229
ENCODING 553
SWIDTH 574 0
DWIDTH 10 0
BBX 9 11 0 -3
BITMAP
3E00
7700
E380
FF80
E000
E180
7300
3E00
1800
0C00
3800
ENDCHAR
STARTCHAR uni022A
ENCODING 554
SWIDTH 833 0
DWIDTH 14 0
BBX 12 17 1 0
BITMAP
0F80
0000
1980
1980
0000
0F00
39C0
70E0
70E0
E070
E070
E070
E070
70E0
70E0
39C0
0F00
ENDCHAR
STARTCHAR uni022B
ENCODING 555
SWIDTH 611 0
DWIDTH 11 0
BBX 10 13 0 0
BITMAP
3E00
0000
3600
3600
0000
3F00
7380
E1C0
E1C0
E1C0
E1C0
7380
3F00
ENDCHAR
STARTCHAR uni022C
ENCODING 556
SWIDTH 833 0
DWIDTH 14 0
BBX 12 17 1 0
BITMAP
0F80
0000
0E80
1700
0000
0F00
39C0
70E0
70E0
E070
E070
E070
E070
70E0
70E0
39C0
0F00
ENDCHAR
STARTCHAR uni022D
ENCODING 557
SWIDTH 611 0
DWIDTH 11 0
BBX 10 13 0 0
BITMAP
1F00
0000
1D00
2E00
0000
3F00
7380
E1C0
E1C0
E1C0
E1C0
7380
3F00
ENDCHAR
STARTCHAR uni022E
ENCODING 558
SWIDTH 833 0
DWIDTH 14 0
BBX 12 15 1 0
BITMAP
0600
0600
0000
0F00
39C0
70E0
70E0
E070
E070
E070
E070
70E0
70E0
39C0
0F00
ENDCHAR
STARTCHAR uni022F
ENCODING 559
SWIDTH 611 0
DWIDTH 11 0
BBX 10 11 0 0
BITMAP
0C00
0C00
0000
1E00
7380
E1C0
E1C0
E1C0
E1C0
7380
1E00
ENDCHAR
STARTCHAR uni0230
ENCODING 560
SWIDTH 833 0
DWIDTH 14 0
BBX 12 17 1 0
BITMAP
0F80
0000
0600
0600
0000
0F00
39C0
70E0
70E0
E070
E070
E070
E070
70E0
70E0
39C0
0F00
ENDCHAR
STARTCHAR uni0231
ENCODING 561
SWIDTH 611 0
DWIDTH 11 0
BBX 10 13 0 0
BITMAP
1F00
0000
0C00
0C00
0000
1E00
7380
E1C0
E1C0
E1C0
E1C0
7380
1E00
ENDCHAR
STARTCHAR uni0232
ENCODING 562
SWIDTH 722 0
DWIDTH 12 0
BBX 13 14 -1 0
BITMAP
0F80
0000
FEF8
3860
1C40
1C80
0E80
0F00
0700
0700
0700
0700
0700
1FC0
ENDCHAR
STARTCHAR uni0233
ENCODING 563
SWIDTH 611 0
DWIDTH 10 0
BBX 10 13 -1 -3
BITMAP
3E00
0000
FBC0
7180
3980
3900
1F00
0E00
0E00
0600
3400
7400
3800
ENDCHAR
STARTCHAR uni0250
ENCODING 592
SWIDTH 611 0
DWIDTH 10 0
BBX 9 8 0 0
BITMAP
F700
7B80
7380
7300
7C00
7180
7380
3F00
ENDCHAR
STARTCHAR uni0254
ENCODING 596
SWIDTH 556 0
DWIDTH 9 0
BBX 8 8 0 0
BITMAP
7C
CE
E7
07
07
C7
6E
3C
ENDCHAR
STARTCHAR uni0258
ENCODING 600
SWIDTH 574 0
DWIDTH 10 0
BBX 9 8 0 0
BITMAP
3E00
7700
E380
FF80
0380
C380
6700
3E00
ENDCHAR
STARTCHAR uni0259
ENCODING 601
SWIDTH 574 0
DWIDTH 10 0
BBX 9 8 0 0
BITMAP
3E00
6700
C380
0380
FF80
E380
7700
3E00
ENDCHAR
STARTCHAR uni025F
ENCODING 607
SWIDTH 389 0
DWIDTH 7 0
BBX 9 12 -1 -4
BITMAP
3F80
0E00
0E00
0E00
0E00
0E00
0E00
3F80
0E00
6E00
EC00
7800
ENDCHAR
STARTCHAR uni0265
ENCODING 613
SWIDTH 685 0
DWIDTH 11 0
BBX 11 12 -1 -4
BITMAP
FBE0
71C0
71C0
71C0
71C0
73C0
73C0
3DC0
01C0
01C0
01C0
01E0
ENDCHAR
STARTCHAR uni0275
ENCODING 629
SWIDTH 611 0
DWIDTH 11 0
BBX 10 8 0 0
BITMAP
1E00
7380
E1C0
FFC0
FFC0
E1C0
7380
1E00
ENDCHAR
STARTCHAR uni0279
ENCODING 633
SWIDTH 519 0
DWIDTH 9 0
BBX 9 8 0 0
BITMAP
0F80
0700
0700
0700
0700
6700
EF00
7780
ENDCHAR
STARTCHAR uni0287
ENCODING 647
SWIDTH 426 0
DWIDTH 7 0
BBX 6 11 0 0
BITMAP
70
F8
B8
38
38
38
38
FC
30
20
20
ENDCHAR
STARTCHAR uni0288
ENCODING 648
SWIDTH 426 0
DWIDTH 7 0
BBX 7 14 0 -3
BITMAP
10
10
30
FC
70
70
70
70
70
70
70
76
36
1C
ENDCHAR
STARTCHAR uni0289
ENCODING 649
SWIDTH 685 0
DWIDTH 11 0
BBX 11 8 -1 0
BITMAP
F3C0
71C0
71C0
FFE0
FFE0
71C0
7BC0
3EE0
ENDCHAR
STARTCHAR uni028C
ENCODING 652
SWIDTH 611 0
DWIDTH 10 0
BBX 10 8 0 0
BITMAP
0C00
0E00
1E00
1700
3700
3380
6380
F7C0
ENDCHAR
STARTCHAR uni028D
ENCODING 653
SWIDTH 889 0
DWIDTH 15 0
BBX 15 8 0 0
BITMAP
0C60
0C60
1EF0
1EF0
37B8
2738
631C
F7BE
ENDCHAR
STARTCHAR uni028E
ENCODING 654
SWIDTH 611 0
DWIDTH 10 0
BBX 10 11 -1 0
BITMAP
0700
0B80
0B00
1800
1C00
1C00
3E00
2700
6700
6380
F7C0
ENDCHAR
STARTCHAR uni029E
ENCODING 670
SWIDTH 667 0
DWIDTH 11 0
BBX 11 12 0 -4
BITMAP
FBE0
71C0
39C0
1FC0
0FC0
1DC0
39C0
7DC0
01C0
01C0
01C0
01E0
ENDCHAR
STARTCHAR uni02BB
ENCODING 699
SWIDTH 241 0
DWIDTH 4 0
BBX 4 6 0 6
BITMAP
10
60
40
E0
F0
60
ENDCHAR
STARTCHAR afii57929
ENCODING 700
SWIDTH 241 0
DWIDTH 4 0
BBX 4 6 0 6
BITMAP
60
F0
70
20
60
80
ENDCHAR
STARTCHAR afii64937
ENCODING 701
SWIDTH 241 0
DWIDTH 4 0
BBX 4 6 0 6
BITMAP
60
F0
E0
40
60
10
ENDCHAR
STARTCHAR circumflex
ENCODING 710
SWIDTH 333 0
DWIDTH 6 0
BBX 5 3 1 9
BITMAP
20
70
D8
ENDCHAR
STARTCHAR caron
ENCODING 711
SWIDTH 333 0
DWIDTH 6 0
BBX 5 3 0 9
BITMAP
D8
70
20
ENDCHAR
STARTCHAR uni02C8
ENCODING 712
SWIDTH 241 0
DWIDTH 4 0
BBX 2 5 1 7
BITMAP
C0
C0
C0
80
80
ENDCHAR
STARTCHAR macron
ENCODING 713
SWIDTH 333 0
DWIDTH 6 0
BBX 5 1 0 10
BITMAP
F8
ENDCHAR
STARTCHAR uni02CA
ENCODING 714
SWIDTH 333 0
DWIDTH 6 0
BBX 4 3 1 9
BITMAP
30
70
C0
ENDCHAR
STARTCHAR uni02CB
ENCODING 715
SWIDTH 333 0
DWIDTH 6 0
BBX 4 3 0 9
BITMAP
C0
E0
30
ENDCHAR
STARTCHAR uni02CD
ENCODING 717
SWIDTH 333 0
DWIDTH 6 0
BBX 5 1 0 -2
BITMAP
F8
ENDCHAR
STARTCHAR uni02CE
ENCODING 718
SWIDTH 333 0
DWIDTH 6 0
BBX 4 3 0 -4
BITMAP
C0
E0
30
ENDCHAR
STARTCHAR uni02CF
ENCODING 719
SWIDTH 333 0
DWIDTH 6 0
BBX 4 3 1 -4
BITMAP
30
70
C0
ENDCHAR
STARTCHAR breve
ENCODING 728
SWIDTH 333 0
DWIDTH 6 0
BBX 5 3 0 9
BITMAP
88
88
70
ENDCHAR
STARTCHAR dotaccent
ENCODING 729
SWIDTH 333 0
DWIDTH 6 0
BBX 2 2 2 9
BITMAP
C0
C0
ENDCHAR
STARTCHAR ring
ENCODING 730
SWIDTH 333 0
DWIDTH 6 0
BBX 4 4 1 8
BITMAP
60
90
90
60
ENDCHAR
STARTCHAR ogonek
ENCODING 731
SWIDTH 333 0
DWIDTH 6 0
BBX 3 3 1 -3
BITMAP
40
80
E0
ENDCHAR
STARTCHAR tilde
ENCODING 732
SWIDTH 333 0
DWIDTH 6 0
BBX 6 2 0 9
BITMAP
74
B8
ENDCHAR
STARTCHAR hungarumlaut
ENCODING 733
SWIDTH 333 0
DWIDTH 6 0
BBX 6 3 0 9
BITMAP
6C
6C
D8
ENDCHAR
STARTCHAR uni02EE
ENCODING 750
SWIDTH 481 0
DWIDTH 8 0
BBX 8 6 0 6
BITMAP
66
FF
77
22
66
88
ENDCHAR
STARTCHAR uni037E
ENCODING 894
SWIDTH 278 0
DWIDTH 5 0
BBX 4 11 0 -3
BITMAP
60
F0
60
00
00
60
F0
70
20
60
80
ENDCHAR
STARTCHAR tonos
ENCODING 900
SWIDTH 333 0
DWIDTH 6 0
BBX 4 3 1 9
BITMAP
30
70
C0
ENDCHAR
STARTCHAR dieresistonos
ENCODING 901
SWIDTH 333 0
DWIDTH 6 0
BBX 5 6 0 9
BITMAP
18
38
60
00
D8
D8
ENDCHAR
STARTCHAR anoteleia
ENCODING 903
SWIDTH 278 0
DWIDTH 5 0
BBX 4 3 0 3
BITMAP
60
F0
60
ENDCHAR
STARTCHAR mu
ENCODING 956
SWIDTH 685 0
DWIDTH 11 0
BBX 11 11 0 -3
BITMAP
F3C0
71C0
71C0
71C0
71C0
71C0
7BC0
6EE0
6000
7000
7000
ENDCHAR
STARTCHAR uni1E00
ENCODING 7680
SWIDTH 759 0
DWIDTH 13 0
BBX 13 17 0 -5
BITMAP
0600
0700
0700
0F00
0B80
1B80
11C0
3FC0
31C0
20E0
60E0
F1F8
0000
0300
0480
0480
0300
ENDCHAR
STARTCHAR uni1E01
ENCODING 7681
SWIDTH 611 0
DWIDTH 10 0
BBX 9 13 0 -5
BITMAP
7E00
E700
C700
1F00
6700
E700
EF00
7780
0000
1800
2400
2400
1800
ENDCHAR
STARTCHAR uni1E02
ENCODING 7682
SWIDTH 778 0
DWIDTH 13 0
BBX 12 15 0 0
BITMAP
0600
0600
0000
FFC0
38E0
3870
3870
38E0
3FC0
38E0
3870
3870
3870
38E0
FFC0
ENDCHAR
STARTCHAR uni1E03
ENCODING 7683
SWIDTH 648 0
DWIDTH 11 0
BBX 11 15 -1 0
BITMAP
1800
1800
0000
F800
3800
3800
3800
3B80
3DC0
38E0
38E0
38E0
38E0
3DC0
2B80
ENDCHAR
STARTCHAR uni1E04
ENCODING 7684
SWIDTH 778 0
DWIDTH 13 0
BBX 12 15 0 -3
BITMAP
FFC0
38E0
3870
3870
38E0
3FC0
38E0
3870
3870
3870
38E0
FFC0
0000
0600
0600
ENDCHAR
STARTCHAR uni1E05
ENCODING 7685
SWIDTH 648 0
DWIDTH 11 0
BBX 11 15 -1 -3
BITMAP
F800
3800
3800
3800
3B80
3DC0
38E0
38E0
38E0
38E0
3DC0
2B80
0000
0600
0600
ENDCHAR
STARTCHAR uni1E06
ENCODING 7686
SWIDTH 778 0
DWIDTH 13 0
BBX 12 14 0 -2
BITMAP
FFC0
38E0
3870
3870
38E0
3FC0
38E0
3870
3870
3870
38E0
FFC0
0000
0F80
ENDCHAR
STARTCHAR uni1E07
ENCODING 7687
SWIDTH 648 0
DWIDTH 11 0
BBX 11 14 -1 -2
BITMAP
F800
3800
3800
3800
3B80
3DC0
38E0
38E0
38E0
38E0
3DC0
2B80
0000
1F00
ENDCHAR
STARTCHAR uni1E08
ENCODING 7688
SWIDTH 778 0
DWIDTH 13 0
BBX 11 19 1 -3
BITMAP
0180
0380
0600
0000
0FA0
38E0
7060
7020
E020
E000
E000
E020
7020
7040
38C0
0F00
0C00
0600
1C00
ENDCHAR
STARTCHAR uni1E09
ENCODING 7689
SWIDTH 556 0
DWIDTH 9 0
BBX 8 15 0 -3
BITMAP
06
0E
18
00
3E
73
E7
E3
E0
E3
76
3C
18
0C
38
ENDCHAR
STARTCHAR uni1E0A
ENCODING 7690
SWIDTH 833 0
DWIDTH 14 0
BBX 13 15 0 0
BITMAP
0600
0600
0000
FF80
38E0
3870
3870
3838
3838
3838
3838
3870
3870
38E0
FF80
ENDCHAR
STARTCHAR uni1E0B
ENCODING 7691
SWIDTH 667 0
DWIDTH 11 0
BBX 11 15 0 0
BITMAP
0300
0300
0000
0780
0380
0380
0380
3B80
7780
E380
E380
E380
E380
7780
3AE0
ENDCHAR
STARTCHAR uni1E0C
ENCODING 7692
SWIDTH 833 0
DWIDTH 14 0
BBX 13 15 0 -3
BITMAP
FF80
38E0
3870
3870
3838
3838
3838
3838
3870
3870
38E0
FF80
0000
0600
0600
ENDCHAR
STARTCHAR uni1E0D
ENCODING 7693
SWIDTH 667 0
DWIDTH 11 0
BBX 11 15 0 -3
BITMAP
0780
0380
0380
0380
3B80
7780
E380
E380
E380
E380
7780
3AE0
0000
0C00
0C00
ENDCHAR
STARTCHAR uni1E0E
ENCODING 7694
SWIDTH 833 0
DWIDTH 14 0
BBX 13 14 0 -2
BITMAP
FF80
38E0
3870
3870
3838
3838
3838
3838
3870
3870
38E0
FF80
0000
0F80
ENDCHAR
STARTCHAR uni1E0F
ENCODING 7695
SWIDTH 667 0
DWIDTH 11 0
BBX 11 14 0 -2
BITMAP
0780
0380
0380
0380
3B80
7780
E380
E380
E380
E380
7780
3AE0
0000
1F00
ENDCHAR
STARTCHAR uni1E10
ENCODING 7696
SWIDTH 833 0
DWIDTH 14 0
BBX 13 15 0 -3
BITMAP
FF80
38E0
3870
3870
3838
3838
3838
3838
3870
3870
38E0
FF80
0600
0300
0E00
ENDCHAR
STARTCHAR uni1E11
ENCODING 7697
SWIDTH 667 0
DWIDTH 11 0
BBX 11 15 0 -3
BITMAP
0780
0380
0380
0380
3B80
7780
E380
E380
E380
E380
7780
3AE0
0C00
0600
1C00
ENDCHAR
STARTCHAR uni1E12
ENCODING 7698
SWIDTH 833 0
DWIDTH 14 0
BBX 13 16 0 -4
BITMAP
FF80
38E0
3870
3870
3838
3838
3838
3838
3870
3870
38E0
FF80
0000
0200
0700
0D80
ENDCHAR
STARTCHAR uni1E13
ENCODING 7699
SWIDTH 667 0
DWIDTH 11 0
BBX 11 16 0 -4
BITMAP
0780
0380
0380
0380
3B80
7780
E380
E380
E380
E380
7780
3AE0
0000
0400
0E00
1B00
ENDCHAR
STARTCHAR uni1E14
ENCODING 7700
SWIDTH 759 0
DWIDTH 12 0
BBX 11 18 0 0
BITMAP
1800
1C00
0600
0000
1F00
0000
FFE0
3860
3860
3920
3B00
3F00
3B00
3920
3820
3860
3860
FFE0
ENDCHAR
STARTCHAR uni1E15
ENCODING 7701
SWIDTH 574 0
DWIDTH 10 0
BBX 9 14 0 0
BITMAP
3000
3800
0C00
0000
3E00
0000
3E00
7700
E380
FF80
E000
E180
7300
3E00
ENDCHAR
STARTCHAR uni1E16
ENCODING 7702
SWIDTH 759 0
DWIDTH 12 0
BBX 11 18 0 0
BITMAP
0300
0700
0C00
0000
1F00
0000
FFE0
3860
3860
3920
3B00
3F00
3B00
3920
3820
3860
3860
FFE0
ENDCHAR
STARTCHAR uni1E17
ENCODING 7703
SWIDTH 574 0
DWIDTH 10 0
BBX 9 14 0 0
BITMAP
0600
0E00
1800
0000
3E00
0000
3E00
7700
E380
FF80
E000
E180
7300
3E00
ENDCHAR
STARTCHAR uni1E18
ENCODING 7704
SWIDTH 759 0
DWIDTH 12 0
BBX 11 16 0 -4
BITMAP
FFE0
3860
3860
3920
3B00
3F00
3B00
3920
3820
3860
3860
FFE0
0000
0400
0E00
1B00
ENDCHAR
STARTCHAR uni1E19
ENCODING 7705
SWIDTH 574 0
DWIDTH 10 0
BBX 9 12 0 -4
BITMAP
3E00
7700
E380
FF80
E000
E180
7300
3E00
0000
0800
1C00
3600
ENDCHAR
STARTCHAR uni1E1A
ENCODING 7706
SWIDTH 759 0
DWIDTH 12 0
BBX 11 15 0 -3
BITMAP
FFE0
3860
3860
3920
3B00
3F00
3B00
3920
3820
3860
3860
FFE0
0000
1D00
2E00
ENDCHAR
STARTCHAR uni1E1B
ENCODING 7707
SWIDTH 574 0
DWIDTH 10 0
BBX 9 11 0 -3
BITMAP
3E00
7700
E380
FF80
E000
E180
7300
3E00
0000
3A00
5C00
ENDCHAR
STARTCHAR uni1E1C
ENCODING 7708
SWIDTH 759 0
DWIDTH 12 0
BBX 11 19 0 -3
BITMAP
1100
1100
0E00
0000
FFE0
3860
3860
3920
3B00
3F00
3B00
3920
3820
3860
3860
FFE0
0600
0300
0E00
ENDCHAR
STARTCHAR uni1E1D
ENCODING 7709
SWIDTH 574 0
DWIDTH 10 0
BBX 9 15 0 -3
BITMAP
2200
2200
1C00
0000
3E00
7700
E380
FF80
E000
E180
7300
3E00
1800
0C00
3800
ENDCHAR
STARTCHAR uni1E1E
ENCODING 7710
SWIDTH 722 0
DWIDTH 12 0
BBX 11 15 0 0
BITMAP
0600
0600
0000
FFE0
3860
3860
3920
3B00
3F00
3B00
3900
3800
3800
3800
FE00
ENDCHAR
STARTCHAR uni1E1F
ENCODING 7711
SWIDTH 389 0
DWIDTH 7 0
BBX 9 15 -1 0
BITMAP
0C00
0C00
0000
0F00
1B80
3B00
3800
FE00
3800
3800
3800
3800
3800
3800
FE00
ENDCHAR
STARTCHAR uni1E20
ENCODING 7712
SWIDTH 833 0
DWIDTH 14 0
BBX 13 14 1 0
BITMAP
0F80
0000
0FA0
38E0
7060
7020
E020
E000
E3F8
E0E0
70E0
70E0
39E0
0F20
ENDCHAR
STARTCHAR uni1E21
ENCODING 7713
SWIDTH 611 0
DWIDTH 10 0
BBX 9 14 0 -3
BITMAP
3E00
0000
0180
3F80
7700
E380
E380
F700
7C00
6000
7F00
FF80
C380
FF00
ENDCHAR
STARTCHAR uni1E22
ENCODING 7714
SWIDTH 870 0
DWIDTH 15 0
BBX 14 15 0 0
BITMAP
0300
0300
0000
FEFC
3870
3870
3870
3870
3FF0
3870
3870
3870
3870
3870
FEFC
ENDCHAR
STARTCHAR uni1E23
ENCODING 7715
SWIDTH 685 0
DWIDTH 11 0
BBX 11 15 -1 0
BITMAP
3000
3000
0000
F000
7000
7000
7000
7780
79C0
79C0
71C0
71C0
71C0
71C0
FBE0
ENDCHAR
STARTCHAR uni1E24
ENCODING 7716
SWIDTH 870 0
DWIDTH 15 0
BBX 14 15 0 -3
BITMAP
FEFC
3870
3870
3870
3870
3FF0
3870
3870
3870
3870
3870
FEFC
0000
0300
0300
ENDCHAR
STARTCHAR uni1E25
ENCODING 7717
SWIDTH 685 0
DWIDTH 11 0
BBX 11 15 -1 -3
BITMAP
F000
7000
7000
7000
7780
79C0
79C0
71C0
71C0
71C0
71C0
FBE0
0000
0600
0600
ENDCHAR
STARTCHAR uni1E26
ENCODING 7718
SWIDTH 870 0
DWIDTH 15 0
BBX 14 15 0 0
BITMAP
0D80
0D80
0000
FEFC
3870
3870
3870
3870
3FF0
3870
3870
3870
3870
3870
FEFC
ENDCHAR
STARTCHAR uni1E27
ENCODING 7719
SWIDTH 685 0
DWIDTH 11 0
BBX 11 15 -1 0
BITMAP
6C00
6C00
0000
F000
7000
7000
7000
7780
79C0
79C0
71C0
71C0
71C0
71C0
FBE0
ENDCHAR
STARTCHAR uni1E28
ENCODING 7720
SWIDTH 870 0
DWIDTH 15 0
BBX 14 15 0 -3
BITMAP
FEFC
3870
3870
3870
3870
3FF0
3870
3870
3870
3870
3870
FEFC
0300
0180
0700
ENDCHAR
STARTCHAR uni1E29
ENCODING 7721
SWIDTH 685 0
DWIDTH 11 0
BBX 11 15 -1 -3
BITMAP
F000
7000
7000
7000
7780
79C0
79C0
71C0
71C0
71C0
71C0
FFE0
0600
0300
0E00
ENDCHAR
STARTCHAR uni1E2A
ENCODING 7722
SWIDTH 870 0
DWIDTH 15 0
BBX 14 16 0 -4
BITMAP
FEFC
3870
3870
3870
3870
3FF0
3870
3870
3870
3870
3870
FEFC
0000
0880
0880
0700
ENDCHAR
STARTCHAR uni1E2B
ENCODING 7723
SWIDTH 685 0
DWIDTH 11 0
BBX 11 16 -1 -4
BITMAP
F000
7000
7000
7000
7780
79C0
79C0
71C0
71C0
71C0
71C0
FBE0
0000
1100
1100
0E00
ENDCHAR
STARTCHAR uni1E2C
ENCODING 7724
SWIDTH 444 0
DWIDTH 7 0
BBX 7 15 0 -3
BITMAP
FE
38
38
38
38
38
38
38
38
38
38
FE
00
74
B8
ENDCHAR
STARTCHAR uni1E2D
ENCODING 7725
SWIDTH 370 0
DWIDTH 6 0
BBX 6 15 -1 -3
BITMAP
30
78
30
00
78
38
38
38
38
38
38
7C
00
74
B8
ENDCHAR
STARTCHAR uni1E2E
ENCODING 7726
SWIDTH 444 0
DWIDTH 7 0
BBX 7 19 0 0
BITMAP
0C
1C
30
00
6C
6C
00
FE
38
38
38
38
38
38
38
38
38
38
FE
ENDCHAR
STARTCHAR uni1E2F
ENCODING 7727
SWIDTH 370 0
DWIDTH 6 0
BBX 5 15 0 0
BITMAP
18
38
60
00
D8
D8
00
F0
70
70
70
70
70
70
F8
ENDCHAR
STARTCHAR uni1E30
ENCODING 7728
SWIDTH 815 0
DWIDTH 13 0
BBX 14 16 0 0
BITMAP
0180
0380
0600
0000
FEF8
3860
38C0
3980
3B00
3F80
3F80
3BC0
39E0
38F0
3878
FEFC
ENDCHAR
STARTCHAR uni1E31
ENCODING 7729
SWIDTH 667 0
DWIDTH 11 0
BBX 11 16 0 0
BITMAP
0C00
1C00
3000
0000
F000
7000
7000
7000
77C0
7380
7700
7E00
7F00
7380
71C0
FBE0
ENDCHAR
STARTCHAR uni1E32
ENCODING 7730
SWIDTH 815 0
DWIDTH 13 0
BBX 14 15 0 -3
BITMAP
FEF8
3860
38C0
3980
3B00
3F80
3F80
3BC0
39E0
38F0
3878
FEFC
0000
0300
0300
ENDCHAR
STARTCHAR uni1E33
ENCODING 7731
SWIDTH 667 0
DWIDTH 11 0
BBX 11 15 0 -3
BITMAP
F000
7000
7000
7000
77C0
7380
7700
7E00
7F00
7380
71C0
FBE0
0000
0C00
0C00
ENDCHAR
STARTCHAR uni1E34
ENCODING 7732
SWIDTH 815 0
DWIDTH 13 0
BBX 14 14 0 -2
BITMAP
FEF8
3860
38C0
3980
3B00
3F80
3F80
3BC0
39E0
38F0
3878
FEFC
0000
07C0
ENDCHAR
STARTCHAR uni1E35
ENCODING 7733
SWIDTH 667 0
DWIDTH 11 0
BBX 11 14 0 -2
BITMAP
F000
7000
7000
7000
77C0
7380
7700
7E00
7F00
7380
71C0
FBE0
0000
1F00
ENDCHAR
STARTCHAR uni1E36
ENCODING 7734
SWIDTH 722 0
DWIDTH 12 0
BBX 11 15 0 -3
BITMAP
FE00
3800
3800
3800
3800
3800
3800
3820
3820
3860
3860
FFE0
0000
0600
0600
ENDCHAR
STARTCHAR uni1E37
ENCODING 7735
SWIDTH 352 0
DWIDTH 6 0
BBX 5 15 0 -3
BITMAP
F0
70
70
70
70
70
70
70
70
70
70
F8
00
30
30
ENDCHAR
STARTCHAR uni1E38
ENCODING 7736
SWIDTH 722 0
DWIDTH 12 0
BBX 11 17 0 -3
BITMAP
3E00
0000
FE00
3800
3800
3800
3800
3800
3800
3820
3820
3860
3860
FFE0
0000
0600
0600
ENDCHAR
STARTCHAR uni1E39
ENCODING 7737
SWIDTH 352 0
DWIDTH 6 0
BBX 5 17 0 -3
BITMAP
F8
00
F0
70
70
70
70
70
70
70
70
70
70
F8
00
30
30
ENDCHAR
STARTCHAR uni1E3A
ENCODING 7738
SWIDTH 722 0
DWIDTH 12 0
BBX 11 14 0 -2
BITMAP
FE00
3800
3800
3800
3800
3800
3800
3820
3820
3860
3860
FFE0
0000
1F00
ENDCHAR
STARTCHAR uni1E3B
ENCODING 7739
SWIDTH 352 0
DWIDTH 6 0
BBX 5 14 0 -2
BITMAP
F0
70
70
70
70
70
70
70
70
70
70
F8
00
F8
ENDCHAR
STARTCHAR uni1E3C
ENCODING 7740
SWIDTH 722 0
DWIDTH 12 0
BBX 11 16 0 -4
BITMAP
FE00
3800
3800
3800
3800
3800
3800
3820
3820
3860
3860
FFE0
0000
0400
0E00
1B00
ENDCHAR
STARTCHAR uni1E3D
ENCODING 7741
SWIDTH 352 0
DWIDTH 6 0
BBX 5 16 0 -4
BITMAP
F0
70
70
70
70
70
70
70
70
70
70
F8
00
20
70
D8
ENDCHAR
STARTCHAR uni1E3E
ENCODING 7742
SWIDTH 981 0
DWIDTH 16 0
BBX 16 16 0 0
BITMAP
0060
00E0
0180
0000
FC3F
3C3C
2E3C
2E5C
2E5C
275C
279C
279C
239C
231C
211C
F93F
ENDCHAR
STARTCHAR uni1E3F
ENCODING 7743
SWIDTH 963 0
DWIDTH 16 0
BBX 15 12 0 0
BITMAP
00C0
01C0
0300
0000
F738
7BDC
739C
739C
739C
739C
739C
FBBE
ENDCHAR
STARTCHAR uni1E40
ENCODING 7744
SWIDTH 981 0
DWIDTH 16 0
BBX 16 15 0 0
BITMAP
0180
0180
0000
FC3F
3C3C
2E3C
2E5C
2E5C
275C
279C
279C
239C
231C
211C
F93F
ENDCHAR
STARTCHAR uni1E41
ENCODING 7745
SWIDTH 963 0
DWIDTH 16 0
BBX 15 11 0 0
BITMAP
0300
0300
0000
F738
7BDC
739C
739C
739C
739C
739C
FBBE
ENDCHAR
STARTCHAR uni1E42
ENCODING 7746
SWIDTH 981 0
DWIDTH 16 0
BBX 16 15 0 -3
BITMAP
FC3F
3C3C
2E3C
2E5C
2E5C
275C
279C
279C
239C
231C
211C
F93F
0000
0180
0180
ENDCHAR
STARTCHAR uni1E43
ENCODING 7747
SWIDTH 963 0
DWIDTH 16 0
BBX 15 11 0 -3
BITMAP
F738
7BDC
739C
739C
739C
739C
739C
FBBE
0000
0180
0180
ENDCHAR
STARTCHAR uni1E44
ENCODING 7748
SWIDTH 833 0
DWIDTH 14 0
BBX 14 15 0 0
BITMAP
0600
0600
0000
F07C
3810
3C10
3E10
2F10
2790
23D0
21F0
20F0
2070
2030
F810
ENDCHAR
STARTCHAR uni1E45
ENCODING 7749
SWIDTH 685 0
DWIDTH 11 0
BBX 11 11 -1 0
BITMAP
0C00
0C00
0000
F780
79C0
71C0
71C0
71C0
71C0
71C0
FBE0
ENDCHAR
STARTCHAR uni1E46
ENCODING 7750
SWIDTH 833 0
DWIDTH 14 0
BBX 14 15 0 -3
BITMAP
F07C
3810
3C10
3E10
2F10
2790
23D0
21F0
20F0
2070
2030
F810
0000
0300
0300
ENDCHAR
STARTCHAR uni1E47
ENCODING 7751
SWIDTH 685 0
DWIDTH 11 0
BBX 11 11 -1 -3
BITMAP
F780
79C0
71C0
71C0
71C0
71C0
71C0
FBE0
0000
0600
0600
ENDCHAR
STARTCHAR uni1E48
ENCODING 7752
SWIDTH 833 0
DWIDTH 14 0
BBX 14 14 0 -2
BITMAP
F07C
3810
3C10
3E10
2F10
2790
23D0
21F0
20F0
2070
2030
F810
0000
0F80
ENDCHAR
STARTCHAR uni1E49
ENCODING 7753
SWIDTH 685 0
DWIDTH 11 0
BBX 11 10 -1 -2
BITMAP
F780
79C0
71C0
71C0
71C0
71C0
71C0
FBE0
0000
1F00
ENDCHAR
STARTCHAR uni1E4A
ENCODING 7754
SWIDTH 833 0
DWIDTH 14 0
BBX 14 16 0 -4
BITMAP
F07C
3810
3C10
3E10
2F10
2790
23D0
21F0
20F0
2070
2030
F810
0000
0200
0700
0D80
ENDCHAR
STARTCHAR uni1E4B
ENCODING 7755
SWIDTH 685 0
DWIDTH 11 0
BBX 11 12 -1 -4
BITMAP
F780
79C0
71C0
71C0
71C0
71C0
71C0
FBE0
0000
0400
0E00
1B00
ENDCHAR
STARTCHAR uni1E4C
ENCODING 7756
SWIDTH 833 0
DWIDTH 14 0
BBX 12 19 1 0
BITMAP
0180
0380
0600
0000
0E80
1700
0000
0F00
39C0
70E0
70E0
E070
E070
E070
E070
70E0
70E0
39C0
0F00
ENDCHAR
STARTCHAR uni1E4D
ENCODING 7757
SWIDTH 611 0
DWIDTH 11 0
BBX 10 15 0 0
BITMAP
0300
0700
0C00
0000
1D00
2E00
0000
3F00
7380
E1C0
E1C0
E1C0
E1C0
7380
3F00
ENDCHAR
STARTCHAR uni1E4E
ENCODING 7758
SWIDTH 833 0
DWIDTH 14 0
BBX 12 18 1 0
BITMAP
0D80
0D80
0000
0E80
1700
0000
0F00
39C0
70E0
70E0
E070
E070
E070
E070
70E0
70E0
39C0
0F00
ENDCHAR
STARTCHAR uni1E4F
ENCODING 7759
SWIDTH 611 0
DWIDTH 11 0
BBX 10 14 0 0
BITMAP
1B00
1B00
0000
1D00
2E00
0000
3F00
7380
E1C0
E1C0
E1C0
E1C0
7380
3F00
ENDCHAR
STARTCHAR uni1E50
ENCODING 7760
SWIDTH 833 0
DWIDTH 14 0
BBX 12 18 1 0
BITMAP
1800
1C00
0600
0000
0F80
0000
0F00
39C0
70E0
70E0
E070
E070
E070
E070
70E0
70E0
39C0
0F00
ENDCHAR
STARTCHAR uni1E51
ENCODING 7761
SWIDTH 611 0
DWIDTH 11 0
BBX 10 14 0 0
BITMAP
1800
1C00
0600
0000
1F00
0000
1E00
7380
E1C0
E1C0
E1C0
E1C0
7380
1E00
ENDCHAR
STARTCHAR uni1E52
ENCODING 7762
SWIDTH 833 0
DWIDTH 14 0
BBX 12 18 1 0
BITMAP
0180
0380
0600
0000
0F80
0000
0F00
39C0
70E0
70E0
E070
E070
E070
E070
70E0
70E0
39C0
0F00
ENDCHAR
STARTCHAR uni1E53
ENCODING 7763
SWIDTH 611 0
DWIDTH 11 0
BBX 10 14 0 0
BITMAP
0300
0700
0C00
0000
1F00
0000
1E00
7380
E1C0
E1C0
E1C0
E1C0
7380
1E00
ENDCHAR
STARTCHAR uni1E54
ENCODING 7764
SWIDTH 759 0
DWIDTH 13 0
BBX 12 16 0 0
BITMAP
0180
0380
0600
0000
FFC0
38E0
3870
3870
3870
38E0
3FC0
3800
3800
3800
3800
FE00
ENDCHAR
STARTCHAR uni1E55
ENCODING 7765
SWIDTH 667 0
DWIDTH 11 0
BBX 10 15 -1 -3
BITMAP
0300
0700
0C00
0000
F700
7B80
71C0
71C0
71C0
71C0
7B80
7700
7000
7000
F800
ENDCHAR
STARTCHAR uni1E56
ENCODING 7766
SWIDTH 759 0
DWIDTH 13 0
BBX 12 15 0 0
BITMAP
0600
0600
0000
FFC0
38E0
3870
3870
3870
38E0
3FC0
3800
3800
3800
3800
FE00
ENDCHAR
STARTCHAR uni1E57
ENCODING 7767
SWIDTH 667 0
DWIDTH 11 0
BBX 10 14 -1 -3
BITMAP
0C00
0C00
0000
F700
7B80
71C0
71C0
71C0
71C0
7B80
7700
7000
7000
F800
ENDCHAR
STARTCHAR uni1E58
ENCODING 7768
SWIDTH 815 0
DWIDTH 14 0
BBX 13 15 0 0
BITMAP
0600
0600
0000
FFC0
38E0
3870
3870
38E0
3FC0
3980
39C0
38E0
38E8
38F8
FC70
ENDCHAR
STARTCHAR uni1E59
ENCODING 7769
SWIDTH 519 0
DWIDTH 9 0
BBX 9 11 0 0
BITMAP
1800
1800
0000
F700
7B80
7300
7000
7000
7000
7000
F800
ENDCHAR
STARTCHAR uni1E5A
ENCODING 7770
SWIDTH 815 0
DWIDTH 14 0
BBX 13 15 0 -3
BITMAP
FFC0
38E0
3870
3870
38E0
3FC0
3980
39C0
38E0
38E8
38F8
FC70
0000
0300
0300
ENDCHAR
STARTCHAR uni1E5B
ENCODING 7771
SWIDTH 519 0
DWIDTH 9 0
BBX 9 11 0 -3
BITMAP
F700
7B80
7300
7000
7000
7000
7000
F800
0000
3000
3000
ENDCHAR
STARTCHAR uni1E5C
ENCODING 7772
SWIDTH 815 0
DWIDTH 14 0
BBX 13 17 0 -3
BITMAP
0F80
0000
FFC0
38E0
3870
3870
38E0
3FC0
3980
39C0
38E0
38E8
38F8
FC70
0000
0300
0300
ENDCHAR
STARTCHAR uni1E5D
ENCODING 7773
SWIDTH 519 0
DWIDTH 9 0
BBX 9 13 0 -3
BITMAP
3E00
0000
F700
7B80
7300
7000
7000
7000
7000
F800
0000
3000
3000
ENDCHAR
STARTCHAR uni1E5E
ENCODING 7774
SWIDTH 815 0
DWIDTH 14 0
BBX 13 14 0 -2
BITMAP
FFC0
38E0
3870
3870
38E0
3FC0
3980
39C0
38E0
38E8
38F8
FC70
0000
0F80
ENDCHAR
STARTCHAR uni1E5F
ENCODING 7775
SWIDTH 519 0
DWIDTH 9 0
BBX 9 10 0 -2
BITMAP
F700
7B80
7300
7000
7000
7000
7000
F800
0000
7C00
ENDCHAR
STARTCHAR uni1E60
ENCODING 7776
SWIDTH 667 0
DWIDTH 11 0
BBX 9 15 1 0
BITMAP
0C00
0C00
0000
3E80
4380
C180
C080
F880
7E00
3F00
8F80
8180
C180
E100
BE00
ENDCHAR
STARTCHAR uni1E61
ENCODING 7777
SWIDTH 500 0
DWIDTH 8 0
BBX 7 11 0 0
BITMAP
30
30
00
7A
C6
E2
FC
7E
8E
C6
BC
ENDCHAR
STARTCHAR uni1E62
ENCODING 7778
SWIDTH 667 0
DWIDTH 11 0
BBX 9 15 1 -3
BITMAP
3E80
4380
C180
C080
F880
7E00
3F00
8F80
8180
C180
E100
BE00
0000
1800
1800
ENDCHAR
STARTCHAR uni1E63
ENCODING 7779
SWIDTH 500 0
DWIDTH 8 0
BBX 7 11 0 -3
BITMAP
7A
C6
E2
FC
7E
8E
C6
BC
00
18
18
ENDCHAR
STARTCHAR uni1E64
ENCODING 7780
SWIDTH 667 0
DWIDTH 11 0
BBX 9 19 1 0
BITMAP
0C00
0C00
0000
0600
0E00
1800
0000
3E80
4380
C180
C080
F880
7E00
3F00
8F80
8180
C180
E100
BE00
ENDCHAR
STARTCHAR uni1E65
ENCODING 7781
SWIDTH 500 0
DWIDTH 8 0
BBX 7 15 0 0
BITMAP
18
18
00
0C
1C
30
00
7A
C6
E2
FC
7E
8E
C6
BC
ENDCHAR
STARTCHAR uni1E66
ENCODING 7782
SWIDTH 667 0
DWIDTH 11 0
BBX 9 16 1 0
BITMAP
0C00
0C00
0000
3600
1C00
0800
0000
3E80
4380
C180
F880
3E00
8F80
C180
E100
BE00
ENDCHAR
STARTCHAR uni1E67
ENCODING 7783
SWIDTH 500 0
DWIDTH 8 0
BBX 7 15 0 0
BITMAP
18
18
00
6C
38
10
00
7A
C6
E2
F8
3E
8E
C6
BC
ENDCHAR
STARTCHAR uni1E68
ENCODING 7784
SWIDTH 667 0
DWIDTH 11 0
BBX 9 18 1 -3
BITMAP
0C00
0C00
0000
3E80
4380
C180
C080
F880
7E00
3F00
8F80
8180
C180
E100
BE00
0000
1800
1800
ENDCHAR
STARTCHAR uni1E69
ENCODING 7785
SWIDTH 500 0
DWIDTH 8 0
BBX 7 14 0 -3
BITMAP
30
30
00
7A
C6
E2
FC
7E
8E
C6
BC
00
18
18
ENDCHAR
STARTCHAR uni1E6A
ENCODING 7786
SWIDTH 722 0
DWIDTH 12 0
BBX 11 15 0 0
BITMAP
0600
0600
0000
FFE0
CE60
8E20
8E20
0E00
0E00
0E00
0E00
0E00
0E00
0E00
3F80
ENDCHAR
STARTCHAR uni1E6B
ENCODING 7787
SWIDTH 426 0
DWIDTH 7 0
BBX 6 14 0 0
BITMAP
30
30
00
10
10
30
FC
70
70
70
70
74
7C
38
ENDCHAR
STARTCHAR uni1E6C
ENCODING 7788
SWIDTH 722 0
DWIDTH 12 0
BBX 11 15 0 -3
BITMAP
FFE0
CE60
8E20
8E20
0E00
0E00
0E00
0E00
0E00
0E00
0E00
3F80
0000
0600
0600
ENDCHAR
STARTCHAR uni1E6D
ENCODING 7789
SWIDTH 426 0
DWIDTH 7 0
BBX 6 14 0 -3
BITMAP
10
10
30
FC
70
70
70
70
74
7C
38
00
30
30
ENDCHAR
STARTCHAR uni1E6E
ENCODING 7790
SWIDTH 722 0
DWIDTH 12 0
BBX 11 14 0 -2
BITMAP
FFE0
CE60
8E20
8E20
0E00
0E00
0E00
0E00
0E00
0E00
0E00
3F80
0000
1F00
ENDCHAR
STARTCHAR uni1E6F
ENCODING 7791
SWIDTH 426 0
DWIDTH 7 0
BBX 6 13 0 -2
BITMAP
10
10
30
FC
70
70
70
70
74
7C
38
00
7C
ENDCHAR
STARTCHAR uni1E70
ENCODING 7792
SWIDTH 722 0
DWIDTH 12 0
BBX 11 16 0 -4
BITMAP
FFE0
CE60
8E20
8E20
0E00
0E00
0E00
0E00
0E00
0E00
0E00
3F80
0000
0400
0E00
1B00
ENDCHAR
STARTCHAR uni1E71
ENCODING 7793
SWIDTH 426 0
DWIDTH 7 0
BBX 6 15 0 -4
BITMAP
10
10
30
FC
70
70
70
70
74
7C
38
00
10
38
6C
ENDCHAR
STARTCHAR uni1E72
ENCODING 7794
SWIDTH 833 0
DWIDTH 14 0
BBX 14 15 0 -3
BITMAP
FE7C
3810
3810
3810
3810
3810
3810
3810
3810
1C20
1E60
0780
0000
0D80
0D80
ENDCHAR
STARTCHAR uni1E73
ENCODING 7795
SWIDTH 685 0
DWIDTH 11 0
BBX 11 11 -1 -3
BITMAP
F3C0
71C0
71C0
71C0
71C0
71C0
7BC0
3EE0
0000
1B00
1B00
ENDCHAR
STARTCHAR uni1E74
ENCODING 7796
SWIDTH 833 0
DWIDTH 14 0
BBX 14 15 0 -3
BITMAP
FE7C
3810
3810
3810
3810
3810
3810
3810
3810
1C20
1E60
0780
0000
0E80
1700
ENDCHAR
STARTCHAR uni1E75
ENCODING 7797
SWIDTH 685 0
DWIDTH 11 0
BBX 11 11 -1 -3
BITMAP
F3C0
71C0
71C0
71C0
71C0
71C0
7BC0
3EE0
0000
0E80
1700
ENDCHAR
STARTCHAR uni1E76
ENCODING 7798
SWIDTH 833 0
DWIDTH 14 0
BBX 14 16 0 -4
BITMAP
FE7C
3810
3810
3810
3810
3810
3810
3810
3810
1C20
1E60
0780
0000
0200
0700
0D80
ENDCHAR
STARTCHAR uni1E77
ENCODING 7799
SWIDTH 685 0
DWIDTH 11 0
BBX 11 12 -1 -4
BITMAP
F3C0
71C0
71C0
71C0
71C0
71C0
7BC0
3EE0
0000
0400
0E00
1B00
ENDCHAR
STARTCHAR uni1E78
ENCODING 7800
SWIDTH 833 0
DWIDTH 14 0
BBX 14 19 0 0
BITMAP
00C0
01C0
0300
0000
0740
0B80
0000
FE7C
3810
3810
3810
3810
3810
3810
3810
3810
1C20
1E60
0780
ENDCHAR
STARTCHAR uni1E79
ENCODING 7801
SWIDTH 685 0
DWIDTH 11 0
BBX 11 15 -1 0
BITMAP
0180
0380
0600
0000
0E80
1700
0000
F3C0
71C0
71C0
71C0
71C0
71C0
7BC0
3EE0
ENDCHAR
STARTCHAR uni1E7A
ENCODING 7802
SWIDTH 833 0
DWIDTH 14 0
BBX 14 17 0 0
BITMAP
0D80
0D80
0000
0F80
0000
FE7C
3810
3810
3810
3810
3810
3810
3810
3810
1C20
1E60
0780
ENDCHAR
STARTCHAR uni1E7B
ENCODING 7803
SWIDTH 685 0
DWIDTH 11 0
BBX 11 13 -1 0
BITMAP
1B00
1B00
0000
1F00
0000
F3C0
71C0
71C0
71C0
71C0
71C0
7BC0
3EE0
ENDCHAR
STARTCHAR uni1E7C
ENCODING 7804
SWIDTH 759 0
DWIDTH 13 0
BBX 13 15 -1 0
BITMAP
0E80
1700
0000
FE78
3830
3C20
1C20
1C40
0E40
0E80
0F80
0780
0700
0300
0300
ENDCHAR
STARTCHAR uni1E7D
ENCODING 7805
SWIDTH 611 0
DWIDTH 10 0
BBX 10 11 0 0
BITMAP
1D00
2E00
0000
FBC0
7180
7300
3B00
3A00
1E00
1C00
0C00
ENDCHAR
STARTCHAR uni1E7E
ENCODING 7806
SWIDTH 759 0
DWIDTH 13 0
BBX 13 15 -1 -3
BITMAP
FE78
3830
3C20
1C20
1C40
0E40
0E80
0F80
0780
0700
0300
0300
0000
0300
0300
ENDCHAR
STARTCHAR uni1E7F
ENCODING 7807
SWIDTH 611 0
DWIDTH 10 0
BBX 10 11 0 -3
BITMAP
FBC0
7180
7300
3B00
3A00
1E00
1C00
0C00
0000
0C00
0C00
ENDCHAR
STARTCHAR Wgrave
ENCODING 7808
SWIDTH 981 0
DWIDTH 16 0
BBX 15 16 0 0
BITMAP
0600
0700
0180
0000
FBDE
718C
3188
39C8
39D8
3BD0
1AD0
1EF0
1CE0
0C60
0C60
0C60
ENDCHAR
STARTCHAR wgrave
ENCODING 7809
SWIDTH 889 0
DWIDTH 15 0
BBX 15 12 0 0
BITMAP
0600
0700
0180
0000
FBDE
718C
39C8
3BD8
1EF0
1EF0
0C60
0C60
ENDCHAR
STARTCHAR Wacute
ENCODING 7810
SWIDTH 981 0
DWIDTH 16 0
BBX 15 16 0 0
BITMAP
00C0
01C0
0300
0000
FBDE
718C
3188
39C8
39D8
3BD0
1AD0
1EF0
1CE0
0C60
0C60
0C60
ENDCHAR
STARTCHAR wacute
ENCODING 7811
SWIDTH 889 0
DWIDTH 15 0
BBX 15 12 0 0
BITMAP
00C0
01C0
0300
0000
FBDE
718C
39C8
3BD8
1EF0
1EF0
0C60
0C60
ENDCHAR
STARTCHAR Wdieresis
ENCODING 7812
SWIDTH 981 0
DWIDTH 16 0
BBX 15 15 0 0
BITMAP
06C0
06C0
0000
FBDE
718C
3188
39C8
39D8
3BD0
1AD0
1EF0
1CE0
0C60
0C60
0C60
ENDCHAR
STARTCHAR wdieresis
ENCODING 7813
SWIDTH 889 0
DWIDTH 15 0
BBX 15 11 0 0
BITMAP
06C0
06C0
0000
FBDE
718C
39C8
3BD8
1EF0
1EF0
0C60
0C60
ENDCHAR
STARTCHAR uni1E86
ENCODING 7814
SWIDTH 981 0
DWIDTH 16 0
BBX 15 15 0 0
BITMAP
0300
0300
0000
FBDE
718C
3188
39C8
39D8
3BD0
1AD0
1EF0
1CE0
0C60
0C60
0C60
ENDCHAR
STARTCHAR uni1E87
ENCODING 7815
SWIDTH 889 0
DWIDTH 15 0
BBX 15 11 0 0
BITMAP
0300
0300
0000
FBDE
718C
39C8
3BD8
1EF0
1EF0
0C60
0C60
ENDCHAR
STARTCHAR uni1E88
ENCODING 7816
SWIDTH 981 0
DWIDTH 16 0
BBX 15 15 0 -3
BITMAP
FBDE
718C
3188
39C8
39D8
3BD0
1AD0
1EF0
1CE0
0C60
0C60
0C60
0000
0300
0300
ENDCHAR
STARTCHAR uni1E89
ENCODING 7817
SWIDTH 889 0
DWIDTH 15 0
BBX 15 11 0 -3
BITMAP
FBDE
718C
39C8
3BD8
1EF0
1EF0
0C60
0C60
0000
0180
0180
ENDCHAR
STARTCHAR uni1E8A
ENCODING 7818
SWIDTH 722 0
DWIDTH 12 0
BBX 12 15 0 0
BITMAP
0600
0600
0000
F9F0
7060
3840
1C80
1F00
0F00
0F00
0F80
13C0
21C0
60E0
F9F0
ENDCHAR
STARTCHAR uni1E8B
ENCODING 7819
SWIDTH 611 0
DWIDTH 10 0
BBX 9 11 0 0
BITMAP
1800
1800
0000
FB80
7100
3E00
1C00
1C00
3E00
4700
EF80
ENDCHAR
STARTCHAR uni1E8C
ENCODING 7820
SWIDTH 722 0
DWIDTH 12 0
BBX 12 15 0 0
BITMAP
1B00
1B00
0000
F9F0
7060
3840
1C80
1F00
0F00
0F00
0F80
13C0
21C0
60E0
F9F0
ENDCHAR
STARTCHAR uni1E8D
ENCODING 7821
SWIDTH 611 0
DWIDTH 10 0
BBX 9 11 0 0
BITMAP
3600
3600
0000
FB80
7100
3E00
1C00
1C00
3E00
4700
EF80
ENDCHAR
STARTCHAR uni1E8E
ENCODING 7822
SWIDTH 722 0
DWIDTH 12 0
BBX 13 15 -1 0
BITMAP
0600
0600
0000
FEF8
3860
1C40
1C80
0E80
0F00
0700
0700
0700
0700
0700
1FC0
ENDCHAR
STARTCHAR uni1E8F
ENCODING 7823
SWIDTH 611 0
DWIDTH 10 0
BBX 10 14 -1 -3
BITMAP
0C00
0C00
0000
FBC0
7180
3980
3900
1F00
0E00
0E00
0600
3400
7400
3800
ENDCHAR
STARTCHAR uni1E90
ENCODING 7824
SWIDTH 667 0
DWIDTH 11 0
BBX 9 16 1 0
BITMAP
0800
1C00
3600
0000
FF80
C380
8700
8700
0E00
1C00
1C00
3880
7080
7180
E380
FF80
ENDCHAR
STARTCHAR uni1E91
ENCODING 7825
SWIDTH 537 0
DWIDTH 9 0
BBX 7 12 0 0
BITMAP
10
38
6C
00
FE
CC
9C
38
30
72
E6
FE
ENDCHAR
STARTCHAR uni1E92
ENCODING 7826
SWIDTH 667 0
DWIDTH 11 0
BBX 9 15 1 -3
BITMAP
FF80
C380
8700
8700
0E00
1C00
1C00
3880
7080
7180
E380
FF80
0000
1800
1800
ENDCHAR
STARTCHAR uni1E93
ENCODING 7827
SWIDTH 537 0
DWIDTH 9 0
BBX 7 11 0 -3
BITMAP
FE
CC
9C
38
30
72
E6
FE
00
30
30
ENDCHAR
STARTCHAR uni1E94
ENCODING 7828
SWIDTH 667 0
DWIDTH 11 0
BBX 9 14 1 -2
BITMAP
FF80
C380
8700
8700
0E00
1C00
1C00
3880
7080
7180
E380
FF80
0000
3E00
ENDCHAR
STARTCHAR uni1E95
ENCODING 7829
SWIDTH 537 0
DWIDTH 9 0
BBX 7 10 0 -2
BITMAP
FE
CC
9C
38
30
72
E6
FE
00
7C
ENDCHAR
STARTCHAR uni1E96
ENCODING 7830
SWIDTH 685 0
DWIDTH 11 0
BBX 11 14 -1 -2
BITMAP
F000
7000
7000
7000
7780
79C0
79C0
71C0
71C0
71C0
71C0
FBE0
0000
1F00
ENDCHAR
STARTCHAR uni1E97
ENCODING 7831
SWIDTH 426 0
DWIDTH 7 0
BBX 6 14 0 0
BITMAP
6C
6C
00
10
10
30
FC
70
70
70
70
74
7C
38
ENDCHAR
STARTCHAR uni1E98
ENCODING 7832
SWIDTH 889 0
DWIDTH 15 0
BBX 15 13 0 0
BITMAP
0300
0480
0480
0300
0000
FBDE
718C
39C8
3BD8
1EF0
1EF0
0C60
0C60
ENDCHAR
STARTCHAR uni1E99
ENCODING 7833
SWIDTH 611 0
DWIDTH 10 0
BBX 10 16 -1 -3
BITMAP
0C00
1200
1200
0C00
0000
FBC0
7180
3980
3900
1F00
0E00
0E00
0600
3400
7400
3800
ENDCHAR
STARTCHAR uni1EA0
ENCODING 7840
SWIDTH 759 0
DWIDTH 13 0
BBX 13 15 0 -3
BITMAP
0600
0700
0700
0F00
0B80
1B80
11C0
3FC0
31C0
20E0
60E0
F1F8
0000
0300
0300
ENDCHAR
STARTCHAR uni1EA1
ENCODING 7841
SWIDTH 611 0
DWIDTH 10 0
BBX 9 11 0 -3
BITMAP
7E00
E700
C700
1F00
6700
E700
EF00
7780
0000
1800
1800
ENDCHAR
STARTCHAR uni1EA4
ENCODING 7844
SWIDTH 759 0
DWIDTH 13 0
BBX 13 20 0 0
BITMAP
0180
0380
0600
0000
0200
0700
0D80
0000
0600
0700
0700
0F00
0B80
1B80
11C0
3FC0
31C0
20E0
60E0
F1F8
ENDCHAR
STARTCHAR uni1EA5
ENCODING 7845
SWIDTH 611 0
DWIDTH 10 0
BBX 9 16 0 0
BITMAP
0600
0E00
1800
0000
1000
3800
6C00
0000
7E00
E700
C700
1F00
6700
E700
EF00
7780
ENDCHAR
STARTCHAR uni1EA6
ENCODING 7846
SWIDTH 759 0
DWIDTH 13 0
BBX 13 20 0 0
BITMAP
0C00
0E00
0300
0000
0200
0700
0D80
0000
0600
0700
0700
0F00
0B80
1B80
11C0
3FC0
31C0
20E0
60E0
F1F8
ENDCHAR
STARTCHAR uni1EA7
ENCODING 7847
SWIDTH 611 0
DWIDTH 10 0
BBX 9 16 0 0
BITMAP
6000
7000
1800
0000
1000
3800
6C00
0000
7E00
E700
C700
1F00
6700
E700
EF00
7780
ENDCHAR
STARTCHAR uni1EAA
ENCODING 7850
SWIDTH 759 0
DWIDTH 13 0
BBX 13 19 0 0
BITMAP
0740
0B80
0000
0200
0700
0D80
0000
0600
0700
0700
0F00
0B80
1B80
11C0
3FC0
31C0
20E0
60E0
F1F8
ENDCHAR
STARTCHAR uni1EAB
ENCODING 7851
SWIDTH 611 0
DWIDTH 10 0
BBX 9 15 0 0
BITMAP
3A00
5C00
0000
1000
3800
6C00
0000
7E00
E700
C700
1F00
6700
E700
EF00
7780
ENDCHAR
STARTCHAR uni1EAC
ENCODING 7852
SWIDTH 759 0
DWIDTH 13 0
BBX 13 19 0 -3
BITMAP
0200
0700
0D80
0000
0600
0700
0700
0F00
0B80
1B80
11C0
3FC0
31C0
20E0
60E0
F1F8
0000
0300
0300
ENDCHAR
STARTCHAR uni1EAD
ENCODING 7853
SWIDTH 611 0
DWIDTH 10 0
BBX 9 15 0 -3
BITMAP
0800
1C00
3600
0000
7E00
E700
C700
1F00
6700
E700
EF00
7780
0000
1800
1800
ENDCHAR
STARTCHAR uni1EAE
ENCODING 7854
SWIDTH 759 0
DWIDTH 13 0
BBX 13 20 0 0
BITMAP
0180
0380
0600
0000
0880
0880
0700
0000
0600
0700
0700
0F00
0B80
1B80
11C0
3FC0
31C0
20E0
60E0
F1F8
ENDCHAR
STARTCHAR uni1EAF
ENCODING 7855
SWIDTH 611 0
DWIDTH 10 0
BBX 9 16 0 0
BITMAP
0600
0E00
1800
0000
2200
2200
1C00
0000
7E00
E700
C700
1F00
6700
E700
EF00
7780
ENDCHAR
STARTCHAR uni1EB0
ENCODING 7856
SWIDTH 759 0
DWIDTH 13 0
BBX 13 20 0 0
BITMAP
0C00
0E00
0300
0000
0880
0880
0700
0000
0600
0700
0700
0F00
0B80
1B80
11C0
3FC0
31C0
20E0
60E0
F1F8
ENDCHAR
STARTCHAR uni1EB1
ENCODING 7857
SWIDTH 611 0
DWIDTH 10 0
BBX 9 16 0 0
BITMAP
3000
3800
0C00
0000
2200
2200
1C00
0000
7E00
E700
C700
1F00
6700
E700
EF00
7780
ENDCHAR
STARTCHAR uni1EB4
ENCODING 7860
SWIDTH 759 0
DWIDTH 13 0
BBX 13 19 0 0
BITMAP
0740
0B80
0000
0880
0880
0700
0000
0600
0700
0700
0F00
0B80
1B80
11C0
3FC0
31C0
20E0
60E0
F1F8
ENDCHAR
STARTCHAR uni1EB5
ENCODING 7861
SWIDTH 611 0
DWIDTH 10 0
BBX 9 15 0 0
BITMAP
1D00
2E00
0000
2200
2200
1C00
0000
7E00
E700
C700
1F00
6700
E700
EF00
7780
ENDCHAR
STARTCHAR uni1EB6
ENCODING 7862
SWIDTH 759 0
DWIDTH 13 0
BBX 13 19 0 -3
BITMAP
0880
0880
0700
0000
0600
0700
0700
0F00
0B80
1B80
11C0
3FC0
31C0
20E0
60E0
F1F8
0000
0300
0300
ENDCHAR
STARTCHAR uni1EB7
ENCODING 7863
SWIDTH 611 0
DWIDTH 10 0
BBX 9 15 0 -3
BITMAP
2200
2200
1C00
0000
7E00
E700
C700
1F00
6700
E700
EF00
7780
0000
1800
1800
ENDCHAR
STARTCHAR uni1EB8
ENCODING 7864
SWIDTH 759 0
DWIDTH 12 0
BBX 11 15 0 -3
BITMAP
FFE0
3860
3860
3920
3B00
3F00
3B00
3920
3820
3860
3860
FFE0
0000
0600
0600
ENDCHAR
STARTCHAR uni1EB9
ENCODING 7865
SWIDTH 574 0
DWIDTH 10 0
BBX 9 11 0 -3
BITMAP
3E00
7700
E380
FF80
E000
E180
7300
3E00
0000
1800
1800
ENDCHAR
STARTCHAR uni1EBC
ENCODING 7868
SWIDTH 759 0
DWIDTH 12 0
BBX 11 15 0 0
BITMAP
0E80
1700
0000
FFE0
3860
3860
3920
3B00
3F00
3B00
3920
3820
3860
3860
FFE0
ENDCHAR
STARTCHAR uni1EBD
ENCODING 7869
SWIDTH 574 0
DWIDTH 10 0
BBX 9 11 0 0
BITMAP
1D00
2E00
0000
3E00
7700
E380
FF80
E000
E180
7300
3E00
ENDCHAR
STARTCHAR uni1EBE
ENCODING 7870
SWIDTH 759 0
DWIDTH 12 0
BBX 11 20 0 0
BITMAP
0300
0700
0C00
0000
0200
0700
0D80
0000
FFE0
3860
3860
3920
3B00
3F00
3B00
3920
3820
3860
3860
FFE0
ENDCHAR
STARTCHAR uni1EBF
ENCODING 7871
SWIDTH 574 0
DWIDTH 10 0
BBX 9 16 0 0
BITMAP
0600
0E00
1800
0000
0800
1C00
3600
0000
3E00
7700
E380
FF80
E000
E180
7300
3E00
ENDCHAR
STARTCHAR uni1EC0
ENCODING 7872
SWIDTH 759 0
DWIDTH 12 0
BBX 11 20 0 0
BITMAP
1800
1C00
0600
0000
0200
0700
0D80
0000
FFE0
3860
3860
3920
3B00
3F00
3B00
3920
3820
3860
3860
FFE0
ENDCHAR
STARTCHAR uni1EC1
ENCODING 7873
SWIDTH 574 0
DWIDTH 10 0
BBX 9 16 0 0
BITMAP
3000
3800
0C00
0000
0800
1C00
3600
0000
3E00
7700
E380
FF80
E000
E180
7300
3E00
ENDCHAR
STARTCHAR uni1EC4
ENCODING 7876
SWIDTH 759 0
DWIDTH 12 0
BBX 11 19 0 0
BITMAP
0E80
1700
0000
0200
0700
0D80
0000
FFE0
3860
3860
3920
3B00
3F00
3B00
3920
3820
3860
3860
FFE0
ENDCHAR
STARTCHAR uni1EC5
ENCODING 7877
SWIDTH 574 0
DWIDTH 10 0
BBX 9 15 0 0
BITMAP
1D00
2E00
0000
0800
1C00
3600
0000
3E00
7700
E380
FF80
E000
E180
7300
3E00
ENDCHAR
STARTCHAR uni1EC6
ENCODING 7878
SWIDTH 759 0
DWIDTH 12 0
BBX 11 19 0 -3
BITMAP
0400
0E00
1B00
0000
FFE0
3860
3860
3920
3B00
3F00
3B00
3920
3820
3860
3860
FFE0
0000
0600
0600
ENDCHAR
STARTCHAR uni1EC7
ENCODING 7879
SWIDTH 574 0
DWIDTH 10 0
BBX 9 15 0 -3
BITMAP
0800
1C00
3600
0000
3E00
7700
E380
FF80
E000
E180
7300
3E00
0000
1800
1800
ENDCHAR
STARTCHAR uni1ECA
ENCODING 7882
SWIDTH 444 0
DWIDTH 7 0
BBX 7 15 0 -3
BITMAP
FE
38
38
38
38
38
38
38
38
38
38
FE
00
18
18
ENDCHAR
STARTCHAR uni1ECB
ENCODING 7883
SWIDTH 370 0
DWIDTH 6 0
BBX 5 15 0 -3
BITMAP
60
F0
60
00
F0
70
70
70
70
70
70
F8
00
30
30
ENDCHAR
STARTCHAR uni1ECC
ENCODING 7884
SWIDTH 833 0
DWIDTH 14 0
BBX 12 15 1 -3
BITMAP
0F00
39C0
70E0
70E0
E070
E070
E070
E070
70E0
70E0
39C0
0F00
0000
0600
0600
ENDCHAR
STARTCHAR uni1ECD
ENCODING 7885
SWIDTH 611 0
DWIDTH 11 0
BBX 10 11 0 -3
BITMAP
1E00
7380
E1C0
E1C0
E1C0
E1C0
7380
1E00
0000
0C00
0C00
ENDCHAR
STARTCHAR uni1ED0
ENCODING 7888
SWIDTH 833 0
DWIDTH 14 0
BBX 12 20 1 0
BITMAP
0180
0380
0600
0000
0600
0F00
1980
0000
0F00
39C0
70E0
70E0
E070
E070
E070
E070
70E0
70E0
39C0
0F00
ENDCHAR
STARTCHAR uni1ED1
ENCODING 7889
SWIDTH 611 0
DWIDTH 11 0
BBX 10 16 0 0
BITMAP
0300
0700
0C00
0000
0C00
1E00
3300
0000
3F00
7380
E1C0
E1C0
E1C0
E1C0
7380
3F00
ENDCHAR
STARTCHAR uni1ED2
ENCODING 7890
SWIDTH 833 0
DWIDTH 14 0
BBX 12 20 1 0
BITMAP
1800
1C00
0600
0000
0600
0F00
1980
0000
0F00
39C0
70E0
70E0
E070
E070
E070
E070
70E0
70E0
39C0
0F00
ENDCHAR
STARTCHAR uni1ED3
ENCODING 7891
SWIDTH 611 0
DWIDTH 11 0
BBX 10 16 0 0
BITMAP
3000
3800
0C00
0000
0C00
1E00
3300
0000
3F00
7380
E1C0
E1C0
E1C0
E1C0
7380
3F00
ENDCHAR
STARTCHAR uni1ED6
ENCODING 7894
SWIDTH 833 0
DWIDTH 14 0
BBX 12 19 1 0
BITMAP
0E80
1700
0000
0600
0F00
1980
0000
0F00
39C0
70E0
70E0
E070
E070
E070
E070
70E0
70E0
39C0
0F00
ENDCHAR
STARTCHAR uni1ED7
ENCODING 7895
SWIDTH 611 0
DWIDTH 11 0
BBX 10 15 0 0
BITMAP
1D00
2E00
0000
0C00
1E00
3300
0000
3F00
7380
E1C0
E1C0
E1C0
E1C0
7380
3F00
ENDCHAR
STARTCHAR uni1ED8
ENCODING 7896
SWIDTH 833 0
DWIDTH 14 0
BBX 12 19 1 -3
BITMAP
0200
0700
0D80
0000
0F00
39C0
70E0
70E0
E070
E070
E070
E070
70E0
70E0
39C0
0F00
0000
0600
0600
ENDCHAR
STARTCHAR uni1ED9
ENCODING 7897
SWIDTH 611 0
DWIDTH 11 0
BBX 10 15 0 -3
BITMAP
0400
0E00
1B00
0000
1E00
7380
E1C0
E1C0
E1C0
E1C0
7380
1E00
0000
0C00
0C00
ENDCHAR
STARTCHAR uni1EDA
ENCODING 7898
SWIDTH 833 0
DWIDTH 14 0
BBX 15 16 1 0
BITMAP
0060
00E0
0180
0000
0F0C
39DE
70EE
70E4
E07C
E070
E070
E070
70E0
70E0
39C0
0F00
ENDCHAR
STARTCHAR uni1EDB
ENCODING 7899
SWIDTH 611 0
DWIDTH 11 0
BBX 13 12 0 0
BITMAP
00C0
01C0
0300
0000
1E30
73F8
E1F8
E1D0
E1F0
E1C0
7380
1E00
ENDCHAR
STARTCHAR uni1EDC
ENCODING 7900
SWIDTH 833 0
DWIDTH 14 0
BBX 15 16 1 0
BITMAP
0600
0700
0180
0000
0F0C
39DE
70EE
70E4
E07C
E070
E070
E070
70E0
70E0
39C0
0F00
ENDCHAR
STARTCHAR uni1EDD
ENCODING 7901
SWIDTH 611 0
DWIDTH 11 0
BBX 13 12 0 0
BITMAP
0C00
0E00
0300
0000
1E30
73F8
E1F8
E1D0
E1F0
E1C0
7380
1E00
ENDCHAR
STARTCHAR uni1EE0
ENCODING 7904
SWIDTH 833 0
DWIDTH 14 0
BBX 15 15 1 0
BITMAP
03A0
05C0
0000
0F0C
39DE
70EE
70E4
E07C
E070
E070
E070
70E0
70E0
39C0
0F00
ENDCHAR
STARTCHAR uni1EE1
ENCODING 7905
SWIDTH 611 0
DWIDTH 11 0
BBX 13 11 0 0
BITMAP
0740
0B80
0000
1E30
73F8
E1F8
E1D0
E1F0
E1C0
7380
1E00
ENDCHAR
STARTCHAR uni1EE2
ENCODING 7906
SWIDTH 833 0
DWIDTH 14 0
BBX 15 15 1 -3
BITMAP
0F0C
39DE
70EE
70E4
E07C
E070
E070
E070
70E0
70E0
39C0
0F00
0000
0300
0300
ENDCHAR
STARTCHAR uni1EE3
ENCODING 7907
SWIDTH 611 0
DWIDTH 11 0
BBX 13 11 0 -3
BITMAP
1E30
73F8
E1F8
E1D0
E1F0
E1C0
7380
1E00
0000
0600
0600
ENDCHAR
STARTCHAR uni1EE4
ENCODING 7908
SWIDTH 833 0
DWIDTH 14 0
BBX 14 15 0 -3
BITMAP
FE7C
3810
3810
3810
3810
3810
3810
3810
3810
1C20
1E60
0780
0000
0300
0300
ENDCHAR
STARTCHAR uni1EE5
ENCODING 7909
SWIDTH 685 0
DWIDTH 11 0
BBX 11 11 -1 -3
BITMAP
F3C0
71C0
71C0
71C0
71C0
71C0
7BC0
3EE0
0000
0600
0600
ENDCHAR
STARTCHAR uni1EE8
ENCODING 7912
SWIDTH 833 0
DWIDTH 14 0
BBX 17 16 0 0
BITMAP
006000
00E000
018000
000000
FE7F00
381780
381380
381100
381300
381400
381000
381000
381000
1C2000
1E6000
078000
ENDCHAR
STARTCHAR uni1EE9
ENCODING 7913
SWIDTH 685 0
DWIDTH 11 0
BBX 14 12 -1 0
BITMAP
00C0
01C0
0300
0000
F3D8
71FC
71DC
71C8
71D8
71E0
7BC0
3EE0
ENDCHAR
STARTCHAR uni1EEA
ENCODING 7914
SWIDTH 833 0
DWIDTH 14 0
BBX 17 16 0 0
BITMAP
030000
038000
00C000
000000
FE7F00
381780
381380
381100
381300
381400
381000
381000
381000
1C2000
1E6000
078000
ENDCHAR
STARTCHAR uni1EEB
ENCODING 7915
SWIDTH 685 0
DWIDTH 11 0
BBX 14 12 -1 0
BITMAP
0600
0700
0180
0000
F3D8
71FC
71DC
71C8
71D8
71E0
7BC0
3EE0
ENDCHAR
STARTCHAR uni1EEE
ENCODING 7918
SWIDTH 833 0
DWIDTH 14 0
BBX 17 15 0 0
BITMAP
01D000
02E000
000000
FE7F00
381780
381380
381100
381300
381400
381000
381000
381000
1C2000
1E6000
078000
ENDCHAR
STARTCHAR uni1EEF
ENCODING 7919
SWIDTH 685 0
DWIDTH 11 0
BBX 14 11 -1 0
BITMAP
0740
0B80
0000
F3D8
71FC
71DC
71C8
71D8
71E0
7BC0
3EE0
ENDCHAR
STARTCHAR uni1EF0
ENCODING 7920
SWIDTH 833 0
DWIDTH 14 0
BBX 17 15 0 -3
BITMAP
FE7F00
381780
381380
381100
381300
381400
381000
381000
381000
1C2000
1E6000
078000
000000
030000
030000
ENDCHAR
STARTCHAR uni1EF1
ENCODING 7921
SWIDTH 685 0
DWIDTH 11 0
BBX 14 11 -1 -3
BITMAP
F3D8
71FC
71DC
71C8
71D8
71E0
7BC0
3EE0
0000
0600
0600
ENDCHAR
STARTCHAR Ygrave
ENCODING 7922
SWIDTH 722 0
DWIDTH 12 0
BBX 13 16 -1 0
BITMAP
0C00
0E00
0300
0000
FEF8
3860
1C40
1C80
0E80
0F00
0700
0700
0700
0700
0700
1FC0
ENDCHAR
STARTCHAR ygrave
ENCODING 7923
SWIDTH 611 0
DWIDTH 10 0
BBX 10 15 -1 -3
BITMAP
3000
3800
0C00
0000
FBC0
7180
3980
3900
1F00
0E00
0E00
0600
3400
7400
3800
ENDCHAR
STARTCHAR uni1EF4
ENCODING 7924
SWIDTH 722 0
DWIDTH 12 0
BBX 13 15 -1 -3
BITMAP
FEF8
3860
1C40
1C80
0E80
0F00
0700
0700
0700
0700
0700
1FC0
0000
0300
0300
ENDCHAR
STARTCHAR uni1EF5
ENCODING 7925
SWIDTH 611 0
DWIDTH 10 0
BBX 10 14 -1 -6
BITMAP
FBC0
7180
3980
3900
1F00
0E00
0E00
0600
3400
7400
3800
0000
1800
1800
ENDCHAR
STARTCHAR uni1EF8
ENCODING 7928
SWIDTH 722 0
DWIDTH 12 0
BBX 13 15 -1 0
BITMAP
0E80
1700
0000
FEF8
3860
1C40
1C80
0E80
0F00
0700
0700
0700
0700
0700
1FC0
ENDCHAR
STARTCHAR uni1EF9
ENCODING 7929
SWIDTH 611 0
DWIDTH 10 0
BBX 10 14 -1 -3
BITMAP
1D00
2E00
0000
FBC0
7180
3980
3900
1F00
0E00
0E00
0600
3400
7400
3800
ENDCHAR
STARTCHAR uni2000
ENCODING 8192
SWIDTH 500 0
DWIDTH 8 0
BBX 1 1 0 0
BITMAP
00
ENDCHAR
STARTCHAR uni2001
ENCODING 8193
SWIDTH 1000 0
DWIDTH 17 0
BBX 1 1 0 0
BITMAP
00
ENDCHAR
STARTCHAR uni2002
ENCODING 8194
SWIDTH 500 0
DWIDTH 8 0
BBX 1 1 0 0
BITMAP
00
ENDCHAR
STARTCHAR uni2003
ENCODING 8195
SWIDTH 1000 0
DWIDTH 17 0
BBX 1 1 0 0
BITMAP
00
ENDCHAR
STARTCHAR uni2004
ENCODING 8196
SWIDTH 333 0
DWIDTH 6 0
BBX 1 1 0 0
BITMAP
00
ENDCHAR
STARTCHAR uni2005
ENCODING 8197
SWIDTH 250 0
DWIDTH 4 0
BBX 1 1 0 0
BITMAP
00
ENDCHAR
STARTCHAR uni2006
ENCODING 8198
SWIDTH 167 0
DWIDTH 3 0
BBX 1 1 0 0
BITMAP
00
ENDCHAR
STARTCHAR uni2007
ENCODING 8199
SWIDTH 574 0
DWIDTH 10 0
BBX 1 1 0 0
BITMAP
00
ENDCHAR
STARTCHAR uni2008
ENCODING 8200
SWIDTH 278 0
DWIDTH 5 0
BBX 1 1 0 0
BITMAP
00
ENDCHAR
STARTCHAR uni2009
ENCODING 8201
SWIDTH 200 0
DWIDTH 3 0
BBX 1 1 0 0
BITMAP
00
ENDCHAR
STARTCHAR uni200A
ENCODING 8202
SWIDTH 100 0
DWIDTH 2 0
BBX 1 1 0 0
BITMAP
00
ENDCHAR
STARTCHAR uni200B
ENCODING 8203
SWIDTH 0 0
DWIDTH 0 0
BBX 1 1 0 0
BITMAP
00
ENDCHAR
STARTCHAR uni2010
ENCODING 8208
SWIDTH 333 0
DWIDTH 5 0
BBX 4 2 0 3
BITMAP
F0
F0
ENDCHAR
STARTCHAR uni2011
ENCODING 8209
SWIDTH 333 0
DWIDTH 5 0
BBX 4 2 0 3
BITMAP
F0
F0
ENDCHAR
STARTCHAR figuredash
ENCODING 8210
SWIDTH 500 0
DWIDTH 8 0
BBX 8 2 0 3
BITMAP
FF
FF
ENDCHAR
STARTCHAR endash
ENCODING 8211
SWIDTH 500 0
DWIDTH 8 0
BBX 8 2 0 3
BITMAP
FF
FF
ENDCHAR
STARTCHAR emdash
ENCODING 8212
SWIDTH 1000 0
DWIDTH 16 0
BBX 16 2 0 3
BITMAP
FFFF
FFFF
ENDCHAR
STARTCHAR afii00208
ENCODING 8213
SWIDTH 1000 0
DWIDTH 16 0
BBX 16 2 0 3
BITMAP
FFFF
FFFF
ENDCHAR
STARTCHAR quoteleft
ENCODING 8216
SWIDTH 241 0
DWIDTH 4 0
BBX 4 6 0 6
BITMAP
10
60
40
E0
F0
60
ENDCHAR
STARTCHAR quoteright
ENCODING 8217
SWIDTH 241 0
DWIDTH 4 0
BBX 4 6 0 6
BITMAP
60
F0
70
20
60
80
ENDCHAR
STARTCHAR quotesinglbase
ENCODING 8218
SWIDTH 241 0
DWIDTH 4 0
BBX 4 6 0 -3
BITMAP
60
F0
70
20
60
80
ENDCHAR
STARTCHAR quotereversed
ENCODING 8219
SWIDTH 241 0
DWIDTH 4 0
BBX 4 6 0 6
BITMAP
60
F0
E0
40
60
10
ENDCHAR
STARTCHAR quotedblleft
ENCODING 8220
SWIDTH 481 0
DWIDTH 8 0
BBX 8 6 0 6
BITMAP
11
66
44
EE
FF
66
ENDCHAR
STARTCHAR quotedblright
ENCODING 8221
SWIDTH 481 0
DWIDTH 8 0
BBX 8 6 0 6
BITMAP
66
FF
77
22
66
88
ENDCHAR
STARTCHAR quotedblbase
ENCODING 8222
SWIDTH 481 0
DWIDTH 8 0
BBX 8 6 -1 -3
BITMAP
66
FF
77
22
66
88
ENDCHAR
STARTCHAR uni201F
ENCODING 8223
SWIDTH 481 0
DWIDTH 8 0
BBX 8 6 0 6
BITMAP
66
FF
EE
44
66
11
ENDCHAR
STARTCHAR dagger
ENCODING 8224
SWIDTH 500 0
DWIDTH 8 0
BBX 7 15 0 -3
BITMAP
10
38
10
54
FE
54
10
10
38
10
10
10
10
10
10
ENDCHAR
STARTCHAR daggerdbl
ENCODING 8225
SWIDTH 500 0
DWIDTH 8 0
BBX 7 15 0 -3
BITMAP
10
38
10
54
FE
54
10
38
10
54
FE
54
10
38
10
ENDCHAR
STARTCHAR bullet
ENCODING 8226
SWIDTH 606 0
DWIDTH 10 0
BBX 6 6 2 3
BITMAP
78
FC
FC
FC
FC
78
ENDCHAR
STARTCHAR ellipsis
ENCODING 8230
SWIDTH 1000 0
DWIDTH 15 0
BBX 14 3 0 0
BITMAP
6318
F7BC
6318
ENDCHAR
STARTCHAR perthousand
ENCODING 8240
SWIDTH 1000 0
DWIDTH 17 0
BBX 18 12 -1 0
BITMAP
388000
778000
650000
C90000
CA0000
720000
04E380
05D740
099640
0B2C80
132C80
11C700
ENDCHAR
STARTCHAR guilsinglleft
ENCODING 8249
SWIDTH 333 0
DWIDTH 6 0
BBX 3 5 1 2
BITMAP
20
40
C0
40
20
ENDCHAR
STARTCHAR guilsinglright
ENCODING 8250
SWIDTH 333 0
DWIDTH 6 0
BBX 3 5 1 2
BITMAP
80
40
60
40
80
ENDCHAR
STARTCHAR fraction
ENCODING 8260
SWIDTH 167 0
DWIDTH 3 0
BBX 8 12 -3 0
BITMAP
01
02
02
04
08
08
10
10
20
40
40
80
ENDCHAR
STARTCHAR oneinferior
ENCODING 8321
SWIDTH 344 0
DWIDTH 6 0
BBX 4 7 1 -3
BITMAP
20
E0
60
60
60
60
F0
ENDCHAR
STARTCHAR twoinferior
ENCODING 8322
SWIDTH 344 0
DWIDTH 6 0
BBX 5 7 0 -3
BITMAP
70
98
D8
10
20
78
F8
ENDCHAR
STARTCHAR threeinferior
ENCODING 8323
SWIDTH 344 0
DWIDTH 6 0
BBX 6 7 0 -3
BITMAP
78
CC
4C
18
4C
CC
78
ENDCHAR
STARTCHAR uni20A5
ENCODING 8357
SWIDTH 963 0
DWIDTH 16 0
BBX 15 12 0 -2
BITMAP
0040
0040
F7B8
7BDC
739C
739C
739C
739C
739C
FBBE
0400
0400
ENDCHAR
STARTCHAR uni20A6
ENCODING 8358
SWIDTH 833 0
DWIDTH 14 0
BBX 14 12 0 0
BITMAP
F07C
3810
3C10
3FF0
3FF0
2790
23D0
3FF0
3FF0
2070
2030
F810
ENDCHAR
STARTCHAR uni20A9
ENCODING 8361
SWIDTH 981 0
DWIDTH 16 0
BBX 15 12 0 0
BITMAP
FBDE
718C
3188
3FF8
3FF8
3BD0
1AD0
1FF0
1FF0
0C60
0C60
0C60
ENDCHAR
STARTCHAR Euro
ENCODING 8364
SWIDTH 778 0
DWIDTH 13 0
BBX 13 12 -1 0
BITMAP
03E8
0E38
1C18
FF08
FF08
3800
3800
FF08
FF08
1C10
0E30
03C0
ENDCHAR
STARTCHAR uni20AD
ENCODING 8365
SWIDTH 815 0
DWIDTH 13 0
BBX 14 12 0 0
BITMAP
FEF8
3860
38C0
3980
3B00
FFFC
FFFC
3BC0
39E0
38F0
3878
FEFC
ENDCHAR
STARTCHAR uni2103
ENCODING 8451
SWIDTH 1158 0
DWIDTH 20 0
BBX 18 12 1 0
BITMAP
701F40
D871C0
88E0C0
D8E040
71C040
01C000
01C000
01C040
00E040
00E080
007180
001E00
ENDCHAR
STARTCHAR uni2109
ENCODING 8457
SWIDTH 1102 0
DWIDTH 19 0
BBX 17 12 1 0
BITMAP
73FF80
D8E180
88E180
D8E480
70EC00
00FC00
00EC00
00E400
00E000
00E000
00E000
03F800
ENDCHAR
STARTCHAR trademark
ENCODING 8482
SWIDTH 1000 0
DWIDTH 17 0
BBX 16 7 0 5
BITMAP
FFC7
92C6
10EA
10AA
10BA
1092
39D7
ENDCHAR
STARTCHAR uni212A
ENCODING 8490
SWIDTH 815 0
DWIDTH 13 0
BBX 14 12 0 0
BITMAP
FEF8
3860
38C0
3980
3B00
3F80
3F80
3BC0
39E0
38F0
3878
FEFC
ENDCHAR
STARTCHAR uni212B
ENCODING 8491
SWIDTH 759 0
DWIDTH 13 0
BBX 13 16 0 0
BITMAP
0600
0B00
0600
0000
0600
0700
0700
0F00
0B80
1B80
11C0
3FC0
31C0
20E0
60E0
F1F8
ENDCHAR
STARTCHAR uni2132
ENCODING 8498
SWIDTH 722 0
DWIDTH 12 0
BBX 11 12 0 0
BITMAP
0FE0
0380
0380
0380
1380
1B80
1F80
1B80
9380
C380
C380
FFE0
ENDCHAR
STARTCHAR universal
ENCODING 8704
SWIDTH 759 0
DWIDTH 13 0
BBX 13 12 0 0
BITMAP
F1F8
60E0
20E0
31C0
3FC0
11C0
1B80
0B80
0F00
0700
0700
0600
ENDCHAR
STARTCHAR existential
ENCODING 8707
SWIDTH 759 0
DWIDTH 12 0
BBX 11 12 0 0
BITMAP
FFE0
C380
C380
9380
1B80
1F80
1B80
9380
8380
C380
C380
FFE0
ENDCHAR
STARTCHAR uni2204
ENCODING 8708
SWIDTH 759 0
DWIDTH 12 0
BBX 11 12 0 0
BITMAP
FFE0
C380
C380
9380
1B80
1F80
1F80
9B80
8B80
CB80
D380
FFE0
ENDCHAR
STARTCHAR minus
ENCODING 8722
SWIDTH 606 0
DWIDTH 10 0
BBX 8 2 1 3
BITMAP
FF
FF
ENDCHAR
STARTCHAR fraction
ENCODING 8725
SWIDTH 167 0
DWIDTH 3 0
BBX 8 12 -3 0
BITMAP
01
02
02
04
08
08
10
10
20
40
40
80
ENDCHAR
STARTCHAR periodcentered
ENCODING 8729
SWIDTH 278 0
DWIDTH 5 0
BBX 4 3 0 3
BITMAP
60
F0
60
ENDCHAR
STARTCHAR uni2236
ENCODING 8758
SWIDTH 278 0
DWIDTH 5 0
BBX 4 8 0 0
BITMAP
60
F0
60
00
00
60
F0
60
ENDCHAR
STARTCHAR uni2259
ENCODING 8793
SWIDTH 606 0
DWIDTH 10 0
BBX 8 10 1 1
BITMAP
08
1C
36
00
FF
FF
00
00
FF
FF
ENDCHAR
STARTCHAR uni225A
ENCODING 8794
SWIDTH 606 0
DWIDTH 10 0
BBX 8 10 1 1
BITMAP
36
1C
08
00
FF
FF
00
00
FF
FF
ENDCHAR
STARTCHAR notequal
ENCODING 8800
SWIDTH 606 0
DWIDTH 10 0
BBX 8 12 1 -2
BITMAP
02
02
04
FF
FF
08
08
FF
FF
10
20
20
ENDCHAR
STARTCHAR equivalence
ENCODING 8801
SWIDTH 606 0
DWIDTH 10 0
BBX 8 8 0 0
BITMAP
FF
FF
00
FF
FF
00
FF
FF
ENDCHAR
STARTCHAR uni2262
ENCODING 8802
SWIDTH 606 0
DWIDTH 10 0
BBX 8 12 0 -2
BITMAP
02
02
FF
FF
04
FF
FF
10
FF
FF
20
20
ENDCHAR
STARTCHAR lessequal
ENCODING 8804
SWIDTH 606 0
DWIDTH 10 0
BBX 8 11 1 -2
BITMAP
03
0F
3C
F0
F0
3C
0F
03
00
FF
FF
ENDCHAR
STARTCHAR greaterequal
ENCODING 8805
SWIDTH 606 0
DWIDTH 10 0
BBX 8 11 1 -2
BITMAP
C0
F0
3C
0F
0F
3C
F0
C0
00
FF
FF
ENDCHAR
STARTCHAR uni226E
ENCODING 8814
SWIDTH 606 0
DWIDTH 10 0
BBX 8 12 1 -1
BITMAP
02
02
07
0F
3C
F8
F8
3C
1F
13
20
20
ENDCHAR
STARTCHAR uni226F
ENCODING 8815
SWIDTH 606 0
DWIDTH 10 0
BBX 8 12 1 -1
BITMAP
02
02
C4
F4
3C
0F
0F
3C
F0
D0
20
20
ENDCHAR
STARTCHAR uni2270
ENCODING 8816
SWIDTH 606 0
DWIDTH 10 0
BBX 8 12 1 -2
BITMAP
02
03
0F
3C
F4
F8
3C
1F
13
10
FF
FF
ENDCHAR
STARTCHAR uni2271
ENCODING 8817
SWIDTH 606 0
DWIDTH 10 0
BBX 8 12 1 -2
BITMAP
02
C2
F4
3C
0F
0F
3C
F0
D0
10
FF
FF
ENDCHAR
STARTCHAR fi
ENCODING -1
SWIDTH 685 0
DWIDTH 11 0
BBX 11 12 0 0
BITMAP
0F00
1380
3300
3000
FF80
3180
3180
3180
3180
3180
3180
FBE0
ENDCHAR
STARTCHAR fl
ENCODING -1
SWIDTH 685 0
DWIDTH 11 0
BBX 11 12 0 0
BITMAP
0F80
1380
3180
3180
FF80
3180
3180
3180
3180
3180
3180
FBE0
ENDCHAR
ENDFONT
